<?xml version="1.0" encoding="utf-8"?>
<!-- Generator: Adobe Illustrator 24.3.0, SVG Export Plug-In . SVG Version: 6.00 Build 0)  -->
<svg version="1.1" id="Layer_1" xmlns="http://www.w3.org/2000/svg" xmlns:xlink="http://www.w3.org/1999/xlink" x="0px" y="0px"
	 viewBox="0 0 86.6 100" style="enable-background:new 0 0 86.6 100;" xml:space="preserve">
<style type="text/css">
	.st0{fill-rule:evenodd;clip-rule:evenodd;fill:#1D1E43;}
	.st1{opacity:0.3;clip-path:url(#SVGID_2_);}
	.st2{fill-rule:evenodd;clip-rule:evenodd;fill:#8B9DC2;}
	.st3{fill-rule:evenodd;clip-rule:evenodd;fill:#A0A8BE;}
	.st4{fill-rule:evenodd;clip-rule:evenodd;fill:#9FA0CC;}
	.st5{fill-rule:evenodd;clip-rule:evenodd;fill:#B3BEC8;fill-opacity:0.582;}
	.st6{fill-rule:evenodd;clip-rule:evenodd;fill:#81B0D4;}
	.st7{fill-rule:evenodd;clip-rule:evenodd;fill:#C3CCD9;}
	.st8{fill-rule:evenodd;clip-rule:evenodd;fill:#BDCADC;}
	.st9{fill-rule:evenodd;clip-rule:evenodd;fill:#C6D5DE;}
	.st10{fill:#FFFFFF;}
	.st11{fill:#1D1E43;}
	.st12{fill:#5064FB;}
</style>
<g>
	<polygon class="st0" points="43.3,0 0,25 0,75 43.3,100 86.6,75 86.6,25 	"/>
	<g>
		<defs>
			<polygon id="SVGID_1_" points="43.3,0 0,25 0,75 43.3,100 86.6,75 86.6,25 			"/>
		</defs>
		<clipPath id="SVGID_2_">
			<use xlink:href="#SVGID_1_"  style="overflow:visible;"/>
		</clipPath>
		<g id="Page-1" class="st1">
			<g id="stars" transform="translate(-2.000000, 0.000000)">
				<g id="Group" transform="translate(2.000000, 0.000000)">
					<path id="Fill-546" class="st2" d="M-20.87,98.24c0.22-0.22,0.59-0.22,0.81,0c0.22,0.22,0.22,0.57,0,0.79
						c-0.22,0.22-0.58,0.22-0.81,0C-21.09,98.81-21.09,98.46-20.87,98.24"/>
					<path id="Fill-548" class="st2" d="M6.46,85.92c0.22-0.22,0.59-0.22,0.81,0c0.22,0.22,0.22,0.57,0,0.79
						c-0.22,0.22-0.59,0.22-0.81,0C6.23,86.49,6.23,86.14,6.46,85.92"/>
					<path id="Fill-550" class="st2" d="M5.72,99.45c0.22-0.22,0.59-0.22,0.81,0c0.22,0.22,0.22,0.57,0,0.79
						c-0.22,0.22-0.58,0.22-0.81,0C5.49,100.03,5.49,99.67,5.72,99.45"/>
					<path id="Fill-552" class="st2" d="M14.98,111.59c0.22-0.22,0.59-0.22,0.81,0c0.22,0.22,0.22,0.57,0,0.79
						c-0.22,0.22-0.58,0.22-0.81,0C14.76,112.17,14.76,111.81,14.98,111.59"/>
					<path id="Fill-554" class="st2" d="M40.12,94.3c0.22-0.22,0.59-0.22,0.81,0c0.22,0.22,0.22,0.57,0,0.79
						c-0.22,0.22-0.58,0.22-0.81,0C39.9,94.88,39.9,94.52,40.12,94.3"/>
					<path id="Fill-558" class="st2" d="M50.82,106.18c0.22-0.22,0.59-0.22,0.81,0c0.22,0.22,0.22,0.57,0,0.79
						c-0.22,0.22-0.58,0.22-0.81,0C50.6,106.76,50.6,106.4,50.82,106.18"/>
					<path id="Fill-560" class="st2" d="M54.3,73.01c0.22-0.22,0.59-0.22,0.81,0c0.22,0.22,0.22,0.57,0,0.79
						c-0.22,0.22-0.59,0.22-0.81,0C54.07,73.58,54.07,73.23,54.3,73.01"/>
					<path id="Fill-562" class="st2" d="M43.34,42.19c0.22-0.22,0.59-0.22,0.81,0c0.22,0.22,0.22,0.57,0,0.79
						c-0.22,0.22-0.59,0.22-0.81,0C43.11,42.76,43.11,42.41,43.34,42.19"/>
					<path id="Fill-564" class="st2" d="M39,65.16c0.22-0.22,0.59-0.22,0.81,0c0.22,0.22,0.22,0.57,0,0.79
						c-0.22,0.22-0.58,0.22-0.81,0C38.78,65.74,38.78,65.38,39,65.16"/>
					<path id="Fill-566" class="st2" d="M-5.94,91.38c0.22-0.22,0.59-0.22,0.81,0c0.22,0.22,0.22,0.57,0,0.79
						c-0.22,0.22-0.58,0.22-0.81,0C-6.17,91.96-6.17,91.6-5.94,91.38"/>
					<path id="Fill-568" class="st2" d="M15.79,4.68c0.22-0.22,0.59-0.22,0.81,0c0.22,0.22,0.22,0.57,0,0.79
						c-0.22,0.22-0.58,0.22-0.81,0C15.57,5.26,15.57,4.9,15.79,4.68"/>
					<path id="Fill-570" class="st2" d="M26.35-9.58c0.22-0.22,0.59-0.22,0.81,0c0.22,0.22,0.22,0.57,0,0.79
						c-0.22,0.22-0.59,0.22-0.81,0C26.13-9,26.13-9.36,26.35-9.58"/>
					<path id="Fill-606" class="st2" d="M-22.43,57.52c0.22-0.22,0.59-0.22,0.81,0c0.22,0.22,0.22,0.57,0,0.79
						c-0.22,0.22-0.58,0.22-0.81,0C-22.65,58.09-22.65,57.74-22.43,57.52"/>
					<path id="Fill-610" class="st2" d="M-9.92,47.51c0.22-0.22,0.59-0.22,0.81,0c0.22,0.22,0.22,0.57,0,0.79
						c-0.22,0.22-0.58,0.22-0.81,0S-10.14,47.73-9.92,47.51"/>
					<path id="Fill-612" class="st2" d="M-9.28,56.64c0.22-0.22,0.59-0.22,0.81,0c0.22,0.22,0.22,0.57,0,0.79
						c-0.22,0.22-0.59,0.22-0.81,0C-9.51,57.21-9.51,56.86-9.28,56.64"/>
					<path id="Fill-616" class="st2" d="M0.16,47.37c0.22-0.22,0.59-0.22,0.81,0c0.22,0.22,0.22,0.57,0,0.79
						c-0.22,0.22-0.58,0.22-0.81,0C-0.06,47.95-0.06,47.59,0.16,47.37"/>
					<path id="Fill-618" class="st2" d="M-16.94,41.11c0.22-0.22,0.59-0.22,0.81,0c0.22,0.22,0.22,0.57,0,0.79
						c-0.22,0.22-0.58,0.22-0.81,0C-17.17,41.69-17.17,41.33-16.94,41.11"/>
					<path id="Fill-620" class="st2" d="M14.03,51.98c0.22-0.22,0.59-0.22,0.81,0c0.22,0.22,0.22,0.57,0,0.79
						c-0.22,0.22-0.58,0.22-0.81,0C13.81,52.55,13.81,52.2,14.03,51.98"/>
					<path id="Fill-622" class="st2" d="M23.28,38.9c0.22-0.22,0.59-0.22,0.81,0c0.22,0.22,0.22,0.57,0,0.79
						c-0.22,0.22-0.59,0.22-0.81,0C23.05,39.47,23.05,39.12,23.28,38.9"/>
					<path id="Fill-626" class="st2" d="M23.85,45.35c0.22-0.22,0.59-0.22,0.81,0c0.22,0.22,0.22,0.57,0,0.79
						c-0.22,0.22-0.58,0.22-0.81,0S23.62,45.57,23.85,45.35"/>
					<path id="Fill-628" class="st2" d="M-14.24,28.36c0.22-0.22,0.59-0.22,0.81,0c0.22,0.22,0.22,0.57,0,0.79
						c-0.22,0.22-0.59,0.22-0.81,0C-14.46,28.93-14.46,28.58-14.24,28.36"/>
					<path id="Fill-630" class="st2" d="M24.35,2.29c0.22-0.22,0.59-0.22,0.81,0c0.22,0.22,0.22,0.57,0,0.79
						c-0.22,0.22-0.58,0.22-0.81,0C24.12,2.87,24.12,2.51,24.35,2.29"/>
					<path id="Fill-632" class="st2" d="M49.7,1.56c0.22-0.22,0.59-0.22,0.81,0c0.22,0.22,0.22,0.57,0,0.79
						c-0.22,0.22-0.58,0.22-0.81,0C49.47,2.13,49.47,1.78,49.7,1.56"/>
					<path id="Fill-634" class="st2" d="M21.72-22.02c0.22-0.22,0.59-0.22,0.81,0c0.22,0.22,0.22,0.57,0,0.79
						c-0.22,0.22-0.58,0.22-0.81,0C21.49-21.45,21.49-21.8,21.72-22.02"/>
					<path id="Fill-638" class="st2" d="M-11.36-10.84c0.22-0.22,0.59-0.22,0.81,0c0.22,0.22,0.22,0.57,0,0.79
						c-0.22,0.22-0.59,0.22-0.81,0C-11.59-10.26-11.59-10.62-11.36-10.84"/>
					<path id="Fill-640" class="st2" d="M-5.37-2.62c0.22-0.22,0.59-0.22,0.81,0c0.22,0.22,0.22,0.57,0,0.79
						c-0.22,0.22-0.58,0.22-0.81,0C-5.6-2.04-5.6-2.4-5.37-2.62"/>
					<path id="Fill-658" class="st2" d="M-15.15-22c0.22-0.22,0.59-0.22,0.81,0c0.22,0.22,0.22,0.57,0,0.79
						c-0.22,0.22-0.58,0.22-0.81,0S-15.38-21.78-15.15-22"/>
					<path id="Fill-660" class="st2" d="M-24.61-24.85c0.22-0.22,0.59-0.22,0.81,0c0.22,0.22,0.22,0.57,0,0.79
						c-0.22,0.22-0.59,0.22-0.81,0C-24.83-24.28-24.83-24.63-24.61-24.85"/>
					<path id="Fill-717" class="st3" d="M-19.74,11.36c0.22-0.22,0.59-0.22,0.81,0c0.22,0.22,0.22,0.57,0,0.79
						c-0.22,0.22-0.58,0.22-0.81,0C-19.96,11.93-19.96,11.58-19.74,11.36"/>
					<path id="Fill-745" class="st4" d="M-16.21-7.61c0.13-0.13,0.35-0.13,0.49,0c0.13,0.13,0.13,0.35,0,0.49
						c-0.13,0.13-0.35,0.13-0.49,0C-16.35-7.25-16.35-7.47-16.21-7.61"/>
					<path id="Fill-747" class="st4" d="M47.73,38.25c0.13-0.13,0.35-0.13,0.49,0c0.13,0.13,0.13,0.35,0,0.49
						c-0.13,0.13-0.35,0.13-0.49,0C47.6,38.6,47.6,38.39,47.73,38.25"/>
					<path id="Fill-749" class="st4" d="M42.32,71.26c0.13-0.13,0.35-0.13,0.49,0c0.13,0.13,0.13,0.35,0,0.49
						c-0.13,0.13-0.35,0.13-0.49,0C42.18,71.61,42.18,71.39,42.32,71.26"/>
					<path id="Fill-751" class="st4" d="M31.24,68.76c0.13-0.13,0.35-0.13,0.49,0c0.13,0.13,0.13,0.35,0,0.49
						c-0.13,0.13-0.35,0.13-0.49,0C31.11,69.11,31.11,68.89,31.24,68.76"/>
					<path id="Fill-753" class="st4" d="M40.46,106.87c0.13-0.13,0.35-0.13,0.49,0c0.13,0.13,0.13,0.35,0,0.49
						c-0.13,0.13-0.35,0.13-0.49,0C40.33,107.22,40.33,107,40.46,106.87"/>
					<path id="Fill-782" class="st5" d="M-21.45,109.43c0.13-0.13,0.35-0.13,0.49,0c0.13,0.13,0.13,0.35,0,0.49
						c-0.13,0.13-0.35,0.13-0.49,0C-21.59,109.78-21.59,109.56-21.45,109.43"/>
					<path id="Fill-786" class="st5" d="M3.35,93.04c0.13-0.13,0.35-0.13,0.49,0c0.13,0.13,0.13,0.35,0,0.49
						c-0.13,0.13-0.35,0.13-0.49,0C3.21,93.39,3.21,93.17,3.35,93.04"/>
					<path id="Fill-788" class="st5" d="M-16.21,82.84c0.13-0.13,0.35-0.13,0.49,0c0.13,0.13,0.13,0.35,0,0.49
						c-0.13,0.13-0.35,0.13-0.49,0C-16.35,83.19-16.35,82.97-16.21,82.84"/>
					<path id="Fill-790" class="st5" d="M29.18,89.15c0.13-0.13,0.35-0.13,0.49,0s0.13,0.35,0,0.49c-0.13,0.13-0.35,0.13-0.49,0
						C29.04,89.51,29.04,89.29,29.18,89.15"/>
					<path id="Fill-792" class="st5" d="M19.64,91.19c0.13-0.13,0.35-0.13,0.49,0c0.13,0.14,0.13,0.35,0,0.49s-0.35,0.13-0.49,0
						S19.5,91.33,19.64,91.19"/>
					<path id="Fill-856" class="st5" d="M87.8-23.25c0.13-0.13,0.35-0.13,0.49,0c0.13,0.13,0.13,0.35,0,0.49
						c-0.13,0.13-0.35,0.13-0.49,0C87.66-22.89,87.66-23.11,87.8-23.25"/>
					<path id="Fill-906" class="st5" d="M26.11,34.49c0.13-0.13,0.35-0.13,0.49,0c0.13,0.13,0.13,0.35,0,0.49
						c-0.13,0.13-0.35,0.13-0.49,0C25.98,34.84,25.98,34.62,26.11,34.49"/>
					<path id="Fill-908" class="st5" d="M27.55,20.08c0.13-0.13,0.35-0.13,0.49,0c0.13,0.13,0.13,0.35,0,0.49
						c-0.13,0.13-0.35,0.13-0.49,0C27.41,20.44,27.41,20.22,27.55,20.08"/>
					<path id="Fill-910" class="st5" d="M36.95-21c0.13-0.13,0.35-0.13,0.49,0s0.13,0.35,0,0.49s-0.35,0.13-0.49,0
						S36.81-20.86,36.95-21"/>
					<path id="Fill-932" class="st5" d="M0.85,65.66c0.13-0.13,0.35-0.13,0.49,0c0.13,0.13,0.13,0.35,0,0.49
						c-0.13,0.13-0.35,0.13-0.49,0C0.72,66.01,0.72,65.79,0.85,65.66"/>
					<path id="Fill-934" class="st5" d="M42.32,57.16c0.13-0.13,0.35-0.13,0.49,0c0.13,0.13,0.13,0.35,0,0.49
						c-0.13,0.13-0.35,0.13-0.49,0C42.18,57.51,42.18,57.29,42.32,57.16"/>
					<path id="Fill-936" class="st5" d="M33.57,55.11c0.13-0.13,0.35-0.13,0.49,0c0.13,0.13,0.13,0.35,0,0.49
						c-0.13,0.13-0.35,0.13-0.49,0C33.43,55.46,33.43,55.24,33.57,55.11"/>
					<path id="Fill-938" class="st5" d="M46.82-13.88c0.13-0.13,0.35-0.13,0.49,0c0.13,0.13,0.13,0.35,0,0.49
						c-0.13,0.13-0.35,0.13-0.49,0C46.69-13.53,46.69-13.75,46.82-13.88"/>
					<path id="Fill-940" class="st5" d="M37.78-9.08c0.13-0.13,0.35-0.13,0.49,0c0.13,0.13,0.13,0.35,0,0.49
						c-0.13,0.13-0.35,0.13-0.49,0C37.64-8.73,37.64-8.95,37.78-9.08"/>
					<path id="Fill-952" class="st6" d="M5.39-23.1c0.34-0.34,0.88-0.34,1.22,0c0.34,0.34,0.34,0.88,0,1.22
						c-0.34,0.34-0.88,0.34-1.22,0C5.05-22.22,5.05-22.77,5.39-23.1"/>
					<path id="Fill-962" class="st6" d="M-20.59,24.01c0.34-0.34,0.88-0.34,1.22,0c0.34,0.34,0.34,0.88,0,1.22
						c-0.34,0.34-0.88,0.34-1.22,0C-20.93,24.89-20.93,24.34-20.59,24.01"/>
					<path id="Fill-970" class="st6" d="M10.55-9.79c0.34-0.34,0.88-0.34,1.22,0s0.34,0.88,0,1.22s-0.88,0.34-1.22,0
						C10.21-8.91,10.21-9.45,10.55-9.79"/>
					<path id="Fill-972" class="st6" d="M38.38,14.5c0.34-0.34,0.88-0.34,1.22,0c0.34,0.34,0.34,0.88,0,1.22
						c-0.34,0.34-0.88,0.34-1.22,0C38.04,15.39,38.04,14.84,38.38,14.5"/>
					<path id="Fill-974" class="st6" d="M37.59,29.12c0.34-0.34,0.88-0.34,1.22,0c0.34,0.34,0.34,0.88,0,1.22
						c-0.34,0.34-0.88,0.34-1.22,0C37.26,30,37.26,29.45,37.59,29.12"/>
					<path id="Fill-980" class="st6" d="M9.54,16.61c0.34-0.34,0.88-0.34,1.22,0c0.34,0.34,0.34,0.88,0,1.22
						c-0.34,0.34-0.88,0.34-1.22,0C9.2,17.5,9.2,16.95,9.54,16.61"/>
					<path id="Fill-982" class="st6" d="M14.7,102.42c0.34-0.34,0.88-0.34,1.22,0c0.34,0.34,0.34,0.88,0,1.22
						c-0.34,0.34-0.88,0.34-1.22,0C14.36,103.3,14.36,102.75,14.7,102.42"/>
					<path id="Fill-1000" class="st6" d="M-19.14,103.28c0.34-0.34,0.88-0.34,1.22,0c0.34,0.34,0.34,0.88,0,1.22
						c-0.34,0.34-0.88,0.34-1.22,0C-19.47,104.16-19.47,103.61-19.14,103.28"/>
					<path id="Fill-1004" class="st6" d="M-6.92,77.77c0.34-0.34,0.88-0.34,1.22,0c0.34,0.34,0.34,0.88,0,1.22
						c-0.34,0.34-0.88,0.34-1.22,0C-7.25,78.65-7.25,78.11-6.92,77.77"/>
					<path id="Fill-1006" class="st6" d="M45.89,89.53c0.34-0.34,0.88-0.34,1.22,0c0.34,0.34,0.34,0.88,0,1.22
						c-0.34,0.34-0.88,0.34-1.22,0C45.55,90.41,45.55,89.87,45.89,89.53"/>
					<path id="Fill-1048" class="st7" d="M104.61-27.87c0.13-0.13,0.35-0.13,0.49,0c0.13,0.13,0.13,0.35,0,0.49
						c-0.13,0.13-0.35,0.13-0.49,0C104.47-27.52,104.47-27.74,104.61-27.87"/>
					<path id="Fill-1050" class="st7" d="M102.05-12.44c0.13-0.13,0.35-0.13,0.49,0c0.13,0.13,0.13,0.35,0,0.49
						c-0.13,0.13-0.35,0.13-0.49,0C101.91-12.09,101.91-12.3,102.05-12.44"/>
					<path id="Fill-1052" class="st7" d="M108.85-2.4c0.13-0.13,0.35-0.13,0.49,0c0.13,0.13,0.13,0.35,0,0.49
						c-0.13,0.13-0.35,0.13-0.49,0C108.71-2.05,108.71-2.27,108.85-2.4"/>
					<path id="Fill-1054" class="st7" d="M94.36-4.65c0.13-0.13,0.35-0.13,0.49,0c0.13,0.13,0.13,0.35,0,0.49
						c-0.13,0.13-0.35,0.13-0.49,0C94.23-4.3,94.23-4.52,94.36-4.65"/>
					<path id="Fill-1056" class="st7" d="M82.44,10.2c0.13-0.13,0.35-0.13,0.49,0c0.13,0.13,0.13,0.35,0,0.49
						c-0.13,0.13-0.35,0.13-0.49,0C82.31,10.56,82.31,10.34,82.44,10.2"/>
					<path id="Fill-1058" class="st7" d="M95.02,22.87c0.13-0.13,0.35-0.13,0.49,0c0.13,0.13,0.13,0.35,0,0.49
						c-0.13,0.13-0.35,0.13-0.49,0C94.89,23.22,94.89,23,95.02,22.87"/>
					<path id="Fill-1060" class="st7" d="M79.8,33.43c0.13-0.13,0.35-0.13,0.49,0c0.13,0.13,0.13,0.35,0,0.49
						c-0.13,0.13-0.35,0.13-0.49,0C79.67,33.78,79.67,33.56,79.8,33.43"/>
					<path id="Fill-1062" class="st7" d="M84.97,56.47c0.13-0.13,0.35-0.13,0.49,0c0.13,0.13,0.13,0.35,0,0.49s-0.35,0.13-0.49,0
						C84.84,56.82,84.84,56.6,84.97,56.47"/>
					<path id="Fill-1064" class="st7" d="M78.53,73.47c0.13-0.13,0.35-0.13,0.49,0c0.13,0.13,0.13,0.35,0,0.49
						c-0.13,0.13-0.35,0.13-0.49,0C78.4,73.83,78.4,73.61,78.53,73.47"/>
					<path id="Fill-1066" class="st7" d="M102.26,93.04c0.13-0.13,0.35-0.13,0.49,0c0.13,0.13,0.13,0.35,0,0.49
						c-0.13,0.13-0.35,0.13-0.49,0C102.13,93.39,102.13,93.17,102.26,93.04"/>
					<path id="Fill-1068" class="st7" d="M77.43,97.66c0.13-0.13,0.35-0.13,0.49,0c0.13,0.13,0.13,0.35,0,0.49
						c-0.13,0.13-0.35,0.13-0.49,0C77.29,98.01,77.29,97.79,77.43,97.66"/>
					<path id="Fill-1070" class="st7" d="M88.18,104.39c0.13-0.13,0.35-0.13,0.49,0c0.13,0.13,0.13,0.35,0,0.49
						c-0.13,0.13-0.35,0.13-0.49,0C88.04,104.74,88.04,104.52,88.18,104.39"/>
					<polygon id="Fill-1246" class="st8" points="32.8,111.64 32.36,112.43 31.94,111.65 31.16,111.23 31.95,110.79 32.39,110.01 
						32.81,110.79 33.59,111.21 					"/>
					<polygon id="Fill-1248" class="st8" points="48.14,11.23 47.7,12.02 47.28,11.24 46.5,10.82 47.29,10.38 47.72,9.59 
						48.15,10.37 48.93,10.8 					"/>
					<polygon id="Fill-1252" class="st8" points="42.95,-1.11 42.51,-0.32 42.09,-1.1 41.31,-1.52 42.1,-1.96 42.54,-2.74 
						42.96,-1.96 43.74,-1.54 					"/>
					<polygon id="Fill-1258" class="st8" points="52.86,-3.77 52.43,-2.98 52.01,-3.76 51.22,-4.18 52.01,-4.62 52.45,-5.41 
						52.87,-4.63 53.65,-4.21 					"/>
					<polygon id="Fill-1278" class="st8" points="9.23,28.7 8.79,29.48 8.37,28.7 7.59,28.28 8.38,27.85 8.81,27.06 9.23,27.84 
						10.01,28.26 					"/>
					<polygon id="Fill-1280" class="st8" points="11.8,34.36 11.36,35.14 10.94,34.36 10.16,33.94 10.95,33.51 11.38,32.72 
						11.81,33.5 12.59,33.92 					"/>
					<polygon id="Fill-1282" class="st8" points="21.3,41.8 20.87,42.59 20.44,41.81 19.66,41.38 20.45,40.95 20.89,40.16 
						21.31,40.94 22.09,41.36 					"/>
					<polygon id="Fill-1284" class="st8" points="27.29,52.84 26.85,53.63 26.43,52.85 25.65,52.43 26.44,51.99 26.87,51.2 
						27.29,51.98 28.07,52.4 					"/>
					<polygon id="Fill-1288" class="st8" points="16.06,64.25 15.62,65.04 15.2,64.26 14.42,63.84 15.21,63.4 15.64,62.62 
						16.06,63.4 16.84,63.82 					"/>
					<polygon id="Fill-1290" class="st8" points="5.34,62.55 4.91,63.34 4.48,62.56 3.7,62.14 4.49,61.7 4.93,60.92 5.35,61.7 
						6.13,62.12 					"/>
					<polygon id="Fill-1292" class="st8" points="3.41,70.4 2.97,71.19 2.55,70.41 1.77,69.98 2.56,69.55 3,68.76 3.42,69.54 
						4.2,69.96 					"/>
					<polygon id="Fill-1294" class="st8" points="20.14,74.75 19.7,75.54 19.28,74.76 18.5,74.34 19.29,73.9 19.72,73.11 
						20.15,73.89 20.93,74.31 					"/>
					<polygon id="Fill-1298" class="st8" points="27.37,74.32 26.93,75.11 26.51,74.33 25.73,73.91 26.52,73.47 26.95,72.68 
						27.37,73.46 28.15,73.89 					"/>
					<polygon id="Fill-1302" class="st8" points="1.26,10.48 0.83,11.26 0.4,10.48 -0.38,10.06 0.41,9.63 0.85,8.84 1.27,9.62 
						2.05,10.04 					"/>
					<polygon id="Fill-1304" class="st8" points="-1.96,8.36 -2.4,9.15 -2.82,8.37 -3.6,7.95 -2.81,7.52 -2.37,6.73 -1.95,7.51 
						-1.17,7.93 					"/>
					<polygon id="Fill-1310" class="st8" points="-10.31,13.52 -10.74,14.31 -11.16,13.53 -11.94,13.11 -11.16,12.67 -10.72,11.88 
						-10.3,12.66 -9.52,13.08 					"/>
					<polygon id="Fill-1482" class="st8" points="110.42,1.94 109.98,2.73 109.56,1.95 108.78,1.53 109.57,1.09 110,0.3 
						110.42,1.08 111.2,1.5 					"/>
					<polygon id="Fill-1484" class="st8" points="102.72,-3.15 102.28,-2.37 101.86,-3.15 101.08,-3.57 101.87,-4.01 102.3,-4.79 
						102.73,-4.01 103.51,-3.59 					"/>
					<polygon id="Fill-1486" class="st8" points="103.93,-15.38 103.5,-14.6 103.07,-15.38 102.29,-15.8 103.08,-16.23 
						103.52,-17.02 103.94,-16.24 104.72,-15.82 					"/>
					<polygon id="Fill-1488" class="st8" points="113.82,-16.6 113.38,-15.81 112.96,-16.59 112.18,-17.01 112.97,-17.45 
						113.41,-18.24 113.83,-17.46 114.61,-17.03 					"/>
					<polygon id="Fill-1492" class="st8" points="70.87,-14.7 70.43,-13.91 70.01,-14.69 69.23,-15.11 70.02,-15.54 70.46,-16.33 
						70.88,-15.55 71.66,-15.13 					"/>
					<polygon id="Fill-1494" class="st8" points="64.65,-18.77 64.21,-17.98 63.79,-18.76 63.01,-19.19 63.8,-19.62 64.24,-20.41 
						64.66,-19.63 65.44,-19.21 					"/>
					<polygon id="Fill-1496" class="st8" points="61.62,-11.77 61.18,-10.98 60.76,-11.76 59.98,-12.18 60.77,-12.62 61.2,-13.41 
						61.63,-12.63 62.41,-12.21 					"/>
					<polygon id="Fill-1498" class="st8" points="70.87,15.76 70.43,16.54 70.01,15.76 69.23,15.34 70.02,14.91 70.46,14.12 
						70.88,14.9 71.66,15.32 					"/>
					<polygon id="Fill-1500" class="st8" points="69.32,25.9 68.88,26.69 68.46,25.91 67.68,25.49 68.47,25.05 68.9,24.26 
						69.33,25.04 70.11,25.46 					"/>
					<polygon id="Fill-1502" class="st8" points="64.05,36.29 63.61,37.07 63.19,36.29 62.41,35.87 63.2,35.44 63.63,34.65 
						64.05,35.43 64.83,35.85 					"/>
					<polygon id="Fill-1504" class="st8" points="72.77,36.29 72.34,37.07 71.91,36.29 71.13,35.87 71.92,35.44 72.36,34.65 
						72.78,35.43 73.56,35.85 					"/>
					<polygon id="Fill-1506" class="st8" points="79.2,30.15 78.76,30.94 78.34,30.16 77.56,29.74 78.35,29.3 78.78,28.51 
						79.21,29.29 79.99,29.71 					"/>
					<polygon id="Fill-1508" class="st8" points="100.26,36.29 99.83,37.07 99.4,36.29 98.62,35.87 99.41,35.44 99.85,34.65 
						100.27,35.43 101.05,35.85 					"/>
					<polygon id="Fill-1512" class="st8" points="112.61,38.92 112.17,39.71 111.75,38.93 110.97,38.51 111.76,38.07 112.19,37.28 
						112.61,38.06 113.4,38.48 					"/>
					<polygon id="Fill-1540" class="st8" points="84.43,65.86 83.99,66.65 83.57,65.87 82.79,65.45 83.57,65.01 84.01,64.22 
						84.43,65 85.21,65.43 					"/>
					<polygon id="Fill-1544" class="st8" points="95.35,73.17 94.91,73.96 94.49,73.18 93.71,72.76 94.49,72.32 94.93,71.53 
						95.35,72.32 96.13,72.74 					"/>
					<polygon id="Fill-1548" class="st8" points="89.72,82.02 89.28,82.8 88.86,82.02 88.08,81.6 88.86,81.17 89.3,80.38 
						89.72,81.16 90.5,81.58 					"/>
					<polygon id="Fill-1550" class="st8" points="82.77,80.02 82.33,80.81 81.91,80.03 81.13,79.6 81.92,79.17 82.35,78.38 
						82.78,79.16 83.56,79.58 					"/>
					<polygon id="Fill-1572" class="st8" points="106.88,107.66 106.44,108.45 106.02,107.67 105.24,107.24 106.03,106.81 
						106.47,106.02 106.89,106.8 107.67,107.22 					"/>
					<polygon id="Fill-1574" class="st8" points="105.67,100.27 105.23,101.06 104.81,100.28 104.03,99.86 104.82,99.42 
						105.25,98.64 105.67,99.42 106.45,99.84 					"/>
					<path id="Fill-1672" class="st9" d="M109.03,11.9c0.22-0.22,0.59-0.22,0.81,0c0.22,0.22,0.22,0.58,0,0.81
						c-0.22,0.22-0.58,0.22-0.81,0C108.81,12.49,108.81,12.13,109.03,11.9"/>
					<path id="Fill-1674" class="st9" d="M86.46-9.37c0.22-0.22,0.59-0.22,0.81,0c0.22,0.22,0.22,0.58,0,0.81
						c-0.22,0.22-0.59,0.22-0.81,0C86.23-8.78,86.23-9.14,86.46-9.37"/>
					<path id="Fill-1676" class="st9" d="M72.1-1.57c0.22-0.22,0.59-0.22,0.81,0c0.22,0.22,0.22,0.58,0,0.81
						c-0.22,0.22-0.59,0.22-0.81,0C71.88-0.98,71.88-1.34,72.1-1.57"/>
					<path id="Fill-1678" class="st9" d="M95.37,6.3c0.22-0.22,0.59-0.22,0.81,0c0.22,0.22,0.22,0.58,0,0.81
						c-0.22,0.22-0.59,0.22-0.81,0C95.15,6.88,95.15,6.52,95.37,6.3"/>
					<path id="Fill-1680" class="st9" d="M84.47,22.6c0.22-0.22,0.59-0.22,0.81,0c0.22,0.22,0.22,0.58,0,0.81
						c-0.22,0.22-0.58,0.22-0.81,0C84.24,23.18,84.24,22.82,84.47,22.6"/>
					<path id="Fill-1682" class="st9" d="M49.7,23.72c0.22-0.22,0.59-0.22,0.81,0c0.22,0.22,0.22,0.58,0,0.81
						c-0.22,0.22-0.58,0.22-0.81,0C49.47,24.31,49.47,23.94,49.7,23.72"/>
					<path id="Fill-1684" class="st9" d="M54.29,54.72c0.22-0.22,0.59-0.22,0.81,0c0.22,0.22,0.22,0.58,0,0.81
						c-0.22,0.22-0.59,0.22-0.81,0C54.07,55.3,54.07,54.94,54.29,54.72"/>
					<path id="Fill-1686" class="st9" d="M68.49,50.8c0.22-0.22,0.59-0.22,0.81,0c0.22,0.22,0.22,0.58,0,0.81
						c-0.22,0.22-0.59,0.22-0.81,0C68.27,51.38,68.27,51.02,68.49,50.8"/>
					<path id="Fill-1688" class="st9" d="M82.63,43.45c0.22-0.22,0.59-0.22,0.81,0c0.22,0.22,0.22,0.58,0,0.81
						c-0.22,0.22-0.59,0.22-0.81,0C82.4,44.03,82.4,43.67,82.63,43.45"/>
					<path id="Fill-1690" class="st9" d="M104.1,49.47c0.22-0.22,0.59-0.22,0.81,0c0.22,0.22,0.22,0.58,0,0.81
						c-0.22,0.22-0.59,0.22-0.81,0C103.88,50.06,103.88,49.7,104.1,49.47"/>
					<path id="Fill-1720" class="st9" d="M113.62,73.87c0.22-0.22,0.59-0.22,0.81,0c0.22,0.22,0.22,0.58,0,0.81
						c-0.22,0.22-0.58,0.22-0.81,0C113.4,74.45,113.4,74.09,113.62,73.87"/>
					<path id="Fill-1722" class="st9" d="M112.99,84.4c0.22-0.22,0.59-0.22,0.81,0c0.22,0.22,0.22,0.58,0,0.81
						c-0.22,0.22-0.59,0.22-0.81,0C112.77,84.99,112.77,84.63,112.99,84.4"/>
					<path id="Fill-1724" class="st9" d="M67.92,92.03c0.22-0.22,0.59-0.22,0.81,0c0.22,0.22,0.22,0.58,0,0.81
						c-0.22,0.22-0.59,0.22-0.81,0C67.69,92.61,67.69,92.25,67.92,92.03"/>
					<path id="Fill-1726" class="st9" d="M63.28,83.02c0.22-0.22,0.59-0.22,0.81,0c0.22,0.22,0.22,0.58,0,0.81
						c-0.22,0.22-0.58,0.22-0.81,0C63.05,83.6,63.05,83.24,63.28,83.02"/>
					<path id="Fill-1728" class="st9" d="M57.19,92.53c0.22-0.22,0.59-0.22,0.81,0c0.22,0.22,0.22,0.58,0,0.81
						c-0.22,0.22-0.59,0.22-0.81,0C56.97,93.12,56.97,92.76,57.19,92.53"/>
					<path id="Fill-1730" class="st9" d="M68.49,109.27c0.22-0.22,0.59-0.22,0.81,0c0.22,0.22,0.22,0.58,0,0.81
						c-0.22,0.22-0.59,0.22-0.81,0C68.27,109.85,68.27,109.49,68.49,109.27"/>
					<path id="Fill-1736" class="st9" d="M90.1,111.68c0.22-0.22,0.59-0.22,0.81,0c0.22,0.22,0.22,0.58,0,0.81
						c-0.22,0.22-0.59,0.22-0.81,0C89.88,112.27,89.88,111.91,90.1,111.68"/>
					<path id="Fill-1794" class="st9" d="M80.28,109.93c0.35-0.35,0.92-0.35,1.27,0c0.35,0.35,0.35,0.92,0,1.27
						c-0.35,0.35-0.92,0.35-1.27,0C79.93,110.85,79.93,110.28,80.28,109.93"/>
					<path id="Fill-1796" class="st9" d="M64.81,73.43c0.35-0.35,0.92-0.35,1.27,0c0.35,0.35,0.35,0.92,0,1.27
						c-0.35,0.35-0.92,0.35-1.27,0C64.46,74.34,64.46,73.78,64.81,73.43"/>
					<path id="Fill-1798" class="st9" d="M76.17,53.69c0.35-0.35,0.92-0.35,1.27,0c0.35,0.35,0.35,0.92,0,1.27
						c-0.35,0.35-0.92,0.35-1.27,0C75.82,54.61,75.82,54.04,76.17,53.69"/>
					<path id="Fill-1800" class="st9" d="M107.04,62.15c0.35-0.35,0.92-0.35,1.27,0c0.35,0.35,0.35,0.92,0,1.27
						c-0.35,0.35-0.92,0.35-1.27,0C106.69,63.07,106.69,62.5,107.04,62.15"/>
					<path id="Fill-1814" class="st9" d="M83.37-5.43c0.35-0.35,0.92-0.35,1.27,0c0.35,0.35,0.35,0.92,0,1.27
						c-0.35,0.35-0.92,0.35-1.27,0C83.02-4.51,83.02-5.08,83.37-5.43"/>
					<path id="Fill-1824" class="st9" d="M75.27-27.92c0.35-0.35,0.92-0.35,1.27,0c0.35,0.35,0.35,0.92,0,1.27
						c-0.35,0.35-0.92,0.35-1.27,0C74.92-27,74.92-27.57,75.27-27.92"/>
				</g>
			</g>
		</g>
		<g id="Page-1_1_" class="st1">
			<g id="stars_1_" transform="translate(-2.000000, 0.000000)">
				<g id="Group_1_" transform="translate(2.000000, 0.000000)">
					<path id="Fill-546_1_" class="st2" d="M-7.97,90.24c0.16-0.16,0.42-0.16,0.58,0c0.16,0.16,0.16,0.42,0,0.57
						c-0.16,0.16-0.42,0.16-0.58,0C-8.14,90.66-8.14,90.4-7.97,90.24"/>
					<path id="Fill-550_1_" class="st2" d="M11.27,91.12c0.16-0.16,0.42-0.16,0.58,0c0.16,0.16,0.16,0.42,0,0.57
						c-0.16,0.16-0.42,0.16-0.58,0C11.11,91.54,11.11,91.28,11.27,91.12"/>
					<path id="Fill-552_1_" class="st2" d="M17.98,99.91c0.16-0.16,0.42-0.16,0.58,0c0.16,0.16,0.16,0.42,0,0.57
						c-0.16,0.16-0.42,0.16-0.58,0C17.82,100.32,17.82,100.07,17.98,99.91"/>
					<path id="Fill-554_1_" class="st2" d="M36.18,87.39c0.16-0.16,0.42-0.16,0.58,0c0.16,0.16,0.16,0.42,0,0.57
						c-0.16,0.16-0.42,0.16-0.58,0C36.02,87.81,36.02,87.55,36.18,87.39"/>
					<path id="Fill-558_1_" class="st2" d="M43.92,95.99c0.16-0.16,0.42-0.16,0.58,0c0.16,0.16,0.16,0.42,0,0.57
						c-0.16,0.16-0.42,0.16-0.58,0C43.76,96.41,43.76,96.15,43.92,95.99"/>
					<path id="Fill-560_1_" class="st2" d="M46.44,71.98c0.16-0.16,0.42-0.16,0.58,0c0.16,0.16,0.16,0.42,0,0.57
						c-0.16,0.16-0.42,0.16-0.58,0C46.28,72.39,46.28,72.13,46.44,71.98"/>
					<path id="Fill-562_1_" class="st2" d="M38.5,49.67c0.16-0.16,0.42-0.16,0.58,0c0.16,0.16,0.16,0.42,0,0.57
						c-0.16,0.16-0.42,0.16-0.58,0C38.34,50.08,38.34,49.83,38.5,49.67"/>
					<path id="Fill-564_1_" class="st2" d="M35.37,66.3c0.16-0.16,0.42-0.16,0.58,0c0.16,0.16,0.16,0.42,0,0.57
						c-0.16,0.16-0.42,0.16-0.58,0C35.2,66.71,35.2,66.46,35.37,66.3"/>
					<path id="Fill-566_1_" class="st2" d="M2.83,85.28c0.16-0.16,0.42-0.16,0.58,0c0.16,0.16,0.16,0.42,0,0.57
						c-0.16,0.16-0.42,0.16-0.58,0C2.67,85.7,2.67,85.44,2.83,85.28"/>
					<path id="Fill-568_1_" class="st2" d="M18.56,22.52c0.16-0.16,0.42-0.16,0.58,0c0.16,0.16,0.16,0.42,0,0.57
						c-0.16,0.16-0.42,0.16-0.58,0S18.4,22.68,18.56,22.52"/>
					<path id="Fill-570_1_" class="st2" d="M26.21,12.19c0.16-0.16,0.42-0.16,0.58,0c0.16,0.16,0.16,0.42,0,0.57
						c-0.16,0.16-0.42,0.16-0.58,0C26.05,12.61,26.05,12.35,26.21,12.19"/>
					<path id="Fill-606_1_" class="st2" d="M-9.1,60.77c0.16-0.16,0.42-0.16,0.58,0c0.16,0.16,0.16,0.42,0,0.57
						c-0.16,0.16-0.42,0.16-0.58,0C-9.26,61.18-9.26,60.92-9.1,60.77"/>
					<path id="Fill-610_1_" class="st2" d="M-0.05,53.52c0.16-0.16,0.42-0.16,0.58,0c0.16,0.16,0.16,0.42,0,0.57
						c-0.16,0.16-0.42,0.16-0.58,0S-0.21,53.67-0.05,53.52"/>
					<path id="Fill-612_1_" class="st2" d="M0.41,60.13c0.16-0.16,0.42-0.16,0.58,0c0.16,0.16,0.16,0.42,0,0.57
						c-0.16,0.16-0.42,0.16-0.58,0C0.25,60.54,0.25,60.29,0.41,60.13"/>
					<path id="Fill-616_1_" class="st2" d="M7.25,53.42c0.16-0.16,0.42-0.16,0.58,0c0.16,0.16,0.16,0.42,0,0.57
						c-0.16,0.16-0.42,0.16-0.58,0C7.09,53.83,7.09,53.58,7.25,53.42"/>
					<path id="Fill-618_1_" class="st2" d="M-5.13,48.89c0.16-0.16,0.42-0.16,0.58,0c0.16,0.16,0.16,0.42,0,0.57
						c-0.16,0.16-0.42,0.16-0.58,0C-5.29,49.3-5.29,49.05-5.13,48.89"/>
					<path id="Fill-620_1_" class="st2" d="M17.29,56.75c0.16-0.16,0.42-0.16,0.58,0c0.16,0.16,0.16,0.42,0,0.57
						c-0.16,0.16-0.42,0.16-0.58,0C17.13,57.17,17.13,56.91,17.29,56.75"/>
					<path id="Fill-628_1_" class="st2" d="M-3.17,39.65c0.16-0.16,0.42-0.16,0.58,0c0.16,0.16,0.16,0.42,0,0.57
						c-0.16,0.16-0.42,0.16-0.58,0C-3.33,40.07-3.33,39.81-3.17,39.65"/>
					<path id="Fill-630_1_" class="st2" d="M24.76,20.79c0.16-0.16,0.42-0.16,0.58,0c0.16,0.16,0.16,0.42,0,0.57
						c-0.16,0.16-0.42,0.16-0.58,0C24.6,21.2,24.6,20.95,24.76,20.79"/>
					<path id="Fill-632_1_" class="st2" d="M43.11,20.25c0.16-0.16,0.42-0.16,0.58,0c0.16,0.16,0.16,0.42,0,0.57
						c-0.16,0.16-0.42,0.16-0.58,0C42.95,20.67,42.95,20.41,43.11,20.25"/>
					<path id="Fill-634_1_" class="st2" d="M22.85,3.19c0.16-0.16,0.42-0.16,0.58,0c0.16,0.16,0.16,0.42,0,0.57
						c-0.16,0.16-0.42,0.16-0.58,0S22.69,3.34,22.85,3.19"/>
					<path id="Fill-638_1_" class="st2" d="M-1.09,11.28c0.16-0.16,0.42-0.16,0.58,0c0.16,0.16,0.16,0.42,0,0.57
						c-0.16,0.16-0.42,0.16-0.58,0C-1.25,11.7-1.25,11.44-1.09,11.28"/>
					<path id="Fill-640_1_" class="st2" d="M3.25,17.23c0.16-0.16,0.42-0.16,0.58,0c0.16,0.16,0.16,0.42,0,0.57
						c-0.16,0.16-0.42,0.16-0.58,0C3.08,17.65,3.08,17.39,3.25,17.23"/>
					<path id="Fill-658_1_" class="st2" d="M-3.84,3.2c0.16-0.16,0.42-0.16,0.58,0c0.16,0.16,0.16,0.42,0,0.57
						c-0.16,0.16-0.42,0.16-0.58,0C-4,3.62-4,3.36-3.84,3.2"/>
					<path id="Fill-660_1_" class="st2" d="M-10.68,1.14c0.16-0.16,0.42-0.16,0.58,0c0.16,0.16,0.16,0.42,0,0.57
						c-0.16,0.16-0.42,0.16-0.58,0C-10.84,1.55-10.84,1.3-10.68,1.14"/>
					<path id="Fill-717_1_" class="st3" d="M-7.15,27.35c0.16-0.16,0.42-0.16,0.58,0c0.16,0.16,0.16,0.42,0,0.57
						c-0.16,0.16-0.42,0.16-0.58,0C-7.31,27.77-7.31,27.51-7.15,27.35"/>
					<path id="Fill-745_1_" class="st4" d="M-4.6,13.62c0.1-0.1,0.26-0.1,0.35,0c0.1,0.1,0.1,0.26,0,0.35c-0.1,0.1-0.26,0.1-0.35,0
						C-4.7,13.88-4.7,13.72-4.6,13.62"/>
					<path id="Fill-747_1_" class="st4" d="M41.69,46.82c0.1-0.1,0.26-0.1,0.35,0c0.1,0.1,0.1,0.26,0,0.35c-0.1,0.1-0.26,0.1-0.35,0
						C41.59,47.07,41.59,46.91,41.69,46.82"/>
					<path id="Fill-749_1_" class="st4" d="M37.77,70.71c0.1-0.1,0.26-0.1,0.35,0c0.1,0.1,0.1,0.26,0,0.35s-0.26,0.1-0.35,0
						C37.67,70.97,37.67,70.81,37.77,70.71"/>
					<path id="Fill-751_1_" class="st4" d="M29.75,68.9c0.1-0.1,0.26-0.1,0.35,0c0.1,0.1,0.1,0.26,0,0.35c-0.1,0.1-0.26,0.1-0.35,0
						C29.65,69.16,29.65,69,29.75,68.9"/>
					<path id="Fill-753_1_" class="st4" d="M36.43,96.49c0.1-0.1,0.26-0.1,0.35,0c0.1,0.1,0.1,0.26,0,0.35c-0.1,0.1-0.26,0.1-0.35,0
						C36.33,96.74,36.33,96.59,36.43,96.49"/>
					<path id="Fill-782_1_" class="st5" d="M-8.39,98.34c0.1-0.1,0.26-0.1,0.35,0c0.1,0.1,0.1,0.26,0,0.35c-0.1,0.1-0.26,0.1-0.35,0
						S-8.49,98.44-8.39,98.34"/>
					<path id="Fill-786_1_" class="st5" d="M9.56,86.48c0.1-0.1,0.26-0.1,0.35,0c0.1,0.1,0.1,0.26,0,0.35c-0.1,0.1-0.26,0.1-0.35,0
						C9.46,86.73,9.46,86.57,9.56,86.48"/>
					<path id="Fill-788_1_" class="st5" d="M-4.6,79.09c0.1-0.1,0.26-0.1,0.35,0s0.1,0.26,0,0.35c-0.1,0.1-0.26,0.1-0.35,0
						C-4.7,79.35-4.7,79.19-4.6,79.09"/>
					<path id="Fill-790_1_" class="st5" d="M28.26,83.67c0.1-0.1,0.26-0.1,0.35,0c0.1,0.1,0.1,0.26,0,0.35c-0.1,0.1-0.26,0.1-0.35,0
						C28.16,83.92,28.16,83.76,28.26,83.67"/>
					<path id="Fill-792_1_" class="st5" d="M21.35,85.14c0.1-0.1,0.26-0.1,0.35,0c0.1,0.1,0.1,0.26,0,0.35s-0.26,0.1-0.35,0
						S21.25,85.24,21.35,85.14"/>
					<path id="Fill-856_1_" class="st5" d="M70.69,2.3c0.1-0.1,0.26-0.1,0.35,0c0.1,0.1,0.1,0.26,0,0.35c-0.1,0.1-0.26,0.1-0.35,0
						C70.59,2.55,70.59,2.4,70.69,2.3"/>
					<path id="Fill-906_1_" class="st5" d="M26.04,44.09c0.1-0.1,0.26-0.1,0.35,0c0.1,0.1,0.1,0.26,0,0.35c-0.1,0.1-0.26,0.1-0.35,0
						C25.94,44.35,25.94,44.19,26.04,44.09"/>
					<path id="Fill-908_1_" class="st5" d="M27.07,33.66c0.1-0.1,0.26-0.1,0.35,0c0.1,0.1,0.1,0.26,0,0.35c-0.1,0.1-0.26,0.1-0.35,0
						C26.98,33.92,26.98,33.76,27.07,33.66"/>
					<path id="Fill-910_1_" class="st5" d="M33.88,3.93c0.1-0.1,0.26-0.1,0.35,0c0.1,0.1,0.1,0.26,0,0.35c-0.1,0.1-0.26,0.1-0.35,0
						C33.78,4.18,33.78,4.02,33.88,3.93"/>
					<path id="Fill-932_1_" class="st5" d="M7.75,66.66c0.1-0.1,0.26-0.1,0.35,0c0.1,0.1,0.1,0.26,0,0.35c-0.1,0.1-0.26,0.1-0.35,0
						C7.66,66.91,7.66,66.75,7.75,66.66"/>
					<path id="Fill-934_1_" class="st5" d="M37.77,60.5c0.1-0.1,0.26-0.1,0.35,0c0.1,0.1,0.1,0.26,0,0.35s-0.26,0.1-0.35,0
						C37.67,60.76,37.67,60.6,37.77,60.5"/>
					<path id="Fill-936_1_" class="st5" d="M31.43,59.02c0.1-0.1,0.26-0.1,0.35,0c0.1,0.1,0.1,0.26,0,0.35c-0.1,0.1-0.26,0.1-0.35,0
						C31.34,59.27,31.34,59.12,31.43,59.02"/>
					<path id="Fill-938_1_" class="st5" d="M41.03,9.08c0.1-0.1,0.26-0.1,0.35,0c0.1,0.1,0.1,0.26,0,0.35c-0.1,0.1-0.26,0.1-0.35,0
						C40.93,9.33,40.93,9.17,41.03,9.08"/>
					<path id="Fill-940_1_" class="st5" d="M34.48,12.55c0.1-0.1,0.26-0.1,0.35,0c0.1,0.1,0.1,0.26,0,0.35c-0.1,0.1-0.26,0.1-0.35,0
						C34.38,12.81,34.38,12.65,34.48,12.55"/>
					<path id="Fill-952_1_" class="st6" d="M11.04,2.4c0.24-0.24,0.64-0.24,0.88,0c0.24,0.24,0.24,0.64,0,0.88
						c-0.24,0.24-0.64,0.24-0.88,0S10.79,2.65,11.04,2.4"/>
					<path id="Fill-962_1_" class="st6" d="M-7.77,36.5c0.24-0.24,0.64-0.24,0.88,0c0.24,0.24,0.24,0.64,0,0.88
						c-0.24,0.24-0.64,0.24-0.88,0C-8.02,37.14-8.02,36.75-7.77,36.5"/>
					<path id="Fill-970_1_" class="st6" d="M14.77,12.04c0.24-0.24,0.64-0.24,0.88,0c0.24,0.24,0.24,0.64,0,0.88
						c-0.24,0.24-0.64,0.24-0.88,0C14.53,12.68,14.53,12.28,14.77,12.04"/>
					<path id="Fill-972_1_" class="st6" d="M34.91,29.63c0.24-0.24,0.64-0.24,0.88,0c0.24,0.24,0.24,0.64,0,0.88
						c-0.24,0.24-0.64,0.24-0.88,0C34.67,30.26,34.67,29.87,34.91,29.63"/>
					<path id="Fill-974_1_" class="st6" d="M34.35,40.2c0.24-0.24,0.64-0.24,0.88,0s0.24,0.64,0,0.88s-0.64,0.24-0.88,0
						C34.11,40.84,34.11,40.45,34.35,40.2"/>
					<path id="Fill-980_1_" class="st6" d="M14.04,31.15c0.24-0.24,0.64-0.24,0.88,0c0.24,0.24,0.24,0.64,0,0.88
						c-0.24,0.24-0.64,0.24-0.88,0S13.8,31.4,14.04,31.15"/>
					<path id="Fill-982_1_" class="st6" d="M17.77,93.26c0.24-0.24,0.64-0.24,0.88,0c0.24,0.24,0.24,0.64,0,0.88
						c-0.24,0.24-0.64,0.24-0.88,0C17.53,93.9,17.53,93.51,17.77,93.26"/>
					<path id="Fill-1000_1_" class="st6" d="M-6.72,93.89c0.24-0.24,0.64-0.24,0.88,0c0.24,0.24,0.24,0.64,0,0.88
						c-0.24,0.24-0.64,0.24-0.88,0C-6.96,94.53-6.96,94.13-6.72,93.89"/>
					<path id="Fill-1006_1_" class="st6" d="M40.35,83.94c0.24-0.24,0.64-0.24,0.88,0c0.24,0.24,0.24,0.64,0,0.88
						c-0.24,0.24-0.64,0.24-0.88,0C40.11,84.58,40.11,84.18,40.35,83.94"/>
					<path id="Fill-1048_1_" class="st7" d="M82.86-1.05c0.1-0.1,0.26-0.1,0.35,0c0.1,0.1,0.1,0.26,0,0.35c-0.1,0.1-0.26,0.1-0.35,0
						S82.76-0.95,82.86-1.05"/>
					<path id="Fill-1050_1_" class="st7" d="M81.01,10.12c0.1-0.1,0.26-0.1,0.35,0c0.1,0.1,0.1,0.26,0,0.35
						c-0.1,0.1-0.26,0.1-0.35,0C80.91,10.38,80.91,10.22,81.01,10.12"/>
					<path id="Fill-1052_1_" class="st7" d="M85.93,17.39c0.1-0.1,0.26-0.1,0.35,0c0.1,0.1,0.1,0.26,0,0.35
						c-0.1,0.1-0.26,0.1-0.35,0C85.83,17.64,85.83,17.48,85.93,17.39"/>
					<path id="Fill-1054_1_" class="st7" d="M75.44,15.76c0.1-0.1,0.26-0.1,0.35,0c0.1,0.1,0.1,0.26,0,0.35
						c-0.1,0.1-0.26,0.1-0.35,0C75.34,16.01,75.34,15.86,75.44,15.76"/>
					<path id="Fill-1056_1_" class="st7" d="M66.82,26.51c0.1-0.1,0.26-0.1,0.35,0c0.1,0.1,0.1,0.26,0,0.35
						c-0.1,0.1-0.26,0.1-0.35,0C66.72,26.77,66.72,26.61,66.82,26.51"/>
					<path id="Fill-1058_1_" class="st7" d="M75.92,35.68c0.1-0.1,0.26-0.1,0.35,0c0.1,0.1,0.1,0.26,0,0.35
						c-0.1,0.1-0.26,0.1-0.35,0C75.82,35.94,75.82,35.78,75.92,35.68"/>
					<path id="Fill-1060_1_" class="st7" d="M64.9,43.32c0.1-0.1,0.26-0.1,0.35,0c0.1,0.1,0.1,0.26,0,0.35c-0.1,0.1-0.26,0.1-0.35,0
						C64.8,43.58,64.8,43.42,64.9,43.32"/>
					<path id="Fill-1062_1_" class="st7" d="M68.64,60c0.1-0.1,0.26-0.1,0.35,0c0.1,0.1,0.1,0.26,0,0.35c-0.1,0.1-0.26,0.1-0.35,0
						C68.55,60.26,68.55,60.1,68.64,60"/>
					<path id="Fill-1064_1_" class="st7" d="M63.98,72.31c0.1-0.1,0.26-0.1,0.35,0c0.1,0.1,0.1,0.26,0,0.35
						c-0.1,0.1-0.26,0.1-0.35,0C63.89,72.57,63.89,72.41,63.98,72.31"/>
					<path id="Fill-1066_1_" class="st7" d="M81.16,86.48c0.1-0.1,0.26-0.1,0.35,0c0.1,0.1,0.1,0.26,0,0.35
						c-0.1,0.1-0.26,0.1-0.35,0C81.06,86.73,81.06,86.57,81.16,86.48"/>
					<path id="Fill-1068_1_" class="st7" d="M63.18,89.82c0.1-0.1,0.26-0.1,0.35,0c0.1,0.1,0.1,0.26,0,0.35
						c-0.1,0.1-0.26,0.1-0.35,0C63.09,90.08,63.09,89.92,63.18,89.82"/>
					<path id="Fill-1070_1_" class="st7" d="M70.97,94.69c0.1-0.1,0.26-0.1,0.35,0c0.1,0.1,0.1,0.26,0,0.35
						c-0.1,0.1-0.26,0.1-0.35,0C70.87,94.95,70.87,94.79,70.97,94.69"/>
					<polygon id="Fill-1246_1_" class="st8" points="30.88,99.95 30.56,100.52 30.26,99.95 29.69,99.65 30.26,99.33 30.58,98.76 
						30.88,99.33 31.45,99.63 					"/>
					<polygon id="Fill-1248_1_" class="st8" points="41.98,27.26 41.67,27.83 41.36,27.26 40.79,26.96 41.37,26.64 41.68,26.07 
						41.99,26.64 42.55,26.94 					"/>
					<polygon id="Fill-1252_1_" class="st8" points="38.23,18.33 37.91,18.9 37.61,18.33 37.04,18.03 37.61,17.71 37.93,17.14 
						38.23,17.7 38.8,18.01 					"/>
					<polygon id="Fill-1258_1_" class="st8" points="45.4,16.4 45.09,16.97 44.78,16.4 44.22,16.1 44.79,15.78 45.1,15.21 
						45.41,15.78 45.97,16.08 					"/>
					<polygon id="Fill-1278_1_" class="st8" points="13.81,39.9 13.5,40.47 13.19,39.9 12.63,39.6 13.2,39.28 13.51,38.71 
						13.82,39.28 14.38,39.58 					"/>
					<polygon id="Fill-1280_1_" class="st8" points="15.68,44 15.36,44.57 15.05,44 14.49,43.7 15.06,43.38 15.38,42.81 
						15.68,43.38 16.25,43.68 					"/>
					<polygon id="Fill-1284_1_" class="st8" points="26.89,57.38 26.57,57.95 26.26,57.38 25.7,57.08 26.27,56.76 26.59,56.19 
						26.89,56.76 27.46,57.06 					"/>
					<polygon id="Fill-1288_1_" class="st8" points="18.76,65.64 18.44,66.21 18.14,65.65 17.57,65.34 18.14,65.03 18.46,64.45 
						18.76,65.02 19.33,65.32 					"/>
					<polygon id="Fill-1290_1_" class="st8" points="11,64.41 10.69,64.98 10.38,64.41 9.82,64.11 10.39,63.79 10.7,63.22 
						11.01,63.79 11.57,64.09 					"/>
					<polygon id="Fill-1292_1_" class="st8" points="9.6,70.09 9.29,70.66 8.98,70.09 8.42,69.79 8.99,69.47 9.3,68.9 9.61,69.47 
						10.17,69.77 					"/>
					<polygon id="Fill-1294_1_" class="st8" points="21.71,73.24 21.4,73.81 21.09,73.24 20.53,72.94 21.1,72.62 21.41,72.05 
						21.72,72.62 22.28,72.92 					"/>
					<polygon id="Fill-1302_1_" class="st8" points="8.05,26.71 7.73,27.28 7.43,26.71 6.86,26.41 7.43,26.09 7.75,25.52 
						8.05,26.09 8.62,26.39 					"/>
					<polygon id="Fill-1304_1_" class="st8" points="5.72,25.18 5.4,25.75 5.09,25.19 4.53,24.88 5.1,24.57 5.42,24 5.72,24.56 
						6.29,24.87 					"/>
					<polygon id="Fill-1310_1_" class="st8" points="-0.33,28.91 -0.64,29.48 -0.95,28.92 -1.51,28.61 -0.94,28.3 -0.63,27.73 
						-0.32,28.29 0.24,28.6 					"/>
					<polygon id="Fill-1482_1_" class="st8" points="87.06,20.53 86.75,21.1 86.44,20.54 85.88,20.23 86.45,19.92 86.76,19.34 
						87.07,19.91 87.63,20.21 					"/>
					<polygon id="Fill-1484_1_" class="st8" points="81.49,16.84 81.18,17.41 80.87,16.85 80.31,16.54 80.88,16.23 81.19,15.66 
						81.5,16.22 82.06,16.53 					"/>
					<polygon id="Fill-1486_1_" class="st8" points="82.37,7.99 82.05,8.56 81.75,8 81.18,7.69 81.76,7.38 82.07,6.8 82.38,7.37 
						82.94,7.67 					"/>
					<polygon id="Fill-1488_1_" class="st8" points="89.53,7.11 89.21,7.68 88.91,7.12 88.34,6.81 88.91,6.5 89.23,5.93 89.53,6.49 
						90.1,6.8 					"/>
					<polygon id="Fill-1492_1_" class="st8" points="58.44,8.49 58.12,9.06 57.82,8.49 57.25,8.19 57.82,7.87 58.14,7.3 58.44,7.87 
						59.01,8.17 					"/>
					<polygon id="Fill-1496_1_" class="st8" points="51.74,10.61 51.42,11.18 51.12,10.61 50.55,10.31 51.12,9.99 51.44,9.42 
						51.75,9.99 52.31,10.29 					"/>
					<polygon id="Fill-1498_1_" class="st8" points="58.44,30.53 58.12,31.1 57.82,30.54 57.25,30.23 57.82,29.92 58.14,29.35 
						58.44,29.91 59.01,30.22 					"/>
					<polygon id="Fill-1500_1_" class="st8" points="57.31,37.88 57,38.45 56.69,37.88 56.13,37.58 56.7,37.26 57.01,36.69 
						57.32,37.25 57.88,37.56 					"/>
					<polygon id="Fill-1502_1_" class="st8" points="53.5,45.39 53.18,45.96 52.88,45.4 52.31,45.09 52.88,44.78 53.2,44.21 
						53.5,44.77 54.07,45.08 					"/>
					<polygon id="Fill-1504_1_" class="st8" points="59.81,45.39 59.5,45.96 59.19,45.4 58.63,45.09 59.2,44.78 59.51,44.21 
						59.82,44.77 60.38,45.08 					"/>
					<polygon id="Fill-1506_1_" class="st8" points="64.47,40.95 64.15,41.52 63.85,40.96 63.28,40.65 63.85,40.34 64.17,39.77 
						64.47,40.33 65.04,40.64 					"/>
					<polygon id="Fill-1508_1_" class="st8" points="79.71,45.39 79.4,45.96 79.09,45.4 78.53,45.09 79.1,44.78 79.41,44.21 
						79.72,44.77 80.28,45.08 					"/>
					<polygon id="Fill-1512_1_" class="st8" points="88.65,47.3 88.33,47.87 88.03,47.31 87.46,47 88.03,46.69 88.35,46.11 
						88.66,46.68 89.22,46.98 					"/>
					<polygon id="Fill-1540_1_" class="st8" points="68.25,66.8 67.93,67.37 67.63,66.81 67.06,66.5 67.63,66.19 67.95,65.62 
						68.26,66.18 68.82,66.49 					"/>
					<polygon id="Fill-1544_1_" class="st8" points="76.15,72.1 75.84,72.67 75.53,72.1 74.97,71.8 75.54,71.48 75.85,70.91 
						76.16,71.48 76.73,71.78 					"/>
					<polygon id="Fill-1548_1_" class="st8" points="72.08,78.5 71.76,79.07 71.46,78.5 70.89,78.2 71.46,77.88 71.78,77.31 
						72.08,77.88 72.65,78.18 					"/>
					<polygon id="Fill-1550_1_" class="st8" points="67.05,77.05 66.73,77.62 66.43,77.06 65.86,76.75 66.43,76.44 66.75,75.87 
						67.06,76.43 67.62,76.74 					"/>
					<polygon id="Fill-1572_1_" class="st8" points="84.51,97.06 84.19,97.63 83.88,97.07 83.32,96.76 83.89,96.44 84.2,95.87 
						84.51,96.44 85.08,96.74 					"/>
					<polygon id="Fill-1574_1_" class="st8" points="83.63,91.72 83.31,92.29 83,91.72 82.44,91.42 83.01,91.1 83.33,90.53 
						83.63,91.09 84.2,91.4 					"/>
					<path id="Fill-1674_1_" class="st9" d="M69.72,12.35c0.16-0.16,0.42-0.16,0.58,0c0.16,0.16,0.16,0.42,0,0.58
						c-0.16,0.16-0.42,0.16-0.58,0C69.56,12.77,69.56,12.51,69.72,12.35"/>
					<path id="Fill-1676_1_" class="st9" d="M59.33,17.99c0.16-0.16,0.42-0.16,0.59,0c0.16,0.16,0.16,0.42,0,0.58
						c-0.16,0.16-0.42,0.16-0.59,0C59.17,18.42,59.17,18.15,59.33,17.99"/>
					<path id="Fill-1678_1_" class="st9" d="M76.17,23.68c0.16-0.16,0.42-0.16,0.59,0c0.16,0.16,0.16,0.42,0,0.59
						c-0.16,0.16-0.42,0.16-0.59,0C76.01,24.11,76.01,23.85,76.17,23.68"/>
					<path id="Fill-1680_1_" class="st9" d="M68.28,35.49c0.16-0.16,0.42-0.16,0.58,0c0.16,0.16,0.16,0.42,0,0.59
						c-0.16,0.16-0.42,0.16-0.58,0C68.12,35.91,68.12,35.65,68.28,35.49"/>
					<path id="Fill-1682_1_" class="st9" d="M43.11,36.3c0.16-0.16,0.42-0.16,0.58,0c0.16,0.16,0.16,0.42,0,0.59
						c-0.16,0.16-0.42,0.16-0.58,0C42.95,36.72,42.95,36.46,43.11,36.3"/>
					<path id="Fill-1684_1_" class="st9" d="M46.44,58.74c0.16-0.16,0.42-0.16,0.59,0c0.16,0.16,0.16,0.42,0,0.58
						c-0.16,0.16-0.42,0.16-0.59,0C46.28,59.16,46.28,58.9,46.44,58.74"/>
					<path id="Fill-1686_1_" class="st9" d="M56.71,55.9c0.16-0.16,0.42-0.16,0.58,0c0.16,0.16,0.16,0.42,0,0.58
						c-0.16,0.16-0.42,0.16-0.58,0C56.55,56.32,56.55,56.06,56.71,55.9"/>
					<path id="Fill-1688_1_" class="st9" d="M66.95,50.58c0.16-0.16,0.42-0.16,0.59,0c0.16,0.16,0.16,0.42,0,0.58
						c-0.16,0.16-0.42,0.16-0.59,0C66.79,51,66.79,50.74,66.95,50.58"/>
					<path id="Fill-1690_1_" class="st9" d="M82.49,54.94c0.16-0.16,0.42-0.16,0.59,0c0.16,0.16,0.16,0.42,0,0.58
						c-0.16,0.16-0.42,0.16-0.59,0C82.33,55.36,82.33,55.1,82.49,54.94"/>
					<path id="Fill-1720_1_" class="st9" d="M89.39,72.6c0.16-0.16,0.42-0.16,0.58,0c0.16,0.16,0.16,0.42,0,0.58
						c-0.16,0.16-0.42,0.16-0.58,0C89.22,73.02,89.22,72.76,89.39,72.6"/>
					<path id="Fill-1722_1_" class="st9" d="M88.93,80.23c0.16-0.16,0.42-0.16,0.59,0c0.16,0.16,0.16,0.42,0,0.58
						c-0.16,0.16-0.42,0.16-0.59,0C88.77,80.65,88.77,80.39,88.93,80.23"/>
					<path id="Fill-1724_1_" class="st9" d="M56.3,85.74c0.16-0.16,0.42-0.16,0.59,0c0.16,0.16,0.16,0.42,0,0.58
						c-0.16,0.16-0.42,0.16-0.59,0C56.14,86.17,56.14,85.91,56.3,85.74"/>
					<path id="Fill-1726_1_" class="st9" d="M52.94,79.22c0.16-0.16,0.42-0.16,0.58,0c0.16,0.16,0.16,0.42,0,0.58
						c-0.16,0.16-0.42,0.16-0.58,0C52.78,79.65,52.78,79.39,52.94,79.22"/>
					<path id="Fill-1728_1_" class="st9" d="M48.54,86.11c0.16-0.16,0.42-0.16,0.59,0c0.16,0.16,0.16,0.42,0,0.58
						c-0.16,0.16-0.42,0.16-0.59,0C48.37,86.54,48.37,86.27,48.54,86.11"/>
					<path id="Fill-1730_1_" class="st9" d="M56.71,98.22c0.16-0.16,0.42-0.16,0.58,0c0.16,0.16,0.16,0.42,0,0.59
						c-0.16,0.16-0.42,0.16-0.58,0C56.55,98.65,56.55,98.39,56.71,98.22"/>
					<path id="Fill-1736_1_" class="st9" d="M72.36,99.97c0.16-0.16,0.42-0.16,0.58,0c0.16,0.16,0.16,0.42,0,0.58
						c-0.16,0.16-0.42,0.16-0.58,0C72.2,100.4,72.2,100.14,72.36,99.97"/>
					<path id="Fill-1794_1_" class="st9" d="M65.25,98.71c0.25-0.25,0.66-0.25,0.92,0c0.25,0.25,0.25,0.66,0,0.92
						c-0.25,0.25-0.66,0.25-0.92,0C65,99.37,65,98.96,65.25,98.71"/>
					<path id="Fill-1798_1_" class="st9" d="M62.27,57.99c0.25-0.25,0.66-0.25,0.92,0c0.25,0.25,0.25,0.66,0,0.92
						c-0.25,0.25-0.66,0.25-0.92,0C62.02,58.66,62.02,58.25,62.27,57.99"/>
					<path id="Fill-1814_1_" class="st9" d="M67.48,15.2c0.25-0.25,0.66-0.25,0.92,0c0.25,0.25,0.25,0.66,0,0.92
						c-0.25,0.25-0.66,0.25-0.92,0C67.23,15.86,67.23,15.45,67.48,15.2"/>
					<path id="Fill-1824_1_" class="st9" d="M61.62-1.08c0.25-0.25,0.66-0.25,0.92,0c0.25,0.25,0.25,0.66,0,0.92
						c-0.25,0.25-0.66,0.25-0.92,0S61.37-0.83,61.62-1.08"/>
					<polygon id="Fill-1496_3_" class="st8" points="44.25,3.52 43.93,4.09 43.63,3.53 43.06,3.22 43.63,2.91 43.95,2.34 44.25,2.9 
						44.82,3.21 					"/>
				</g>
			</g>
		</g>
	</g>
</g>
<g>
	<g>
		<path class="st10" d="M57.55,18.94H29.05c-1.93,0-3.5,1.57-3.5,3.5v58.62l35.51,0V22.44C61.06,20.51,59.48,18.94,57.55,18.94z
			 M54.89,59.18H31.54v-3.18h23.35V59.18z M54.89,54.12H31.54v-3.26h23.35V54.12z M54.89,48.97H31.54V45.7h23.35V48.97z
			 M35.76,36.09c0-4.11,3.34-7.45,7.45-7.45s7.45,3.34,7.45,7.45s-3.34,7.45-7.45,7.45S35.76,40.2,35.76,36.09z M59.2,26.3H27.4
			v-3.86c0-0.91,0.74-1.65,1.65-1.65h28.51c0.91,0,1.65,0.74,1.65,1.65V26.3z"/>
		<path class="st11" d="M57.55,20.79H29.05c-0.91,0-1.65,0.74-1.65,1.65v3.86h31.8v-3.86C59.2,21.53,58.46,20.79,57.55,20.79z"/>
		<rect x="31.54" y="45.7" class="st11" width="23.35" height="3.26"/>
		<rect x="31.54" y="50.86" class="st11" width="23.35" height="3.26"/>
		<rect x="31.54" y="56.01" class="st11" width="23.35" height="3.18"/>
		<path class="st11" d="M50.67,36.09c0-4.11-3.34-7.45-7.45-7.45s-7.45,3.34-7.45,7.45s3.34,7.45,7.45,7.45S50.67,40.2,50.67,36.09z
			 M37.62,36.09c0-3.09,2.51-5.6,5.6-5.6c3.09,0,5.6,2.51,5.6,5.6s-2.51,5.6-5.6,5.6C40.13,41.69,37.62,39.18,37.62,36.09z"/>
		<g>
			<circle class="st10" cx="30.42" cy="23.45" r="0.6"/>
			<circle class="st10" cx="32.14" cy="23.45" r="0.6"/>
			<circle class="st10" cx="33.86" cy="23.45" r="0.6"/>
		</g>
	</g>
	<circle class="st10" cx="43.3" cy="36.09" r="5.6"/>
</g>
<g>
	<circle id="createAnAccount_4_" class="st12" cx="60.44" cy="81.06" r="5.22"/>
	<g>
		<path class="st11" d="M60.39,78.68l-1.15,0.75l-0.33-0.56l1.63-1.11h0.61v6.6h-0.75V78.68z"/>
	</g>
</g>
</svg>
