<?xml version="1.0" encoding="utf-8"?>
<!-- Generator: Adobe Illustrator 24.3.0, SVG Export Plug-In . SVG Version: 6.00 Build 0)  -->
<svg version="1.1" id="Layer_1" xmlns="http://www.w3.org/2000/svg" xmlns:xlink="http://www.w3.org/1999/xlink" x="0px" y="0px"
	 viewBox="0 0 768.2 201.5" style="enable-background:new 0 0 768.2 201.5;" xml:space="preserve">
<style type="text/css">
	.st0{fill-rule:evenodd;clip-rule:evenodd;fill:#FFFFFF;}
	.st1{fill:#FFFFFF;}
</style>
<g id="Page-1">
	<g>
		<path id="Fill-3" class="st0" d="M85.3,100.3L74.8,89.6c-4,3.7-8,6.7-12.1,8.9c-4.1,2.2-9,3.3-14.7,3.3c-4.4,0-8.6-0.9-12.3-2.6
			c-3.8-1.7-7-4.1-9.8-7.1s-4.9-6.6-6.4-10.6s-2.3-8.4-2.3-13s0.8-8.9,2.3-12.9s3.6-7.5,6.4-10.5s6-5.3,9.8-7.1
			c3.8-1.7,7.9-2.6,12.3-2.6c5.3,0,10.1,1.1,14.3,3.2c4.2,2.1,8.1,4.9,11.9,8.4l10.5-12.1c-2.2-2.1-4.6-4.1-7.1-5.9
			s-5.2-3.3-8.1-4.6c-2.9-1.3-6.2-2.3-9.7-3s-7.4-1.1-11.7-1.1c-7.1,0-13.6,1.3-19.5,3.8s-10.9,6-15.2,10.4S5.8,44,3.5,49.9
			C1.2,55.8,0,62,0,68.7c0,6.8,1.2,13.1,3.6,18.9c2.4,5.9,5.7,11,9.9,15.3s9.2,7.7,15,10.2s12.1,3.7,18.9,3.7
			c4.4,0,8.3-0.4,11.9-1.1c3.6-0.8,6.9-1.9,9.9-3.3c3-1.5,5.8-3.2,8.5-5.2S82.9,102.9,85.3,100.3"/>
		<path id="Fill-4" class="st0" d="M296.9,46.7c0-3.1,1.3-5.7,4-7.9s6.4-3.3,11.1-3.3c4.2,0,8.4,0.8,12.6,2.5
			c4.2,1.6,8.4,4,12.6,7.1l8.8-12.4c-4.8-3.8-9.9-6.7-15.3-8.7s-11.6-3-18.4-3c-4.6,0-8.8,0.6-12.7,1.9c-3.9,1.3-7.2,3.1-10,5.5
			s-4.9,5.3-6.5,8.6s-2.4,7-2.4,11.1c0,4.3,0.7,8,2.1,11s3.4,5.6,6,7.7s5.9,3.9,9.7,5.3c3.9,1.4,8.3,2.7,13.2,3.9
			c4.3,1.1,7.8,2.1,10.6,3.1c2.7,1,4.8,2,6.4,3.1c1.5,1.1,2.6,2.3,3.2,3.7c0.6,1.3,0.9,2.8,0.9,4.5c0,3.6-1.5,6.5-4.4,8.6
			c-3,2.1-7,3.2-12,3.2c-5.8,0-11.1-1-15.6-3.1c-4.6-2.1-9.1-5.1-13.7-9l-9.8,11.7c5.6,5.1,11.6,8.8,18.2,11.2
			c6.5,2.4,13.4,3.7,20.6,3.7c4.9,0,9.3-0.6,13.4-1.9c4-1.2,7.5-3.1,10.4-5.5s5.1-5.3,6.8-8.8c1.6-3.5,2.4-7.4,2.4-11.8
			c0-3.9-0.6-7.3-1.9-10.2c-1.3-2.9-3.2-5.4-5.7-7.6s-5.6-4-9.4-5.5c-3.8-1.5-8.1-2.9-13-4.1c-4.4-1.1-8.1-2.1-11-3.1
			s-5.1-2-6.8-3.2c-1.6-1.2-2.8-2.4-3.4-3.7C297.2,50.2,296.9,48.6,296.9,46.7"/>
		<polyline id="Fill-5" class="st0" points="478.4,48.1 478.4,114.6 494.6,114.6 494.6,21.8 477.2,21.8 448.9,65.7 420.7,21.8 
			403.3,21.8 403.3,114.6 419.5,114.6 419.5,48.3 448.5,91.8 449.1,91.8 478.4,48.1 		"/>
		<path id="Fill-6" class="st1" d="M630.8,68.7c0,4.5-0.8,8.8-2.3,12.9c-1.6,4-3.7,7.6-6.5,10.5c-2.7,3-6.1,5.3-9.9,7.1
			c-3.9,1.7-8.1,2.6-12.7,2.6c-4.6,0-8.9-0.9-12.8-2.7c-3.9-1.8-7.3-4.2-10-7.2c-2.8-3-5-6.6-6.5-10.6c-1.6-4-2.3-8.3-2.3-12.9
			c0-4.5,0.8-8.8,2.3-12.9c1.6-4,3.7-7.6,6.5-10.5c2.8-3,6.1-5.3,9.9-7.1c3.9-1.7,8.1-2.6,12.7-2.6c4.6,0,8.9,0.9,12.8,2.7
			c3.9,1.8,7.3,4.2,10,7.2c2.8,3,5,6.6,6.5,10.6C630,59.9,630.8,64.2,630.8,68.7z M647.9,68.4c0-6.6-1.2-12.8-3.6-18.7
			c-2.4-5.9-5.7-11-10-15.3c-4.3-4.4-9.4-7.8-15.3-10.3c-5.9-2.5-12.5-3.8-19.7-3.8s-13.8,1.3-19.7,3.9s-11.1,6.1-15.4,10.5
			c-4.3,4.4-7.7,9.5-10.1,15.4c-2.4,5.9-3.6,12.1-3.6,18.7s1.2,12.8,3.6,18.7c2.4,5.9,5.7,11,10,15.3c4.3,4.4,9.4,7.8,15.3,10.3
			c5.9,2.5,12.5,3.8,19.7,3.8s13.8-1.3,19.7-3.9s11.1-6.1,15.4-10.5c4.3-4.4,7.7-9.5,10.1-15.4C646.7,81.2,647.9,75,647.9,68.4z"/>
		<path id="Fill-7" class="st0" d="M716,46.7c0-3.1,1.3-5.7,4-7.9s6.4-3.3,11.1-3.3c4.2,0,8.4,0.8,12.6,2.5s8.4,4,12.6,7.1l8.8-12.4
			c-4.8-3.8-9.9-6.7-15.3-8.7c-5.4-2-11.6-3-18.4-3c-4.6,0-8.8,0.6-12.7,1.9s-7.2,3.1-10,5.5s-4.9,5.3-6.5,8.6s-2.4,7-2.4,11.1
			c0,4.3,0.7,8,2.1,11s3.4,5.6,6,7.7s5.9,3.9,9.7,5.3c3.9,1.4,8.3,2.7,13.2,3.9c4.3,1.1,7.8,2.1,10.6,3.1c2.7,1,4.8,2,6.4,3.1
			c1.5,1.1,2.6,2.3,3.2,3.7c0.6,1.3,0.9,2.8,0.9,4.5c0,3.6-1.5,6.5-4.4,8.6c-3,2.1-7,3.2-12,3.2c-5.8,0-11.1-1-15.6-3.1
			c-4.6-2.1-9.1-5.1-13.7-9l-9.8,11.7c5.6,5.1,11.6,8.8,18.2,11.2c6.5,2.4,13.4,3.7,20.6,3.7c4.9,0,9.3-0.6,13.4-1.9
			c4-1.2,7.5-3.1,10.4-5.5s5.1-5.3,6.8-8.8c1.6-3.5,2.4-7.4,2.4-11.8c0-3.9-0.6-7.3-1.9-10.2c-1.3-2.9-3.2-5.4-5.7-7.6
			s-5.6-4-9.4-5.5c-3.8-1.5-8.1-2.9-13-4.1c-4.4-1.1-8.1-2.1-11-3.1s-5.1-2-6.8-3.2c-1.6-1.2-2.8-2.4-3.4-3.7
			C716.3,50.2,716,48.6,716,46.7"/>
		<path id="Fill-8" class="st1" d="M196.5,40.4l-44.4,44.3c-0.6-1.1-1.1-2.3-1.6-3.5c-1.6-4-2.3-8.3-2.3-12.8s0.8-8.8,2.3-12.8
			c1.6-4,3.7-7.5,6.5-10.5c2.7-3,6.1-5.3,9.9-7c3.9-1.7,8.1-2.6,12.7-2.6c4.6,0,8.9,0.9,12.8,2.7C193.8,38.8,195.2,39.6,196.5,40.4z
			 M192.6,99.1c-3.9,1.7-8.1,2.6-12.7,2.6c-4.6,0-8.9-0.9-12.8-2.7c-1.4-0.7-2.8-1.4-4.1-2.2l44.4-44.3c0.6,1.1,1.1,2.3,1.6,3.5
			c1.6,4,2.3,8.3,2.3,12.8s-0.8,8.8-2.3,12.8c-1.6,4-3.7,7.5-6.5,10.5C199.7,95,196.4,97.3,192.6,99.1z M199.3,112.8
			c5.9-2.6,11.1-6,15.4-10.4c4.3-4.4,7.7-9.5,10.1-15.3c2.4-5.8,3.6-12,3.6-18.6s-1.2-12.8-3.6-18.6c-1.4-3.5-3.2-6.7-5.2-9.6
			l28.9-28.8L237,0l-29,28.9c-2.6-1.8-5.4-3.3-8.5-4.6c-5.9-2.5-12.5-3.8-19.7-3.8s-13.7,1.3-19.7,3.9c-5.9,2.6-11.1,6-15.4,10.4
			c-4.3,4.4-7.7,9.5-10.1,15.3S131,62.2,131,68.7c0,6.6,1.2,12.7,3.6,18.6c1.4,3.5,3.2,6.7,5.2,9.6L111,125.7l11.5,11.5l29-28.9
			c2.6,1.8,5.4,3.3,8.5,4.6c5.9,2.5,12.5,3.8,19.7,3.8C186.8,116.6,193.3,115.4,199.3,112.8z"/>
	</g>
</g>
<g>
	<path class="st1" d="M550.5,191.5l5-4.9c2.4,5.1,7.9,8.7,13.5,8.7c7.1,0,12.2-6,12.2-14.5v-40.5h6.9v40.5
		c0,12.1-7.8,20.7-18.9,20.7C561.9,201.4,554.2,197.3,550.5,191.5z"/>
	<path class="st1" d="M598.9,170.3c0-16.9,14.1-31,30.8-31c16.8,0,30.7,14.1,30.7,31s-14,31.1-30.7,31.1S598.9,187.2,598.9,170.3z
		 M653.4,170.3c0-13.4-10.9-24.7-23.8-24.7s-23.8,11.3-23.8,24.7c0,13.5,11,24.8,23.8,24.8C642.6,195.1,653.4,183.8,653.4,170.3z"/>
	<path class="st1" d="M671.9,140.3h27.6c9.7,0,16.5,6.2,16.5,14.9c0,6.4-3.2,10-8.6,13.2c6.9,3.5,10.9,8.9,10.9,15.4
		c0,9.6-7.4,16.4-17.8,16.4h-28.6V140.3z M697.7,165.7c6.6,0,11.3-4,11.3-9.6c0-5.5-4.7-9.6-11.3-9.6h-18.9v19.3h18.9V165.7z
		 M698.8,194.2c7.4,0,12.7-4.7,12.7-11.1s-5.2-11.1-12.7-11.1h-20v22.2H698.8z"/>
	<path class="st1" d="M723.3,191.8l4.2-5.3c5.1,5.1,11.3,8.7,19.7,8.7c9.2,0,14-5.1,14-10.4c0-6.4-5.7-8.9-16.2-11.3
		c-12.1-2.8-19.7-6.5-19.7-17c0-9.6,8.6-17.2,20.1-17.2c8.9,0,15.6,3.5,21.1,8.6l-4.2,5.3c-5-4.8-10.9-7.7-17.2-7.7
		c-7.4,0-12.8,4.9-12.8,10.4c0,6.2,6,8.4,16.2,10.9c11.4,2.7,19.7,6.9,19.7,17.4c0,9.6-7.2,17.3-21.2,17.3
		C737.1,201.3,729.3,197.8,723.3,191.8z"/>
</g>
</svg>
