<?xml version="1.0" encoding="utf-8"?>
<!-- Generator: Adobe Illustrator 24.3.0, SVG Export Plug-In . SVG Version: 6.00 Build 0)  -->
<svg version="1.1" id="Layer_1" xmlns="http://www.w3.org/2000/svg" xmlns:xlink="http://www.w3.org/1999/xlink" x="0px" y="0px"
	 viewBox="0 0 86.6 100" style="enable-background:new 0 0 86.6 100;" xml:space="preserve">
<style type="text/css">
	.st0{fill-rule:evenodd;clip-rule:evenodd;fill:#1D1E43;}
	.st1{opacity:0.3;clip-path:url(#SVGID_2_);}
	.st2{fill-rule:evenodd;clip-rule:evenodd;fill:#8B9DC2;}
	.st3{fill-rule:evenodd;clip-rule:evenodd;fill:#A0A8BE;}
	.st4{fill-rule:evenodd;clip-rule:evenodd;fill:#9FA0CC;}
	.st5{fill-rule:evenodd;clip-rule:evenodd;fill:#B3BEC8;fill-opacity:0.582;}
	.st6{fill-rule:evenodd;clip-rule:evenodd;fill:#81B0D4;}
	.st7{fill-rule:evenodd;clip-rule:evenodd;fill:#C3CCD9;}
	.st8{fill-rule:evenodd;clip-rule:evenodd;fill:#BDCADC;}
	.st9{fill-rule:evenodd;clip-rule:evenodd;fill:#C6D5DE;}
	.st10{opacity:0.3;clip-path:url(#SVGID_4_);}
	.st11{fill:#FFFFFF;}
</style>
<g>
	<polygon class="st0" points="43.3,0 0,25 0,75 43.3,100 86.6,75 86.6,25 	"/>
	<g>
		<g>
			<defs>
				<polygon id="SVGID_1_" points="43.3,0 0,25 0,75 43.3,100 86.6,75 86.6,25 				"/>
			</defs>
			<clipPath id="SVGID_2_">
				<use xlink:href="#SVGID_1_"  style="overflow:visible;"/>
			</clipPath>
			<g id="Page-1" class="st1">
				<g id="stars" transform="translate(-2.000000, 0.000000)">
					<g id="Group" transform="translate(2.000000, 0.000000)">
						<path id="Fill-546" class="st2" d="M-20.9,98.2c0.2-0.2,0.6-0.2,0.8,0s0.2,0.6,0,0.8s-0.6,0.2-0.8,0
							C-21.1,98.8-21.1,98.5-20.9,98.2"/>
						<path id="Fill-548" class="st2" d="M6.5,85.9c0.2-0.2,0.6-0.2,0.8,0s0.2,0.6,0,0.8s-0.6,0.2-0.8,0C6.2,86.5,6.2,86.1,6.5,85.9
							"/>
						<path id="Fill-550" class="st2" d="M5.7,99.4c0.2-0.2,0.6-0.2,0.8,0s0.2,0.6,0,0.8s-0.6,0.2-0.8,0C5.5,100,5.5,99.7,5.7,99.4"
							/>
						<path id="Fill-552" class="st2" d="M15,111.6c0.2-0.2,0.6-0.2,0.8,0s0.2,0.6,0,0.8s-0.6,0.2-0.8,0
							C14.8,112.2,14.8,111.8,15,111.6"/>
						<path id="Fill-554" class="st2" d="M40.1,94.3c0.2-0.2,0.6-0.2,0.8,0s0.2,0.6,0,0.8s-0.6,0.2-0.8,0
							C39.9,94.9,39.9,94.5,40.1,94.3"/>
						<path id="Fill-558" class="st2" d="M50.8,106.2c0.2-0.2,0.6-0.2,0.8,0s0.2,0.6,0,0.8s-0.6,0.2-0.8,0
							C50.6,106.8,50.6,106.4,50.8,106.2"/>
						<path id="Fill-560" class="st2" d="M54.3,73c0.2-0.2,0.6-0.2,0.8,0s0.2,0.6,0,0.8s-0.6,0.2-0.8,0C54.1,73.6,54.1,73.2,54.3,73
							"/>
						<path id="Fill-562" class="st2" d="M43.3,42.2c0.2-0.2,0.6-0.2,0.8,0s0.2,0.6,0,0.8s-0.6,0.2-0.8,0
							C43.1,42.8,43.1,42.4,43.3,42.2"/>
						<path id="Fill-564" class="st2" d="M39,65.2c0.2-0.2,0.6-0.2,0.8,0s0.2,0.6,0,0.8s-0.6,0.2-0.8,0C38.8,65.7,38.8,65.4,39,65.2
							"/>
						<path id="Fill-566" class="st2" d="M-5.9,91.4c0.2-0.2,0.6-0.2,0.8,0s0.2,0.6,0,0.8s-0.6,0.2-0.8,0C-6.2,92-6.2,91.6-5.9,91.4
							"/>
						<path id="Fill-568" class="st2" d="M15.8,4.7c0.2-0.2,0.6-0.2,0.8,0c0.2,0.2,0.2,0.6,0,0.8s-0.6,0.2-0.8,0
							C15.6,5.3,15.6,4.9,15.8,4.7"/>
						<path id="Fill-570" class="st2" d="M26.4-9.6c0.2-0.2,0.6-0.2,0.8,0s0.2,0.6,0,0.8s-0.6,0.2-0.8,0C26.1-9,26.1-9.4,26.4-9.6"
							/>
						<path id="Fill-606" class="st2" d="M-22.4,57.5c0.2-0.2,0.6-0.2,0.8,0s0.2,0.6,0,0.8s-0.6,0.2-0.8,0
							C-22.6,58.1-22.6,57.7-22.4,57.5"/>
						<path id="Fill-610" class="st2" d="M-9.9,47.5c0.2-0.2,0.6-0.2,0.8,0s0.2,0.6,0,0.8s-0.6,0.2-0.8,0S-10.1,47.7-9.9,47.5"/>
						<path id="Fill-612" class="st2" d="M-9.3,56.6c0.2-0.2,0.6-0.2,0.8,0s0.2,0.6,0,0.8s-0.6,0.2-0.8,0
							C-9.5,57.2-9.5,56.9-9.3,56.6"/>
						<path id="Fill-616" class="st2" d="M0.2,47.4c0.2-0.2,0.6-0.2,0.8,0s0.2,0.6,0,0.8s-0.6,0.2-0.8,0C-0.1,48-0.1,47.6,0.2,47.4"
							/>
						<path id="Fill-618" class="st2" d="M-16.9,41.1c0.2-0.2,0.6-0.2,0.8,0c0.2,0.2,0.2,0.6,0,0.8c-0.2,0.2-0.6,0.2-0.8,0
							C-17.2,41.7-17.2,41.3-16.9,41.1"/>
						<path id="Fill-620" class="st2" d="M14,52c0.2-0.2,0.6-0.2,0.8,0s0.2,0.6,0,0.8s-0.6,0.2-0.8,0C13.8,52.5,13.8,52.2,14,52"/>
						<path id="Fill-622" class="st2" d="M23.3,38.9c0.2-0.2,0.6-0.2,0.8,0s0.2,0.6,0,0.8s-0.6,0.2-0.8,0C23,39.5,23,39.1,23.3,38.9
							"/>
						<path id="Fill-626" class="st2" d="M23.9,45.3c0.2-0.2,0.6-0.2,0.8,0s0.2,0.6,0,0.8s-0.6,0.2-0.8,0S23.6,45.6,23.9,45.3"/>
						<path id="Fill-628" class="st2" d="M-14.2,28.4c0.2-0.2,0.6-0.2,0.8,0s0.2,0.6,0,0.8c-0.2,0.2-0.6,0.2-0.8,0
							C-14.5,28.9-14.5,28.6-14.2,28.4"/>
						<path id="Fill-630" class="st2" d="M24.4,2.3c0.2-0.2,0.6-0.2,0.8,0s0.2,0.6,0,0.8s-0.6,0.2-0.8,0C24.1,2.9,24.1,2.5,24.4,2.3
							"/>
						<path id="Fill-632" class="st2" d="M49.7,1.6c0.2-0.2,0.6-0.2,0.8,0s0.2,0.6,0,0.8s-0.6,0.2-0.8,0C49.5,2.1,49.5,1.8,49.7,1.6
							"/>
						<path id="Fill-634" class="st2" d="M21.7-22c0.2-0.2,0.6-0.2,0.8,0s0.2,0.6,0,0.8c-0.2,0.2-0.6,0.2-0.8,0
							C21.5-21.5,21.5-21.8,21.7-22"/>
						<path id="Fill-638" class="st2" d="M-11.4-10.8c0.2-0.2,0.6-0.2,0.8,0s0.2,0.6,0,0.8s-0.6,0.2-0.8,0
							C-11.6-10.3-11.6-10.6-11.4-10.8"/>
						<path id="Fill-640" class="st2" d="M-5.4-2.6c0.2-0.2,0.6-0.2,0.8,0s0.2,0.6,0,0.8s-0.6,0.2-0.8,0C-5.6-2-5.6-2.4-5.4-2.6"/>
						<path id="Fill-658" class="st2" d="M-15.1-22c0.2-0.2,0.6-0.2,0.8,0s0.2,0.6,0,0.8c-0.2,0.2-0.6,0.2-0.8,0S-15.4-21.8-15.1-22
							"/>
						<path id="Fill-660" class="st2" d="M-24.6-24.9c0.2-0.2,0.6-0.2,0.8,0s0.2,0.6,0,0.8c-0.2,0.2-0.6,0.2-0.8,0
							C-24.8-24.3-24.8-24.6-24.6-24.9"/>
						<path id="Fill-717" class="st3" d="M-19.7,11.4c0.2-0.2,0.6-0.2,0.8,0s0.2,0.6,0,0.8s-0.6,0.2-0.8,0
							C-20,11.9-20,11.6-19.7,11.4"/>
						<path id="Fill-745" class="st4" d="M-16.2-7.6c0.1-0.1,0.4-0.1,0.5,0c0.1,0.1,0.1,0.3,0,0.5c-0.1,0.1-0.4,0.1-0.5,0
							C-16.4-7.2-16.4-7.5-16.2-7.6"/>
						<path id="Fill-747" class="st4" d="M47.7,38.2c0.1-0.1,0.3-0.1,0.5,0c0.1,0.1,0.1,0.3,0,0.5c-0.1,0.1-0.3,0.1-0.5,0
							C47.6,38.6,47.6,38.4,47.7,38.2"/>
						<path id="Fill-749" class="st4" d="M42.3,71.3c0.1-0.1,0.3-0.1,0.5,0c0.1,0.1,0.1,0.3,0,0.5c-0.1,0.1-0.3,0.1-0.5,0
							C42.2,71.6,42.2,71.4,42.3,71.3"/>
						<path id="Fill-751" class="st4" d="M31.2,68.8c0.1-0.1,0.4-0.1,0.5,0c0.1,0.1,0.1,0.3,0,0.5c-0.1,0.1-0.4,0.1-0.5,0
							C31.1,69.1,31.1,68.9,31.2,68.8"/>
						<path id="Fill-753" class="st4" d="M40.5,106.9c0.1-0.1,0.3-0.1,0.5,0c0.1,0.1,0.1,0.3,0,0.5c-0.1,0.1-0.3,0.1-0.5,0
							C40.3,107.2,40.3,107,40.5,106.9"/>
						<path id="Fill-782" class="st5" d="M-21.5,109.4c0.1-0.1,0.4-0.1,0.5,0c0.1,0.1,0.1,0.3,0,0.5c-0.1,0.1-0.4,0.1-0.5,0
							C-21.6,109.8-21.6,109.6-21.5,109.4"/>
						<path id="Fill-786" class="st5" d="M3.3,93c0.1-0.1,0.3-0.1,0.5,0c0.1,0.1,0.1,0.3,0,0.5c-0.1,0.1-0.3,0.1-0.5,0
							C3.2,93.4,3.2,93.2,3.3,93"/>
						<path id="Fill-788" class="st5" d="M-16.2,82.8c0.1-0.1,0.4-0.1,0.5,0c0.1,0.1,0.1,0.3,0,0.5c-0.1,0.1-0.4,0.1-0.5,0
							C-16.4,83.2-16.4,83-16.2,82.8"/>
						<path id="Fill-790" class="st5" d="M29.2,89.2c0.1-0.1,0.4-0.1,0.5,0s0.1,0.3,0,0.5c-0.1,0.1-0.4,0.1-0.5,0S29,89.3,29.2,89.2
							"/>
						<path id="Fill-792" class="st5" d="M19.6,91.2c0.1-0.1,0.4-0.1,0.5,0c0.1,0.1,0.1,0.3,0,0.5s-0.4,0.1-0.5,0
							S19.5,91.3,19.6,91.2"/>
						<path id="Fill-856" class="st5" d="M87.8-23.2c0.1-0.1,0.3-0.1,0.5,0c0.1,0.1,0.1,0.4,0,0.5c-0.1,0.1-0.3,0.1-0.5,0
							S87.7-23.1,87.8-23.2"/>
						<path id="Fill-906" class="st5" d="M26.1,34.5c0.1-0.1,0.4-0.1,0.5,0c0.1,0.1,0.1,0.3,0,0.5c-0.1,0.1-0.4,0.1-0.5,0
							C26,34.8,26,34.6,26.1,34.5"/>
						<path id="Fill-908" class="st5" d="M27.5,20.1c0.1-0.1,0.4-0.1,0.5,0c0.1,0.1,0.1,0.4,0,0.5c-0.1,0.1-0.4,0.1-0.5,0
							S27.4,20.2,27.5,20.1"/>
						<path id="Fill-910" class="st5" d="M37-21c0.1-0.1,0.3-0.1,0.5,0s0.1,0.4,0,0.5s-0.3,0.1-0.5,0S36.8-20.9,37-21"/>
						<path id="Fill-932" class="st5" d="M0.9,65.7c0.1-0.1,0.4-0.1,0.5,0c0.1,0.1,0.1,0.3,0,0.5c-0.1,0.1-0.4,0.1-0.5,0
							C0.7,66,0.7,65.8,0.9,65.7"/>
						<path id="Fill-934" class="st5" d="M42.3,57.2c0.1-0.1,0.3-0.1,0.5,0c0.1,0.1,0.1,0.3,0,0.5c-0.1,0.1-0.3,0.1-0.5,0
							C42.2,57.5,42.2,57.3,42.3,57.2"/>
						<path id="Fill-936" class="st5" d="M33.6,55.1c0.1-0.1,0.3-0.1,0.5,0c0.1,0.1,0.1,0.3,0,0.5c-0.1,0.1-0.3,0.1-0.5,0
							C33.4,55.5,33.4,55.2,33.6,55.1"/>
						<path id="Fill-938" class="st5" d="M46.8-13.9c0.1-0.1,0.3-0.1,0.5,0c0.1,0.1,0.1,0.4,0,0.5c-0.1,0.1-0.3,0.1-0.5,0
							C46.7-13.5,46.7-13.8,46.8-13.9"/>
						<path id="Fill-940" class="st5" d="M37.8-9.1c0.1-0.1,0.3-0.1,0.5,0c0.1,0.1,0.1,0.4,0,0.5c-0.1,0.1-0.3,0.1-0.5,0
							C37.6-8.7,37.6-8.9,37.8-9.1"/>
						<path id="Fill-952" class="st6" d="M5.4-23.1c0.3-0.3,0.9-0.3,1.2,0c0.3,0.3,0.3,0.9,0,1.2s-0.9,0.3-1.2,0
							C5.1-22.2,5.1-22.8,5.4-23.1"/>
						<path id="Fill-962" class="st6" d="M-20.6,24c0.3-0.3,0.9-0.3,1.2,0s0.3,0.9,0,1.2s-0.9,0.3-1.2,0S-20.9,24.3-20.6,24"/>
						<path id="Fill-970" class="st6" d="M10.6-9.8c0.3-0.3,0.9-0.3,1.2,0s0.3,0.9,0,1.2s-0.9,0.3-1.2,0S10.2-9.4,10.6-9.8"/>
						<path id="Fill-972" class="st6" d="M38.4,14.5c0.3-0.3,0.9-0.3,1.2,0s0.3,0.9,0,1.2c-0.3,0.3-0.9,0.3-1.2,0
							C38,15.4,38,14.8,38.4,14.5"/>
						<path id="Fill-974" class="st6" d="M37.6,29.1c0.3-0.3,0.9-0.3,1.2,0s0.3,0.9,0,1.2s-0.9,0.3-1.2,0
							C37.3,30,37.3,29.5,37.6,29.1"/>
						<path id="Fill-980" class="st6" d="M9.5,16.6c0.3-0.3,0.9-0.3,1.2,0s0.3,0.9,0,1.2s-0.9,0.3-1.2,0C9.2,17.5,9.2,17,9.5,16.6"
							/>
						<path id="Fill-982" class="st6" d="M14.7,102.4c0.3-0.3,0.9-0.3,1.2,0s0.3,0.9,0,1.2c-0.3,0.3-0.9,0.3-1.2,0
							S14.4,102.8,14.7,102.4"/>
						<path id="Fill-1000" class="st6" d="M-19.1,103.3c0.3-0.3,0.9-0.3,1.2,0s0.3,0.9,0,1.2c-0.3,0.3-0.9,0.3-1.2,0
							C-19.5,104.2-19.5,103.6-19.1,103.3"/>
						<path id="Fill-1004" class="st6" d="M-6.9,77.8c0.3-0.3,0.9-0.3,1.2,0s0.3,0.9,0,1.2c-0.3,0.3-0.9,0.3-1.2,0
							C-7.2,78.7-7.2,78.1-6.9,77.8"/>
						<path id="Fill-1006" class="st6" d="M45.9,89.5c0.3-0.3,0.9-0.3,1.2,0s0.3,0.9,0,1.2c-0.3,0.3-0.9,0.3-1.2,0
							S45.5,89.9,45.9,89.5"/>
						<path id="Fill-1048" class="st7" d="M104.6-27.9c0.1-0.1,0.3-0.1,0.5,0c0.1,0.1,0.1,0.4,0,0.5c-0.1,0.1-0.3,0.1-0.5,0
							C104.5-27.5,104.5-27.7,104.6-27.9"/>
						<path id="Fill-1050" class="st7" d="M102.1-12.4c0.1-0.1,0.3-0.1,0.5,0c0.1,0.1,0.1,0.4,0,0.5c-0.1,0.1-0.3,0.1-0.5,0
							C101.9-12.1,101.9-12.3,102.1-12.4"/>
						<path id="Fill-1052" class="st7" d="M108.8-2.4c0.1-0.1,0.3-0.1,0.5,0c0.1,0.1,0.1,0.3,0,0.5c-0.1,0.1-0.3,0.1-0.5,0
							C108.7-2,108.7-2.3,108.8-2.4"/>
						<path id="Fill-1054" class="st7" d="M94.4-4.7c0.1-0.1,0.3-0.1,0.5,0c0.1,0.1,0.1,0.3,0,0.5c-0.1,0.1-0.3,0.1-0.5,0
							C94.2-4.3,94.2-4.5,94.4-4.7"/>
						<path id="Fill-1056" class="st7" d="M82.4,10.2c0.1-0.1,0.3-0.1,0.5,0c0.1,0.1,0.1,0.4,0,0.5c-0.1,0.1-0.3,0.1-0.5,0
							C82.3,10.6,82.3,10.3,82.4,10.2"/>
						<path id="Fill-1058" class="st7" d="M95,22.9c0.1-0.1,0.3-0.1,0.5,0c0.1,0.1,0.1,0.4,0,0.5c-0.1,0.1-0.3,0.1-0.5,0
							C94.9,23.2,94.9,23,95,22.9"/>
						<path id="Fill-1060" class="st7" d="M79.8,33.4c0.1-0.1,0.3-0.1,0.5,0c0.1,0.1,0.1,0.3,0,0.5c-0.1,0.1-0.3,0.1-0.5,0
							C79.7,33.8,79.7,33.6,79.8,33.4"/>
						<path id="Fill-1062" class="st7" d="M85,56.5c0.1-0.1,0.3-0.1,0.5,0c0.1,0.1,0.1,0.3,0,0.5s-0.3,0.1-0.5,0
							C84.8,56.8,84.8,56.6,85,56.5"/>
						<path id="Fill-1064" class="st7" d="M78.5,73.5c0.1-0.1,0.3-0.1,0.5,0c0.1,0.1,0.1,0.3,0,0.5c-0.1,0.1-0.3,0.1-0.5,0
							C78.4,73.8,78.4,73.6,78.5,73.5"/>
						<path id="Fill-1066" class="st7" d="M102.3,93c0.1-0.1,0.3-0.1,0.5,0c0.1,0.1,0.1,0.3,0,0.5c-0.1,0.1-0.3,0.1-0.5,0
							C102.1,93.4,102.1,93.2,102.3,93"/>
						<path id="Fill-1068" class="st7" d="M77.4,97.7c0.1-0.1,0.3-0.1,0.5,0c0.1,0.1,0.1,0.3,0,0.5c-0.1,0.1-0.3,0.1-0.5,0
							C77.3,98,77.3,97.8,77.4,97.7"/>
						<path id="Fill-1070" class="st7" d="M88.2,104.4c0.1-0.1,0.3-0.1,0.5,0c0.1,0.1,0.1,0.3,0,0.5c-0.1,0.1-0.3,0.1-0.5,0
							C88,104.7,88,104.5,88.2,104.4"/>
						<polygon id="Fill-1246" class="st8" points="32.8,111.6 32.4,112.4 31.9,111.7 31.2,111.2 32,110.8 32.4,110 32.8,110.8 
							33.6,111.2 						"/>
						<polygon id="Fill-1248" class="st8" points="48.1,11.2 47.7,12 47.3,11.2 46.5,10.8 47.3,10.4 47.7,9.6 48.2,10.4 48.9,10.8 
													"/>
						<polygon id="Fill-1252" class="st8" points="43,-1.1 42.5,-0.3 42.1,-1.1 41.3,-1.5 42.1,-2 42.5,-2.7 43,-2 43.7,-1.5 						
							"/>
						<polygon id="Fill-1258" class="st8" points="52.9,-3.8 52.4,-3 52,-3.8 51.2,-4.2 52,-4.6 52.5,-5.4 52.9,-4.6 53.7,-4.2 
													"/>
						<polygon id="Fill-1278" class="st8" points="9.2,28.7 8.8,29.5 8.4,28.7 7.6,28.3 8.4,27.9 8.8,27.1 9.2,27.8 10,28.3 						
							"/>
						<polygon id="Fill-1280" class="st8" points="11.8,34.4 11.4,35.1 10.9,34.4 10.2,33.9 10.9,33.5 11.4,32.7 11.8,33.5 
							12.6,33.9 						"/>
						<polygon id="Fill-1282" class="st8" points="21.3,41.8 20.9,42.6 20.4,41.8 19.7,41.4 20.5,41 20.9,40.2 21.3,40.9 22.1,41.4 
													"/>
						<polygon id="Fill-1284" class="st8" points="27.3,52.8 26.9,53.6 26.4,52.8 25.6,52.4 26.4,52 26.9,51.2 27.3,52 28.1,52.4 
													"/>
						<polygon id="Fill-1288" class="st8" points="16.1,64.2 15.6,65 15.2,64.3 14.4,63.8 15.2,63.4 15.6,62.6 16.1,63.4 16.8,63.8 
													"/>
						<polygon id="Fill-1290" class="st8" points="5.3,62.5 4.9,63.3 4.5,62.6 3.7,62.1 4.5,61.7 4.9,60.9 5.3,61.7 6.1,62.1 						
							"/>
						<polygon id="Fill-1292" class="st8" points="3.4,70.4 3,71.2 2.5,70.4 1.8,70 2.6,69.6 3,68.8 3.4,69.5 4.2,70 						"/>
						<polygon id="Fill-1294" class="st8" points="20.1,74.8 19.7,75.5 19.3,74.8 18.5,74.3 19.3,73.9 19.7,73.1 20.1,73.9 
							20.9,74.3 						"/>
						<polygon id="Fill-1298" class="st8" points="27.4,74.3 26.9,75.1 26.5,74.3 25.7,73.9 26.5,73.5 27,72.7 27.4,73.5 28.1,73.9 
													"/>
						<polygon id="Fill-1302" class="st8" points="1.3,10.5 0.8,11.3 0.4,10.5 -0.4,10.1 0.4,9.6 0.9,8.8 1.3,9.6 2,10 						"/>
						<polygon id="Fill-1304" class="st8" points="-2,8.4 -2.4,9.1 -2.8,8.4 -3.6,7.9 -2.8,7.5 -2.4,6.7 -2,7.5 -1.2,7.9 						"/>
						<polygon id="Fill-1310" class="st8" points="-10.3,13.5 -10.7,14.3 -11.2,13.5 -11.9,13.1 -11.2,12.7 -10.7,11.9 -10.3,12.7 
							-9.5,13.1 						"/>
						<polygon id="Fill-1482" class="st8" points="110.4,1.9 110,2.7 109.6,2 108.8,1.5 109.6,1.1 110,0.3 110.4,1.1 111.2,1.5 
													"/>
						<polygon id="Fill-1484" class="st8" points="102.7,-3.2 102.3,-2.4 101.9,-3.2 101.1,-3.6 101.9,-4 102.3,-4.8 102.7,-4 
							103.5,-3.6 						"/>
						<polygon id="Fill-1486" class="st8" points="103.9,-15.4 103.5,-14.6 103.1,-15.4 102.3,-15.8 103.1,-16.2 103.5,-17 
							103.9,-16.2 104.7,-15.8 						"/>
						<polygon id="Fill-1488" class="st8" points="113.8,-16.6 113.4,-15.8 113,-16.6 112.2,-17 113,-17.5 113.4,-18.2 113.8,-17.5 
							114.6,-17 						"/>
						<polygon id="Fill-1492" class="st8" points="70.9,-14.7 70.4,-13.9 70,-14.7 69.2,-15.1 70,-15.5 70.5,-16.3 70.9,-15.6 
							71.7,-15.1 						"/>
						<polygon id="Fill-1494" class="st8" points="64.7,-18.8 64.2,-18 63.8,-18.8 63,-19.2 63.8,-19.6 64.2,-20.4 64.7,-19.6 
							65.4,-19.2 						"/>
						<polygon id="Fill-1496" class="st8" points="61.6,-11.8 61.2,-11 60.8,-11.8 60,-12.2 60.8,-12.6 61.2,-13.4 61.6,-12.6 
							62.4,-12.2 						"/>
						<polygon id="Fill-1498" class="st8" points="70.9,15.8 70.4,16.5 70,15.8 69.2,15.3 70,14.9 70.5,14.1 70.9,14.9 71.7,15.3 
													"/>
						<polygon id="Fill-1500" class="st8" points="69.3,25.9 68.9,26.7 68.5,25.9 67.7,25.5 68.5,25 68.9,24.3 69.3,25 70.1,25.5 
													"/>
						<polygon id="Fill-1502" class="st8" points="64.1,36.3 63.6,37.1 63.2,36.3 62.4,35.9 63.2,35.4 63.6,34.7 64.1,35.4 
							64.8,35.8 						"/>
						<polygon id="Fill-1504" class="st8" points="72.8,36.3 72.3,37.1 71.9,36.3 71.1,35.9 71.9,35.4 72.4,34.7 72.8,35.4 
							73.6,35.8 						"/>
						<polygon id="Fill-1506" class="st8" points="79.2,30.1 78.8,30.9 78.3,30.2 77.6,29.7 78.3,29.3 78.8,28.5 79.2,29.3 80,29.7 
													"/>
						<polygon id="Fill-1508" class="st8" points="100.3,36.3 99.8,37.1 99.4,36.3 98.6,35.9 99.4,35.4 99.8,34.7 100.3,35.4 
							101.1,35.8 						"/>
						<polygon id="Fill-1512" class="st8" points="112.6,38.9 112.2,39.7 111.8,38.9 111,38.5 111.8,38.1 112.2,37.3 112.6,38.1 
							113.4,38.5 						"/>
						<polygon id="Fill-1540" class="st8" points="84.4,65.9 84,66.7 83.6,65.9 82.8,65.4 83.6,65 84,64.2 84.4,65 85.2,65.4 						
							"/>
						<polygon id="Fill-1544" class="st8" points="95.3,73.2 94.9,74 94.5,73.2 93.7,72.8 94.5,72.3 94.9,71.5 95.3,72.3 96.1,72.7 
													"/>
						<polygon id="Fill-1548" class="st8" points="89.7,82 89.3,82.8 88.9,82 88.1,81.6 88.9,81.2 89.3,80.4 89.7,81.2 90.5,81.6 
													"/>
						<polygon id="Fill-1550" class="st8" points="82.8,80 82.3,80.8 81.9,80 81.1,79.6 81.9,79.2 82.3,78.4 82.8,79.2 83.6,79.6 
													"/>
						<polygon id="Fill-1572" class="st8" points="106.9,107.7 106.4,108.4 106,107.7 105.2,107.2 106,106.8 106.5,106 106.9,106.8 
							107.7,107.2 						"/>
						<polygon id="Fill-1574" class="st8" points="105.7,100.3 105.2,101.1 104.8,100.3 104,99.9 104.8,99.4 105.2,98.6 105.7,99.4 
							106.4,99.8 						"/>
						<path id="Fill-1672" class="st9" d="M109,11.9c0.2-0.2,0.6-0.2,0.8,0s0.2,0.6,0,0.8c-0.2,0.2-0.6,0.2-0.8,0
							C108.8,12.5,108.8,12.1,109,11.9"/>
						<path id="Fill-1674" class="st9" d="M86.5-9.4c0.2-0.2,0.6-0.2,0.8,0s0.2,0.6,0,0.8c-0.2,0.2-0.6,0.2-0.8,0
							C86.2-8.8,86.2-9.1,86.5-9.4"/>
						<path id="Fill-1676" class="st9" d="M72.1-1.6c0.2-0.2,0.6-0.2,0.8,0s0.2,0.6,0,0.8c-0.2,0.2-0.6,0.2-0.8,0S71.9-1.3,72.1-1.6
							"/>
						<path id="Fill-1678" class="st9" d="M95.4,6.3c0.2-0.2,0.6-0.2,0.8,0s0.2,0.6,0,0.8c-0.2,0.2-0.6,0.2-0.8,0
							C95.2,6.9,95.2,6.5,95.4,6.3"/>
						<path id="Fill-1680" class="st9" d="M84.5,22.6c0.2-0.2,0.6-0.2,0.8,0s0.2,0.6,0,0.8c-0.2,0.2-0.6,0.2-0.8,0
							C84.2,23.2,84.2,22.8,84.5,22.6"/>
						<path id="Fill-1682" class="st9" d="M49.7,23.7c0.2-0.2,0.6-0.2,0.8,0s0.2,0.6,0,0.8c-0.2,0.2-0.6,0.2-0.8,0
							S49.5,23.9,49.7,23.7"/>
						<path id="Fill-1684" class="st9" d="M54.3,54.7c0.2-0.2,0.6-0.2,0.8,0s0.2,0.6,0,0.8c-0.2,0.2-0.6,0.2-0.8,0
							C54.1,55.3,54.1,54.9,54.3,54.7"/>
						<path id="Fill-1686" class="st9" d="M68.5,50.8c0.2-0.2,0.6-0.2,0.8,0s0.2,0.6,0,0.8c-0.2,0.2-0.6,0.2-0.8,0
							C68.3,51.4,68.3,51,68.5,50.8"/>
						<path id="Fill-1688" class="st9" d="M82.6,43.5c0.2-0.2,0.6-0.2,0.8,0s0.2,0.6,0,0.8c-0.2,0.2-0.6,0.2-0.8,0
							C82.4,44,82.4,43.7,82.6,43.5"/>
						<path id="Fill-1690" class="st9" d="M104.1,49.5c0.2-0.2,0.6-0.2,0.8,0s0.2,0.6,0,0.8c-0.2,0.2-0.6,0.2-0.8,0
							S103.9,49.7,104.1,49.5"/>
						<path id="Fill-1720" class="st9" d="M113.6,73.9c0.2-0.2,0.6-0.2,0.8,0s0.2,0.6,0,0.8c-0.2,0.2-0.6,0.2-0.8,0
							C113.4,74.4,113.4,74.1,113.6,73.9"/>
						<path id="Fill-1722" class="st9" d="M113,84.4c0.2-0.2,0.6-0.2,0.8,0s0.2,0.6,0,0.8c-0.2,0.2-0.6,0.2-0.8,0
							S112.8,84.6,113,84.4"/>
						<path id="Fill-1724" class="st9" d="M67.9,92c0.2-0.2,0.6-0.2,0.8,0s0.2,0.6,0,0.8c-0.2,0.2-0.6,0.2-0.8,0
							C67.7,92.6,67.7,92.2,67.9,92"/>
						<path id="Fill-1726" class="st9" d="M63.3,83c0.2-0.2,0.6-0.2,0.8,0c0.2,0.2,0.2,0.6,0,0.8c-0.2,0.2-0.6,0.2-0.8,0
							C63,83.6,63,83.2,63.3,83"/>
						<path id="Fill-1728" class="st9" d="M57.2,92.5c0.2-0.2,0.6-0.2,0.8,0s0.2,0.6,0,0.8c-0.2,0.2-0.6,0.2-0.8,0
							C57,93.1,57,92.8,57.2,92.5"/>
						<path id="Fill-1730" class="st9" d="M68.5,109.3c0.2-0.2,0.6-0.2,0.8,0s0.2,0.6,0,0.8c-0.2,0.2-0.6,0.2-0.8,0
							C68.3,109.8,68.3,109.5,68.5,109.3"/>
						<path id="Fill-1736" class="st9" d="M90.1,111.7c0.2-0.2,0.6-0.2,0.8,0s0.2,0.6,0,0.8c-0.2,0.2-0.6,0.2-0.8,0
							S89.9,111.9,90.1,111.7"/>
						<path id="Fill-1794" class="st9" d="M80.3,109.9c0.3-0.3,0.9-0.3,1.3,0s0.3,0.9,0,1.3s-0.9,0.3-1.3,0S79.9,110.3,80.3,109.9"
							/>
						<path id="Fill-1796" class="st9" d="M64.8,73.4c0.3-0.3,0.9-0.3,1.3,0s0.3,0.9,0,1.3s-0.9,0.3-1.3,0
							C64.5,74.3,64.5,73.8,64.8,73.4"/>
						<path id="Fill-1798" class="st9" d="M76.2,53.7c0.3-0.3,0.9-0.3,1.3,0s0.3,0.9,0,1.3c-0.3,0.3-0.9,0.3-1.3,0
							S75.8,54,76.2,53.7"/>
						<path id="Fill-1800" class="st9" d="M107,62.2c0.3-0.3,0.9-0.3,1.3,0s0.3,0.9,0,1.3c-0.3,0.3-0.9,0.3-1.3,0
							C106.7,63.1,106.7,62.5,107,62.2"/>
						<path id="Fill-1814" class="st9" d="M83.4-5.4c0.3-0.3,0.9-0.3,1.3,0s0.3,0.9,0,1.3s-0.9,0.3-1.3,0C83-4.5,83-5.1,83.4-5.4"/>
						<path id="Fill-1824" class="st9" d="M75.3-27.9c0.3-0.4,0.9-0.4,1.3,0s0.3,0.9,0,1.3s-0.9,0.4-1.3,0S74.9-27.6,75.3-27.9"/>
					</g>
				</g>
			</g>
		</g>
		<g>
			<defs>
				<polygon id="SVGID_3_" points="43.3,0 0,25 0,75 43.3,100 86.6,75 86.6,25 				"/>
			</defs>
			<clipPath id="SVGID_4_">
				<use xlink:href="#SVGID_3_"  style="overflow:visible;"/>
			</clipPath>
			<g id="Page-1_1_" class="st10">
				<g id="stars_1_" transform="translate(-2.000000, 0.000000)">
					<g id="Group_1_" transform="translate(2.000000, 0.000000)">
						<path id="Fill-546_1_" class="st2" d="M-8,90.2c0.2-0.2,0.4-0.2,0.6,0s0.2,0.4,0,0.6C-7.5,91-7.8,91-8,90.8
							C-8.1,90.7-8.1,90.4-8,90.2"/>
						<path id="Fill-550_1_" class="st2" d="M11.3,91.1c0.2-0.2,0.4-0.2,0.6,0s0.2,0.4,0,0.6c-0.2,0.2-0.4,0.2-0.6,0
							C11.1,91.5,11.1,91.3,11.3,91.1"/>
						<path id="Fill-552_1_" class="st2" d="M18,99.9c0.2-0.2,0.4-0.2,0.6,0s0.2,0.4,0,0.6c-0.2,0.2-0.4,0.2-0.6,0
							S17.8,100.1,18,99.9"/>
						<path id="Fill-554_1_" class="st2" d="M36.2,87.4c0.2-0.2,0.4-0.2,0.6,0c0.2,0.2,0.2,0.4,0,0.6c-0.2,0.2-0.4,0.2-0.6,0
							C36,87.8,36,87.6,36.2,87.4"/>
						<path id="Fill-558_1_" class="st2" d="M43.9,96c0.2-0.2,0.4-0.2,0.6,0c0.2,0.2,0.2,0.4,0,0.6c-0.2,0.2-0.4,0.2-0.6,0
							C43.8,96.4,43.8,96.2,43.9,96"/>
						<path id="Fill-560_1_" class="st2" d="M46.4,72c0.2-0.2,0.4-0.2,0.6,0c0.2,0.2,0.2,0.4,0,0.6c-0.2,0.2-0.4,0.2-0.6,0
							C46.3,72.4,46.3,72.1,46.4,72"/>
						<path id="Fill-562_1_" class="st2" d="M38.5,49.7c0.2-0.2,0.4-0.2,0.6,0c0.2,0.2,0.2,0.4,0,0.6c-0.2,0.2-0.4,0.2-0.6,0
							C38.3,50.1,38.3,49.8,38.5,49.7"/>
						<path id="Fill-564_1_" class="st2" d="M35.4,66.3c0.2-0.2,0.4-0.2,0.6,0c0.2,0.2,0.2,0.4,0,0.6c-0.2,0.2-0.4,0.2-0.6,0
							C35.2,66.7,35.2,66.5,35.4,66.3"/>
						<path id="Fill-566_1_" class="st2" d="M2.8,85.3c0.2-0.2,0.4-0.2,0.6,0c0.2,0.2,0.2,0.4,0,0.6C3.2,86,3,86,2.8,85.8
							C2.7,85.7,2.7,85.4,2.8,85.3"/>
						<path id="Fill-568_1_" class="st2" d="M18.6,22.5c0.2-0.2,0.4-0.2,0.6,0s0.2,0.4,0,0.6c-0.2,0.2-0.4,0.2-0.6,0
							S18.4,22.7,18.6,22.5"/>
						<path id="Fill-570_1_" class="st2" d="M26.2,12.2c0.2-0.2,0.4-0.2,0.6,0s0.2,0.4,0,0.6c-0.2,0.2-0.4,0.2-0.6,0
							C26,12.6,26,12.4,26.2,12.2"/>
						<path id="Fill-606_1_" class="st2" d="M-9.1,60.8c0.2-0.2,0.4-0.2,0.6,0s0.2,0.4,0,0.6c-0.2,0.2-0.4,0.2-0.6,0
							S-9.3,60.9-9.1,60.8"/>
						<path id="Fill-610_1_" class="st2" d="M-0.1,53.5c0.2-0.2,0.4-0.2,0.6,0s0.2,0.4,0,0.6c-0.2,0.2-0.4,0.2-0.6,0
							S-0.2,53.7-0.1,53.5"/>
						<path id="Fill-612_1_" class="st2" d="M0.4,60.1C0.6,60,0.8,60,1,60.1s0.2,0.4,0,0.6c-0.2,0.2-0.4,0.2-0.6,0
							S0.2,60.3,0.4,60.1"/>
						<path id="Fill-616_1_" class="st2" d="M7.2,53.4c0.2-0.2,0.4-0.2,0.6,0s0.2,0.4,0,0.6c-0.2,0.2-0.4,0.2-0.6,0
							C7.1,53.8,7.1,53.6,7.2,53.4"/>
						<path id="Fill-618_1_" class="st2" d="M-5.1,48.9c0.2-0.2,0.4-0.2,0.6,0s0.2,0.4,0,0.6c-0.2,0.2-0.4,0.2-0.6,0
							S-5.3,49-5.1,48.9"/>
						<path id="Fill-620_1_" class="st2" d="M17.3,56.8c0.2-0.2,0.4-0.2,0.6,0s0.2,0.4,0,0.6c-0.2,0.2-0.4,0.2-0.6,0
							C17.1,57.2,17.1,56.9,17.3,56.8"/>
						<path id="Fill-628_1_" class="st2" d="M-3.2,39.7c0.2-0.2,0.4-0.2,0.6,0c0.2,0.2,0.2,0.4,0,0.6c-0.2,0.2-0.4,0.2-0.6,0
							C-3.3,40.1-3.3,39.8-3.2,39.7"/>
						<path id="Fill-630_1_" class="st2" d="M24.8,20.8c0.2-0.2,0.4-0.2,0.6,0s0.2,0.4,0,0.6c-0.2,0.2-0.4,0.2-0.6,0
							S24.6,21,24.8,20.8"/>
						<path id="Fill-632_1_" class="st2" d="M43.1,20.2c0.2-0.2,0.4-0.2,0.6,0c0.2,0.2,0.2,0.4,0,0.6c-0.2,0.2-0.4,0.2-0.6,0
							C43,20.7,43,20.4,43.1,20.2"/>
						<path id="Fill-634_1_" class="st2" d="M22.9,3.2C23,3,23.3,3,23.4,3.2s0.2,0.4,0,0.6c-0.2,0.2-0.4,0.2-0.6,0
							S22.7,3.3,22.9,3.2"/>
						<path id="Fill-638_1_" class="st2" d="M-1.1,11.3c0.2-0.2,0.4-0.2,0.6,0s0.2,0.4,0,0.6c-0.2,0.2-0.4,0.2-0.6,0
							C-1.2,11.7-1.2,11.4-1.1,11.3"/>
						<path id="Fill-640_1_" class="st2" d="M3.2,17.2c0.2-0.2,0.4-0.2,0.6,0c0.2,0.2,0.2,0.4,0,0.6c-0.2,0.2-0.4,0.2-0.6,0
							C3.1,17.6,3.1,17.4,3.2,17.2"/>
						<path id="Fill-658_1_" class="st2" d="M-3.8,3.2C-3.7,3-3.4,3-3.3,3.2c0.2,0.2,0.2,0.4,0,0.6c-0.2,0.2-0.4,0.2-0.6,0
							C-4,3.6-4,3.4-3.8,3.2"/>
						<path id="Fill-660_1_" class="st2" d="M-10.7,1.1c0.2-0.2,0.4-0.2,0.6,0s0.2,0.4,0,0.6c-0.2,0.2-0.4,0.2-0.6,0
							S-10.8,1.3-10.7,1.1"/>
						<path id="Fill-717_1_" class="st3" d="M-7.2,27.4c0.2-0.2,0.4-0.2,0.6,0s0.2,0.4,0,0.6c-0.2,0.2-0.4,0.2-0.6,0
							C-7.3,27.8-7.3,27.5-7.2,27.4"/>
						<path id="Fill-745_1_" class="st4" d="M-4.6,13.6c0.1-0.1,0.3-0.1,0.3,0c0.1,0.1,0.1,0.3,0,0.4c-0.1,0.1-0.3,0.1-0.3,0
							C-4.7,13.9-4.7,13.7-4.6,13.6"/>
						<path id="Fill-747_1_" class="st4" d="M41.7,46.8c0.1-0.1,0.3-0.1,0.3,0c0.1,0.1,0.1,0.3,0,0.3c-0.1,0.1-0.3,0.1-0.3,0
							C41.6,47.1,41.6,46.9,41.7,46.8"/>
						<path id="Fill-749_1_" class="st4" d="M37.8,70.7c0.1-0.1,0.3-0.1,0.3,0c0.1,0.1,0.1,0.3,0,0.3s-0.3,0.1-0.3,0
							C37.7,71,37.7,70.8,37.8,70.7"/>
						<path id="Fill-751_1_" class="st4" d="M29.8,68.9c0.1-0.1,0.3-0.1,0.4,0c0.1,0.1,0.1,0.3,0,0.3c-0.1,0.1-0.3,0.1-0.4,0
							C29.6,69.2,29.6,69,29.8,68.9"/>
						<path id="Fill-753_1_" class="st4" d="M36.4,96.5c0.1-0.1,0.3-0.1,0.3,0c0.1,0.1,0.1,0.3,0,0.3c-0.1,0.1-0.3,0.1-0.3,0
							C36.3,96.7,36.3,96.6,36.4,96.5"/>
						<path id="Fill-782_1_" class="st5" d="M-8.4,98.3c0.1-0.1,0.3-0.1,0.4,0c0.1,0.1,0.1,0.3,0,0.3c-0.1,0.1-0.3,0.1-0.4,0
							S-8.5,98.4-8.4,98.3"/>
						<path id="Fill-786_1_" class="st5" d="M9.6,86.5c0.1-0.1,0.3-0.1,0.4,0c0.1,0.1,0.1,0.3,0,0.3c-0.1,0.1-0.3,0.1-0.4,0
							C9.5,86.7,9.5,86.6,9.6,86.5"/>
						<path id="Fill-788_1_" class="st5" d="M-4.6,79.1c0.1-0.1,0.3-0.1,0.3,0s0.1,0.3,0,0.3c-0.1,0.1-0.3,0.1-0.3,0
							C-4.7,79.3-4.7,79.2-4.6,79.1"/>
						<path id="Fill-790_1_" class="st5" d="M28.3,83.7c0.1-0.1,0.3-0.1,0.4,0c0.1,0.1,0.1,0.3,0,0.3c-0.1,0.1-0.3,0.1-0.4,0
							C28.2,83.9,28.2,83.8,28.3,83.7"/>
						<path id="Fill-792_1_" class="st5" d="M21.4,85.1c0.1-0.1,0.3-0.1,0.4,0c0.1,0.1,0.1,0.3,0,0.3s-0.3,0.1-0.4,0
							S21.2,85.2,21.4,85.1"/>
						<path id="Fill-856_1_" class="st5" d="M70.7,2.3c0.1-0.1,0.3-0.1,0.3,0c0.1,0.1,0.1,0.3,0,0.3c-0.1,0.1-0.3,0.1-0.3,0
							C70.6,2.5,70.6,2.4,70.7,2.3"/>
						<path id="Fill-906_1_" class="st5" d="M26,44.1c0.1-0.1,0.3-0.1,0.4,0c0.1,0.1,0.1,0.3,0,0.3c-0.1,0.1-0.3,0.1-0.4,0
							C25.9,44.3,25.9,44.2,26,44.1"/>
						<path id="Fill-908_1_" class="st5" d="M27.1,33.7c0.1-0.1,0.3-0.1,0.4,0c0.1,0.1,0.1,0.3,0,0.3c-0.1,0.1-0.3,0.1-0.4,0
							C27,33.9,27,33.8,27.1,33.7"/>
						<path id="Fill-910_1_" class="st5" d="M33.9,3.9c0.1-0.1,0.3-0.1,0.3,0c0.1,0.1,0.1,0.3,0,0.4c-0.1,0.1-0.3,0.1-0.3,0
							C33.8,4.2,33.8,4,33.9,3.9"/>
						<path id="Fill-932_1_" class="st5" d="M7.8,66.7c0.1-0.1,0.3-0.1,0.4,0c0.1,0.1,0.1,0.3,0,0.3c-0.1,0.1-0.3,0.1-0.3,0
							C7.7,66.9,7.7,66.8,7.8,66.7"/>
						<path id="Fill-934_1_" class="st5" d="M37.8,60.5c0.1-0.1,0.3-0.1,0.3,0c0.1,0.1,0.1,0.3,0,0.3s-0.3,0.1-0.3,0
							C37.7,60.8,37.7,60.6,37.8,60.5"/>
						<path id="Fill-936_1_" class="st5" d="M31.4,59c0.1-0.1,0.3-0.1,0.4,0c0.1,0.1,0.1,0.3,0,0.3c-0.1,0.1-0.3,0.1-0.4,0
							S31.3,59.1,31.4,59"/>
						<path id="Fill-938_1_" class="st5" d="M41,9.1c0.1-0.1,0.3-0.1,0.3,0c0.1,0.1,0.1,0.3,0,0.4c-0.1,0.1-0.3,0.1-0.3,0
							C40.9,9.3,40.9,9.2,41,9.1"/>
						<path id="Fill-940_1_" class="st5" d="M34.5,12.6c0.1-0.1,0.3-0.1,0.3,0c0.1,0.1,0.1,0.3,0,0.4c-0.1,0.1-0.3,0.1-0.3,0
							C34.4,12.8,34.4,12.6,34.5,12.6"/>
						<path id="Fill-952_1_" class="st6" d="M11,2.4c0.2-0.2,0.6-0.2,0.9,0s0.2,0.6,0,0.9s-0.6,0.2-0.9,0S10.8,2.7,11,2.4"/>
						<path id="Fill-962_1_" class="st6" d="M-7.8,36.5c0.2-0.2,0.6-0.2,0.9,0c0.2,0.2,0.2,0.6,0,0.9s-0.6,0.2-0.9,0
							C-8,37.1-8,36.8-7.8,36.5"/>
						<path id="Fill-970_1_" class="st6" d="M14.8,12c0.2-0.2,0.6-0.2,0.9,0s0.2,0.6,0,0.9s-0.6,0.2-0.9,0
							C14.5,12.7,14.5,12.3,14.8,12"/>
						<path id="Fill-972_1_" class="st6" d="M34.9,29.6c0.2-0.2,0.6-0.2,0.9,0s0.2,0.6,0,0.9s-0.6,0.2-0.9,0
							C34.7,30.3,34.7,29.9,34.9,29.6"/>
						<path id="Fill-974_1_" class="st6" d="M34.3,40.2c0.2-0.2,0.6-0.2,0.9,0s0.2,0.6,0,0.9s-0.6,0.2-0.9,0
							C34.1,40.8,34.1,40.5,34.3,40.2"/>
						<path id="Fill-980_1_" class="st6" d="M14,31.1c0.2-0.2,0.6-0.2,0.9,0s0.2,0.6,0,0.9c-0.2,0.2-0.6,0.2-0.9,0
							S13.8,31.4,14,31.1"/>
						<path id="Fill-982_1_" class="st6" d="M17.8,93.3c0.2-0.2,0.6-0.2,0.9,0s0.2,0.6,0,0.9s-0.6,0.2-0.9,0S17.5,93.5,17.8,93.3"/>
						<path id="Fill-1000_1_" class="st6" d="M-6.7,93.9c0.2-0.2,0.6-0.2,0.9,0c0.2,0.2,0.2,0.6,0,0.9s-0.6,0.2-0.9,0
							S-7,94.1-6.7,93.9"/>
						<path id="Fill-1006_1_" class="st6" d="M40.3,83.9c0.2-0.2,0.6-0.2,0.9,0s0.2,0.6,0,0.9s-0.6,0.2-0.9,0
							C40.1,84.6,40.1,84.2,40.3,83.9"/>
						<path id="Fill-1048_1_" class="st7" d="M82.9-1c0.1-0.1,0.3-0.1,0.3,0c0.1,0.1,0.1,0.3,0,0.4c-0.1,0.1-0.3,0.1-0.3,0
							S82.8-0.9,82.9-1"/>
						<path id="Fill-1050_1_" class="st7" d="M81,10.1c0.1-0.1,0.3-0.1,0.3,0c0.1,0.1,0.1,0.3,0,0.4c-0.1,0.1-0.3,0.1-0.3,0
							C80.9,10.4,80.9,10.2,81,10.1"/>
						<path id="Fill-1052_1_" class="st7" d="M85.9,17.4c0.1-0.1,0.3-0.1,0.3,0c0.1,0.1,0.1,0.3,0,0.4c-0.1,0.1-0.3,0.1-0.3,0
							C85.8,17.6,85.8,17.5,85.9,17.4"/>
						<path id="Fill-1054_1_" class="st7" d="M75.4,15.8c0.1-0.1,0.3-0.1,0.3,0c0.1,0.1,0.1,0.3,0,0.4c-0.1,0.1-0.3,0.1-0.3,0
							C75.3,16,75.3,15.9,75.4,15.8"/>
						<path id="Fill-1056_1_" class="st7" d="M66.8,26.5c0.1-0.1,0.3-0.1,0.3,0c0.1,0.1,0.1,0.3,0,0.4c-0.1,0.1-0.3,0.1-0.3,0
							C66.7,26.8,66.7,26.6,66.8,26.5"/>
						<path id="Fill-1058_1_" class="st7" d="M75.9,35.7c0.1-0.1,0.3-0.1,0.3,0c0.1,0.1,0.1,0.3,0,0.3c-0.1,0.1-0.3,0.1-0.3,0
							C75.8,35.9,75.8,35.8,75.9,35.7"/>
						<path id="Fill-1060_1_" class="st7" d="M64.9,43.3c0.1-0.1,0.3-0.1,0.3,0c0.1,0.1,0.1,0.3,0,0.3c-0.1,0.1-0.3,0.1-0.3,0
							C64.8,43.6,64.8,43.4,64.9,43.3"/>
						<path id="Fill-1062_1_" class="st7" d="M68.6,60c0.1-0.1,0.3-0.1,0.3,0c0.1,0.1,0.1,0.3,0,0.3c-0.1,0.1-0.3,0.1-0.3,0
							C68.6,60.3,68.6,60.1,68.6,60"/>
						<path id="Fill-1064_1_" class="st7" d="M64,72.3c0.1-0.1,0.3-0.1,0.4,0c0.1,0.1,0.1,0.3,0,0.3c-0.1,0.1-0.3,0.1-0.3,0
							C63.9,72.6,63.9,72.4,64,72.3"/>
						<path id="Fill-1066_1_" class="st7" d="M81.2,86.5c0.1-0.1,0.3-0.1,0.3,0c0.1,0.1,0.1,0.3,0,0.3c-0.1,0.1-0.3,0.1-0.3,0
							C81.1,86.7,81.1,86.6,81.2,86.5"/>
						<path id="Fill-1068_1_" class="st7" d="M63.2,89.8c0.1-0.1,0.3-0.1,0.3,0c0.1,0.1,0.1,0.3,0,0.3c-0.1,0.1-0.3,0.1-0.3,0
							C63.1,90.1,63.1,89.9,63.2,89.8"/>
						<path id="Fill-1070_1_" class="st7" d="M71,94.7c0.1-0.1,0.3-0.1,0.3,0c0.1,0.1,0.1,0.3,0,0.3c-0.1,0.1-0.3,0.1-0.3,0
							C70.9,94.9,70.9,94.8,71,94.7"/>
						<polygon id="Fill-1246_1_" class="st8" points="30.9,99.9 30.6,100.5 30.3,99.9 29.7,99.7 30.3,99.3 30.6,98.8 30.9,99.3 
							31.5,99.6 						"/>
						<polygon id="Fill-1248_1_" class="st8" points="42,27.3 41.7,27.8 41.4,27.3 40.8,27 41.4,26.6 41.7,26.1 42,26.6 42.5,26.9 
													"/>
						<polygon id="Fill-1252_1_" class="st8" points="38.2,18.3 37.9,18.9 37.6,18.3 37,18 37.6,17.7 37.9,17.1 38.2,17.7 38.8,18 
													"/>
						<polygon id="Fill-1258_1_" class="st8" points="45.4,16.4 45.1,17 44.8,16.4 44.2,16.1 44.8,15.8 45.1,15.2 45.4,15.8 
							46,16.1 						"/>
						<polygon id="Fill-1278_1_" class="st8" points="13.8,39.9 13.5,40.5 13.2,39.9 12.6,39.6 13.2,39.3 13.5,38.7 13.8,39.3 
							14.4,39.6 						"/>
						<polygon id="Fill-1280_1_" class="st8" points="15.7,44 15.4,44.6 15.1,44 14.5,43.7 15.1,43.4 15.4,42.8 15.7,43.4 
							16.2,43.7 						"/>
						<polygon id="Fill-1284_1_" class="st8" points="26.9,57.4 26.6,58 26.3,57.4 25.7,57.1 26.3,56.8 26.6,56.2 26.9,56.8 
							27.5,57.1 						"/>
						<polygon id="Fill-1288_1_" class="st8" points="18.8,65.6 18.4,66.2 18.1,65.7 17.6,65.3 18.1,65 18.5,64.4 18.8,65 
							19.3,65.3 						"/>
						<polygon id="Fill-1290_1_" class="st8" points="11,64.4 10.7,65 10.4,64.4 9.8,64.1 10.4,63.8 10.7,63.2 11,63.8 11.6,64.1 
													"/>
						<polygon id="Fill-1292_1_" class="st8" points="9.6,70.1 9.3,70.7 9,70.1 8.4,69.8 9,69.5 9.3,68.9 9.6,69.5 10.2,69.8 						
							"/>
						<polygon id="Fill-1294_1_" class="st8" points="21.7,73.2 21.4,73.8 21.1,73.2 20.5,72.9 21.1,72.6 21.4,72.1 21.7,72.6 
							22.3,72.9 						"/>
						<polygon id="Fill-1302_1_" class="st8" points="8.1,26.7 7.7,27.3 7.4,26.7 6.9,26.4 7.4,26.1 7.8,25.5 8.1,26.1 8.6,26.4 
													"/>
						<polygon id="Fill-1304_1_" class="st8" points="5.7,25.2 5.4,25.8 5.1,25.2 4.5,24.9 5.1,24.6 5.4,24 5.7,24.6 6.3,24.9 
													"/>
						<polygon id="Fill-1310_1_" class="st8" points="-0.3,28.9 -0.6,29.5 -0.9,28.9 -1.5,28.6 -0.9,28.3 -0.6,27.7 -0.3,28.3 
							0.2,28.6 						"/>
						<polygon id="Fill-1482_1_" class="st8" points="87.1,20.5 86.8,21.1 86.4,20.5 85.9,20.2 86.4,19.9 86.8,19.3 87.1,19.9 
							87.6,20.2 						"/>
						<polygon id="Fill-1484_1_" class="st8" points="81.5,16.8 81.2,17.4 80.9,16.9 80.3,16.5 80.9,16.2 81.2,15.7 81.5,16.2 
							82.1,16.5 						"/>
						<polygon id="Fill-1486_1_" class="st8" points="82.4,8 82.1,8.6 81.8,8 81.2,7.7 81.8,7.4 82.1,6.8 82.4,7.4 82.9,7.7 						
							"/>
						<polygon id="Fill-1488_1_" class="st8" points="89.5,7.1 89.2,7.7 88.9,7.1 88.3,6.8 88.9,6.5 89.2,5.9 89.5,6.5 90.1,6.8 
													"/>
						<polygon id="Fill-1492_1_" class="st8" points="58.4,8.5 58.1,9.1 57.8,8.5 57.2,8.2 57.8,7.9 58.1,7.3 58.4,7.9 59,8.2 
													"/>
						<polygon id="Fill-1496_1_" class="st8" points="51.7,10.6 51.4,11.2 51.1,10.6 50.5,10.3 51.1,10 51.4,9.4 51.8,10 52.3,10.3 
													"/>
						<polygon id="Fill-1498_1_" class="st8" points="58.4,30.5 58.1,31.1 57.8,30.5 57.2,30.2 57.8,29.9 58.1,29.4 58.4,29.9 
							59,30.2 						"/>
						<polygon id="Fill-1500_1_" class="st8" points="57.3,37.9 57,38.5 56.7,37.9 56.1,37.6 56.7,37.3 57,36.7 57.3,37.2 
							57.9,37.6 						"/>
						<polygon id="Fill-1502_1_" class="st8" points="53.5,45.4 53.2,46 52.9,45.4 52.3,45.1 52.9,44.8 53.2,44.2 53.5,44.8 
							54.1,45.1 						"/>
						<polygon id="Fill-1504_1_" class="st8" points="59.8,45.4 59.5,46 59.2,45.4 58.6,45.1 59.2,44.8 59.5,44.2 59.8,44.8 
							60.4,45.1 						"/>
						<polygon id="Fill-1506_1_" class="st8" points="64.5,41 64.2,41.5 63.8,41 63.3,40.7 63.8,40.3 64.2,39.8 64.5,40.3 65,40.6 
													"/>
						<polygon id="Fill-1508_1_" class="st8" points="79.7,45.4 79.4,46 79.1,45.4 78.5,45.1 79.1,44.8 79.4,44.2 79.7,44.8 
							80.3,45.1 						"/>
						<polygon id="Fill-1512_1_" class="st8" points="88.7,47.3 88.3,47.9 88,47.3 87.5,47 88,46.7 88.3,46.1 88.7,46.7 89.2,47 
													"/>
						<polygon id="Fill-1540_1_" class="st8" points="68.2,66.8 67.9,67.4 67.6,66.8 67.1,66.5 67.6,66.2 67.9,65.6 68.3,66.2 
							68.8,66.5 						"/>
						<polygon id="Fill-1544_1_" class="st8" points="76.2,72.1 75.8,72.7 75.5,72.1 75,71.8 75.5,71.5 75.8,70.9 76.2,71.5 
							76.7,71.8 						"/>
						<polygon id="Fill-1548_1_" class="st8" points="72.1,78.5 71.8,79.1 71.5,78.5 70.9,78.2 71.5,77.9 71.8,77.3 72.1,77.9 
							72.7,78.2 						"/>
						<polygon id="Fill-1550_1_" class="st8" points="67.1,77.1 66.7,77.6 66.4,77.1 65.9,76.8 66.4,76.4 66.8,75.9 67.1,76.4 
							67.6,76.7 						"/>
						<polygon id="Fill-1572_1_" class="st8" points="84.5,97.1 84.2,97.6 83.9,97.1 83.3,96.8 83.9,96.4 84.2,95.9 84.5,96.4 
							85.1,96.7 						"/>
						<polygon id="Fill-1574_1_" class="st8" points="83.6,91.7 83.3,92.3 83,91.7 82.4,91.4 83,91.1 83.3,90.5 83.6,91.1 
							84.2,91.4 						"/>
						<path id="Fill-1674_1_" class="st9" d="M69.7,12.4c0.2-0.2,0.4-0.2,0.6,0s0.2,0.4,0,0.6s-0.4,0.2-0.6,0S69.6,12.5,69.7,12.4"
							/>
						<path id="Fill-1676_1_" class="st9" d="M59.3,18c0.2-0.2,0.4-0.2,0.6,0c0.2,0.2,0.2,0.4,0,0.6s-0.4,0.2-0.6,0
							C59.2,18.4,59.2,18.1,59.3,18"/>
						<path id="Fill-1678_1_" class="st9" d="M76.2,23.7c0.2-0.2,0.4-0.2,0.6,0c0.2,0.2,0.2,0.4,0,0.6c-0.2,0.2-0.4,0.2-0.6,0
							C76,24.1,76,23.9,76.2,23.7"/>
						<path id="Fill-1680_1_" class="st9" d="M68.3,35.5c0.2-0.2,0.4-0.2,0.6,0s0.2,0.4,0,0.6c-0.2,0.2-0.4,0.2-0.6,0
							C68.1,35.9,68.1,35.7,68.3,35.5"/>
						<path id="Fill-1682_1_" class="st9" d="M43.1,36.3c0.2-0.2,0.4-0.2,0.6,0c0.2,0.2,0.2,0.4,0,0.6c-0.2,0.2-0.4,0.2-0.6,0
							C43,36.7,43,36.5,43.1,36.3"/>
						<path id="Fill-1684_1_" class="st9" d="M46.4,58.7c0.2-0.2,0.4-0.2,0.6,0c0.2,0.2,0.2,0.4,0,0.6c-0.2,0.2-0.4,0.2-0.6,0
							C46.3,59.2,46.3,58.9,46.4,58.7"/>
						<path id="Fill-1686_1_" class="st9" d="M56.7,55.9c0.2-0.2,0.4-0.2,0.6,0c0.2,0.2,0.2,0.4,0,0.6c-0.2,0.2-0.4,0.2-0.6,0
							C56.5,56.3,56.5,56.1,56.7,55.9"/>
						<path id="Fill-1688_1_" class="st9" d="M66.9,50.6c0.2-0.2,0.4-0.2,0.6,0c0.2,0.2,0.2,0.4,0,0.6c-0.2,0.2-0.4,0.2-0.6,0
							C66.8,51,66.8,50.7,66.9,50.6"/>
						<path id="Fill-1690_1_" class="st9" d="M82.5,54.9c0.2-0.2,0.4-0.2,0.6,0c0.2,0.2,0.2,0.4,0,0.6c-0.2,0.2-0.4,0.2-0.6,0
							C82.3,55.4,82.3,55.1,82.5,54.9"/>
						<path id="Fill-1720_1_" class="st9" d="M89.4,72.6c0.2-0.2,0.4-0.2,0.6,0s0.2,0.4,0,0.6s-0.4,0.2-0.6,0
							C89.2,73,89.2,72.8,89.4,72.6"/>
						<path id="Fill-1722_1_" class="st9" d="M88.9,80.2c0.2-0.2,0.4-0.2,0.6,0c0.2,0.2,0.2,0.4,0,0.6s-0.4,0.2-0.6,0
							C88.8,80.7,88.8,80.4,88.9,80.2"/>
						<path id="Fill-1724_1_" class="st9" d="M56.3,85.7c0.2-0.2,0.4-0.2,0.6,0c0.2,0.2,0.2,0.4,0,0.6s-0.4,0.2-0.6,0
							C56.1,86.2,56.1,85.9,56.3,85.7"/>
						<path id="Fill-1726_1_" class="st9" d="M52.9,79.2c0.2-0.2,0.4-0.2,0.6,0c0.2,0.2,0.2,0.4,0,0.6s-0.4,0.2-0.6,0
							C52.8,79.7,52.8,79.4,52.9,79.2"/>
						<path id="Fill-1728_1_" class="st9" d="M48.5,86.1c0.2-0.2,0.4-0.2,0.6,0c0.2,0.2,0.2,0.4,0,0.6s-0.4,0.2-0.6,0
							C48.4,86.5,48.4,86.3,48.5,86.1"/>
						<path id="Fill-1730_1_" class="st9" d="M56.7,98.2c0.2-0.2,0.4-0.2,0.6,0c0.2,0.2,0.2,0.4,0,0.6c-0.2,0.2-0.4,0.2-0.6,0
							C56.5,98.7,56.5,98.4,56.7,98.2"/>
						<path id="Fill-1736_1_" class="st9" d="M72.4,100c0.2-0.2,0.4-0.2,0.6,0s0.2,0.4,0,0.6s-0.4,0.2-0.6,0
							C72.2,100.4,72.2,100.1,72.4,100"/>
						<path id="Fill-1794_1_" class="st9" d="M65.2,98.7c0.2-0.2,0.7-0.2,0.9,0c0.2,0.2,0.2,0.7,0,0.9c-0.2,0.2-0.7,0.2-0.9,0
							C65,99.4,65,99,65.2,98.7"/>
						<path id="Fill-1798_1_" class="st9" d="M62.3,58c0.2-0.2,0.7-0.2,0.9,0c0.2,0.2,0.2,0.7,0,0.9c-0.2,0.2-0.7,0.2-0.9,0
							C62,58.7,62,58.2,62.3,58"/>
						<path id="Fill-1814_1_" class="st9" d="M67.5,15.2c0.2-0.2,0.7-0.2,0.9,0c0.2,0.2,0.2,0.7,0,0.9c-0.2,0.2-0.7,0.2-0.9,0
							C67.2,15.9,67.2,15.4,67.5,15.2"/>
						<path id="Fill-1824_1_" class="st9" d="M61.6-1.1c0.2-0.2,0.7-0.2,0.9,0c0.2,0.2,0.2,0.7,0,0.9c-0.2,0.2-0.7,0.2-0.9,0
							S61.4-0.8,61.6-1.1"/>
						<polygon id="Fill-1496_3_" class="st8" points="44.2,3.5 43.9,4.1 43.6,3.5 43.1,3.2 43.6,2.9 44,2.3 44.2,2.9 44.8,3.2 
													"/>
					</g>
				</g>
			</g>
		</g>
	</g>
</g>
<path class="st11" d="M70.7,63.7c-0.3,0-0.5,0.2-0.5,0.5c0,0.3-0.1,0.5-0.3,0.7c-0.2,0.2-0.4,0.3-0.7,0.3c-0.3,0-0.5-0.1-0.7-0.3
	c-0.2-0.2-0.3-0.4-0.3-0.7c0-0.3,0.1-0.5,0.3-0.7c0.2-0.2,0.4-0.3,0.7-0.3c0.3,0,0.5-0.2,0.5-0.5V62c0.4-0.2,0.8-0.6,0.8-1.2
	c0-0.6-0.4-1.1-1-1.2V29.7c0.1-0.3,0.2-0.6,0.2-0.9c0-1.3-1.1-2.4-2.4-2.4c-0.7,0-1.3,0.3-1.7,0.7l-44.7,14c0,0,0,0,0,0
	c-0.8-0.2-1.6,0.3-1.8,1.2c-0.1,0.3,0,0.6,0,0.8v13.8h-1.2c-1.3,0-2.4,1.1-2.4,2.4c0,1.3,1.1,2.4,2.4,2.4h5.9v-1.3h1.6v0.5v1.6h6
	v0.3v0.7v0.3h-7.3c-2.7,0-4.9,2.2-4.9,4.9c0,2.7,2.2,4.9,4.9,4.9h26.8c2.7,0,4.9-2.2,4.9-4.9c0-2.7-2.2-4.9-4.9-4.9h-2.1v-0.3v-0.7
	v-0.3h2.4v-1.6l-2.4-4.2L66,34.9l0,0c0,0,0.1-0.1,0.1-0.1l0.9-3.5c0.1,0,0.1,0,0.2,0c0.7,0,1.3-0.3,1.8-0.7v29.1
	c-0.6,0.1-1,0.6-1,1.2c0,0.5,0.3,1,0.8,1.2v0.4c-0.3,0.1-0.6,0.3-0.9,0.5c-0.4,0.4-0.6,0.8-0.6,1.4c0,0.5,0.2,1,0.6,1.4
	c0.4,0.4,0.8,0.6,1.4,0.6c0.5,0,1-0.2,1.4-0.6c0.4-0.4,0.6-0.8,0.6-1.4C71.2,63.9,70.9,63.7,70.7,63.7z M50.9,71.2
	c-1.4,0-2.5-1.1-2.5-2.5c0-1.4,1.1-2.5,2.5-2.5c1.4,0,2.5,1.1,2.5,2.5C53.4,70.1,52.3,71.2,50.9,71.2z M23.9,66.2
	c1.4,0,2.5,1.1,2.5,2.5c0,1.4-1.1,2.5-2.5,2.5c-1.4,0-2.5-1.1-2.5-2.5C21.4,67.3,22.5,66.2,23.9,66.2z M65,27.7
	c-0.2,0.3-0.2,0.7-0.2,1.1c0,0.2,0,0.5,0.1,0.7l-3.2,1.7c-0.1,0-0.1,0.1-0.1,0.1L45.7,51.4l-0.4-0.8c-0.5-0.9-1.4-1.4-2.5-1.4h-6.7
	c-1.3,0-2.3,1-2.3,2.3v3h-1.1L24.1,44c0,0-0.1-0.1-0.1-0.1l-2-1c0.1-0.5-0.1-1.1-0.5-1.4L65,27.7z M45.6,54l1,1.8l0,0l-3,3.8h-2H41
	l0.6-0.8l3.4-4.3l0.5-0.6l0,0l0,0l0,0L45.6,54z M28.8,51.2l-0.4,2.9l-2.5-3.1L28.8,51.2z M25.5,50.3l0.4-2.9l2.5,3.1L25.5,50.3z
	 M45,52.9l-0.8,1l-2.6,3.3l-1.9,2.4h-4.5v-2.1l2.4-3l3.1-3.9h2.1c0.6,0,1,0.3,1.3,0.7l0.7,1.2L45,52.9z M29.2,54.4l0.3-2.6l2.2,2.6
	H29.2z M21.6,43.5l1.9,1l1.2,1.5l-3.1-0.2l-0.5-1.9C21.3,43.8,21.5,43.7,21.6,43.5z M25.2,46.8l-0.4,2.9l-2.5-3.1L25.2,46.8z
	 M23.8,58.1v-1.3h-4.3V43.7c0.2,0.1,0.4,0.2,0.6,0.3c0.1,0,0.2,0,0.3,0l0.6,2.2c0,0.1,0,0.1,0.1,0.2l6.6,8c-1.3,0.2-2.3,1.3-2.3,2.7
	v1H23.8z M48.4,56L47,53.7l3.4-0.3L48.4,56z M46.6,53l-0.5-0.9l3.9-4.9l0.8,5.5L46.6,53z M51.5,52.1l-0.8-5.5l5.5-0.5L51.5,52.1z
	 M51.1,45.8l4.7-6l0.8,5.5L51.1,45.8z M57.3,44.7l-0.8-5.5l5.5-0.5L57.3,44.7z M56.9,38.4l4.7-6l0.8,5.5L56.9,38.4z M65.4,34.5
	l-2.3,2.9l-0.9-5.6l3-1.6c0.3,0.4,0.6,0.7,1.1,0.9L65.4,34.5z"/>
</svg>
