<svg enable-background="new 0 0 200.4 66.5" viewBox="0 0 200.4 66.5" xmlns="http://www.w3.org/2000/svg"><g fill="#ed1c24"><path d="m17.8 21h5.3v.2c-1.1 0-1 .3-1 1.6v11.6c0 1.5.2 1.8 1.2 1.8v.2h-6.7v-.2c1 0 1.1-.4 1.1-1.8v-12.8l-5.7 15h-.2l-7-13.2v7.2c0 2.8.8 5.6 3.4 5.6v.2h-6.9v-.2c2.3 0 3.3-2.7 3.3-5.6v-7.5c-.9-1.5-1.6-1.9-2.2-1.9v-.2h6.2l5.4 10.1z"/><path d="m37.8 21v.2c-.9 0-1.4 0-1.4 2v10.8c0 2.1.5 2.3 1.4 2.3v.2h-7.2v-.2c.9 0 1.4-.2 1.4-2.3v-10.9c0-1.9-.5-2-1.4-2v-.1z"/><path d="m59.3 31.1.2 4.4c-.6.4-2.8 1-5.1 1-4.7 0-8.9-3-8.9-7.9 0-5 4.2-7.9 8.9-7.9 2.8 0 4.6.6 5.1 1l-.2 4.4h-.2c-.6-4.4-3.1-5.1-4.7-5.1-2.4 0-3.4 1.7-3.4 7.7s1.1 7.7 3.5 7.7c1.5 0 4-.9 4.7-5.3z"/><path d="m83.4 36.2v.2h-4.4c-1.6 0-2-1-2.6-5.1-.3-2.2-2.9-2.1-2.9-2.1h-1v4.6c0 2.1.1 2.3 1 2.3v.2h-6.5v-.2c.9 0 1.1 0 1.1-2.3v-10.7c0-1.4-.2-2-1.1-2v-.1h6.2c4.4 0 8.3.5 8.3 4.2 0 3.3-3 4-5.1 4 2.5 0 3.8.5 4.9 4.5.4 1.6 1.6 2.5 2.1 2.5zm-7-11c0-4.2-.6-4-3.1-4h-.7v7.9h.7c2.8 0 3.1 0 3.1-3.9z"/><path d="m106.1 28.8c0 4.4-3.2 7.8-8 7.8s-8-3.4-8-7.8c0-4.3 3.2-8 8-8s8 3.7 8 8zm-5.3 0c0-6-.1-7.8-2.7-7.8s-2.7 1.8-2.7 7.8.1 7.6 2.7 7.6 2.7-1.6 2.7-7.6z"/><path d="m136.6 21v.2c-.9 0-2.2.7-3.8 4.5l-3.8 10.7h-.8c-2-4.8-3.4-7.8-4.2-9.8l-3.5 9.8h-.8c-5.5-12.9-5.8-13.5-5.8-13.5-.7-1.8-1.1-1.7-1.6-1.8v-.1h6.8v.2c-1.4 0-.3 2.5-.3 2.5l3.3 7.5 1.8-4.9c-1.3-3.1-1.5-3.4-1.5-3.4-.7-1.8-1.1-1.7-1.6-1.8v-.1h6.8v.2c-1.4 0-.3 2.5-.3 2.5l3.3 7.5 2-5.5c.5-1.6.1-4.5-2.2-4.5v-.2z"/><path d="m149.3 21h.1c5.5 12.7 5.9 13.4 5.9 13.4.8 1.8 1.5 1.8 2 1.8v.2h-7.7v-.2c1.8 0 .4-2.6.4-2.6l-.7-1.5h-4.3c-.4 1 0 4.1 2.6 4.1v.2h-6.3v-.2c.7 0 1.8-.2 3.5-4.1zm-2.2 6-2 4.9h4.1z"/><path d="m178.9 21v.2c-.9 0-2.3.7-4.1 4.5l-4.3 10.7h-.6c-5.9-12.9-6.2-13.5-6.2-13.5-.8-1.8-1.1-1.7-1.7-1.8v-.1h7.3v.2c-1.5 0-.3 2.5-.3 2.5l3.4 7.6 2.3-5.6c.7-1.6.3-4.5-2.4-4.5v-.2z"/><path d="m198.8 32.1v4.3h-12.8v-.2c.9 0 1.3-1.3 1.3-2.8v-9.4c0-1.4-.3-2.8-1.3-2.8v-.2h12.5v4.5h-.2c0-4.3-6-4.3-6-4.3h-.8v7.3h1.8s2.3.1 2.6-2.6h.2v5.4h-.2c-.2-2.6-2.6-2.6-2.6-2.6h-1.8v7.5h.8s6.3.2 6.3-4.1z"/><path d="m54.1 44.8h1.5v6.1h-1.5v-2.5h-2.3v2.5h-1.5v-6.1h1.5v2.4h2.3z"/><path d="m65.9 50.9-.3-1h-2.2l-.3 1h-1.6l2.1-6.1h1.8l2.1 6.1zm-2.2-2.1h1.4l-.7-2.2z"/><path d="m73.3 50.9v-6.1h1.5v6.1z"/><path d="m82.7 48.6v2.4h-1.5v-6.1h2.4c.7 0 1.3.2 1.6.5.4.4.6.8.6 1.3 0 .4-.1.7-.3 1s-.6.6-1 .7l1.5 2.5h-1.7l-1.4-2.4h-.2zm0-2.6v1.5h.9c.2 0 .4-.1.5-.2s.2-.3.2-.5-.1-.4-.2-.5c-.1-.3-.3-.3-.5-.3z"/><path d="m101.8 45.9c-.2 0-.3 0-.5.1-.1.1-.2.2-.2.4s.1.3.2.4.3.2.4.3c.2.1.4.1.6.2s.4.1.6.2l.6.3c.2.1.3.3.4.5s.2.5.2.8c0 .5-.2 1-.6 1.3-.4.4-1 .6-1.7.6s-1.2-.2-1.7-.5c-.4-.3-.6-.8-.6-1.4h1.6c0 .5.3.7.7.7.2 0 .4-.1.5-.2s.2-.3.2-.4c0-.2-.1-.3-.2-.4s-.3-.2-.4-.3c-.2-.1-.4-.1-.6-.2s-.4-.1-.6-.2-.4-.2-.6-.3-.3-.3-.4-.5-.2-.5-.2-.8c0-.6.2-1 .6-1.4.4-.3 1-.5 1.6-.5.7 0 1.2.1 1.6.4s.6.8.6 1.4h-1.6c0-.2-.1-.4-.2-.5.1.1-.1 0-.3 0z"/><path d="m114.3 50.9-.3-1h-2.2l-.3 1h-1.6l2.1-6.1h1.8l2.1 6.1zm-2.1-2.1h1.4l-.7-2.2z"/><path d="m121.7 44.8h1.5v5h1.8v1.1h-3.3z"/><path d="m131.5 50.1c-.6-.6-.9-1.3-.9-2.2s.3-1.6.9-2.2 1.3-.9 2.2-.9 1.6.3 2.2.9.9 1.3.9 2.2-.3 1.6-.9 2.2-1.3.9-2.2.9c-.8 0-1.5-.3-2.2-.9zm3.4-1c.3-.3.4-.7.4-1.3 0-.5-.1-1-.4-1.3s-.7-.5-1.2-.5-.9.2-1.2.5-.4.7-.4 1.3c0 .5.1 1 .4 1.3s.7.5 1.2.5.9-.1 1.2-.5z"/><path d="m146.9 44.8h1.5v6.1h-1.5l-2.5-3.8v3.8h-1.5v-6.1h1.5l2.5 3.8z"/></g></svg>