<!-- Generator: Adobe Illustrator 22.1.0, SVG Export Plug-In . SVG Version: 6.00 Build 0)  -->
<svg version="1.1" id="Layer_1" xmlns="http://www.w3.org/2000/svg" xmlns:xlink="http://www.w3.org/1999/xlink" x="0px" y="0px"
	 viewBox="0 0 200.4 66.5" style="enable-background:new 0 0 200.4 66.5;" xml:space="preserve">
<style type="text/css">
	.st0{fill:#377DFF;}
</style>
<g id="XMLID_1_">
	<g id="XMLID_21_">
		<g id="XMLID_38_">
			<path id="XMLID_39_" class="st0 fill-primary" d="M17.8,21h5.3v0.2c-1.1,0-1,0.3-1,1.6v11.6c0,1.5,0.2,1.8,1.2,1.8v0.2h-6.7v-0.2
				c1,0,1.1-0.4,1.1-1.8V21.6l-5.7,15h-0.2l-7-13.2v7.2c0,2.8,0.8,5.6,3.4,5.6v0.2H1.3v-0.2c2.3,0,3.3-2.7,3.3-5.6v-7.5
				c-0.9-1.5-1.6-1.9-2.2-1.9V21h6.2L14,31.1L17.8,21z"/>
		</g>
		<g id="XMLID_36_">
			<path id="XMLID_37_" class="st0 fill-primary" d="M37.8,21v0.2c-0.9,0-1.4,0-1.4,2V34c0,2.1,0.5,2.3,1.4,2.3v0.2h-7.2v-0.2
				c0.9,0,1.4-0.2,1.4-2.3V23.1c0-1.9-0.5-2-1.4-2V21H37.8z"/>
		</g>
		<g id="XMLID_34_">
			<path id="XMLID_35_" class="st0 fill-primary" d="M59.3,31.1l0.2,4.4c-0.6,0.4-2.8,1-5.1,1c-4.7,0-8.9-3-8.9-7.9c0-5,4.2-7.9,8.9-7.9
				c2.8,0,4.6,0.6,5.1,1l-0.2,4.4h-0.2C58.5,21.7,56,21,54.4,21C52,21,51,22.7,51,28.7s1.1,7.7,3.5,7.7C56,36.4,58.5,35.5,59.3,31.1
				C59.2,31.1,59.3,31.1,59.3,31.1z"/>
		</g>
		<g id="XMLID_32_">
			<path id="XMLID_33_" class="st0 fill-primary" d="M83.4,36.2v0.2H79c-1.6,0-2-1-2.6-5.1c-0.3-2.2-2.9-2.1-2.9-2.1h-1v4.6c0,2.1,0.1,2.3,1,2.3
				v0.2H67v-0.2c0.9,0,1.1,0,1.1-2.3V23.1c0-1.4-0.2-2-1.1-2V21h6.2c4.4,0,8.3,0.5,8.3,4.2c0,3.3-3,4-5.1,4c2.5,0,3.8,0.5,4.9,4.5
				C81.7,35.3,82.9,36.2,83.4,36.2z M76.4,25.2c0-4.2-0.6-4-3.1-4h-0.7v7.9h0.7C76.1,29.1,76.4,29.1,76.4,25.2z"/>
		</g>
		<g id="XMLID_30_">
			<path id="XMLID_31_" class="st0 fill-primary" d="M106.1,28.8c0,4.4-3.2,7.8-8,7.8s-8-3.4-8-7.8c0-4.3,3.2-8,8-8S106.1,24.5,106.1,28.8z
				 M100.8,28.8c0-6-0.1-7.8-2.7-7.8s-2.7,1.8-2.7,7.8s0.1,7.6,2.7,7.6C100.7,36.4,100.8,34.8,100.8,28.8z"/>
		</g>
		<g id="XMLID_28_">
			<path id="XMLID_29_" class="st0 fill-primary" d="M136.6,21v0.2c-0.9,0-2.2,0.7-3.8,4.5L129,36.4h-0.8c-2-4.8-3.4-7.8-4.2-9.8l-3.5,9.8h-0.8
				c-5.5-12.9-5.8-13.5-5.8-13.5c-0.7-1.8-1.1-1.7-1.6-1.8V21h6.8v0.2c-1.4,0-0.3,2.5-0.3,2.5l3.3,7.5l1.8-4.9
				c-1.3-3.1-1.5-3.4-1.5-3.4c-0.7-1.8-1.1-1.7-1.6-1.8V21h6.8v0.2c-1.4,0-0.3,2.5-0.3,2.5l3.3,7.5l2-5.5c0.5-1.6,0.1-4.5-2.2-4.5
				V21H136.6z"/>
		</g>
		<g id="XMLID_26_">
			<path id="XMLID_27_" class="st0 fill-primary" d="M149.3,21h0.1c5.5,12.7,5.9,13.4,5.9,13.4c0.8,1.8,1.5,1.8,2,1.8v0.2h-7.7v-0.2
				c1.8,0,0.4-2.6,0.4-2.6l-0.7-1.5H145c-0.4,1,0,4.1,2.6,4.1v0.2h-6.3v-0.2c0.7,0,1.8-0.2,3.5-4.1L149.3,21z M147.1,27l-2,4.9h4.1
				L147.1,27z"/>
		</g>
		<g id="XMLID_24_">
			<path id="XMLID_25_" class="st0 fill-primary" d="M178.9,21v0.2c-0.9,0-2.3,0.7-4.1,4.5l-4.3,10.7h-0.6c-5.9-12.9-6.2-13.5-6.2-13.5
				c-0.8-1.8-1.1-1.7-1.7-1.8V21h7.3v0.2c-1.5,0-0.3,2.5-0.3,2.5l3.4,7.6l2.3-5.6c0.7-1.6,0.3-4.5-2.4-4.5V21H178.9z"/>
		</g>
		<g id="XMLID_22_">
			<path id="XMLID_23_" class="st0 fill-primary" d="M198.8,32.1v4.3H186v-0.2c0.9,0,1.3-1.3,1.3-2.8V24c0-1.4-0.3-2.8-1.3-2.8V21h12.5v4.5h-0.2
				c0-4.3-6-4.3-6-4.3h-0.8v7.3h1.8c0,0,2.3,0.1,2.6-2.6h0.2v5.4h-0.2c-0.2-2.6-2.6-2.6-2.6-2.6h-1.8v7.5h0.8c0,0,6.3,0.2,6.3-4.1
				H198.8z"/>
		</g>
	</g>
	<g id="XMLID_2_">
		<g id="XMLID_19_">
			<path id="XMLID_20_" class="st0 fill-primary" d="M54.1,44.8h1.5v6.1h-1.5v-2.5h-2.3v2.5h-1.5v-6.1h1.5v2.4h2.3V44.8z"/>
		</g>
		<g id="XMLID_17_">
			<path id="XMLID_18_" class="st0 fill-primary" d="M65.9,50.9l-0.3-1h-2.2l-0.3,1h-1.6l2.1-6.1h1.8l2.1,6.1H65.9z M63.7,48.8h1.4l-0.7-2.2
				L63.7,48.8z"/>
		</g>
		<g id="XMLID_15_">
			<path id="XMLID_16_" class="st0 fill-primary" d="M73.3,50.9v-6.1h1.5v6.1H73.3z"/>
		</g>
		<g id="XMLID_13_">
			<path id="XMLID_14_" class="st0 fill-primary" d="M82.7,48.6V51h-1.5v-6.1h2.4c0.7,0,1.3,0.2,1.6,0.5c0.4,0.4,0.6,0.8,0.6,1.3
				c0,0.4-0.1,0.7-0.3,1c-0.2,0.3-0.6,0.6-1,0.7l1.5,2.5h-1.7l-1.4-2.4L82.7,48.6L82.7,48.6z M82.7,46v1.5h0.9
				c0.2,0,0.4-0.1,0.5-0.2c0.1-0.1,0.2-0.3,0.2-0.5s-0.1-0.4-0.2-0.5C84,46,83.8,46,83.6,46H82.7z"/>
		</g>
		<g id="XMLID_11_">
			<path id="XMLID_12_" class="st0 fill-primary" d="M101.8,45.9c-0.2,0-0.3,0-0.5,0.1c-0.1,0.1-0.2,0.2-0.2,0.4s0.1,0.3,0.2,0.4
				c0.1,0.1,0.3,0.2,0.4,0.3c0.2,0.1,0.4,0.1,0.6,0.2c0.2,0.1,0.4,0.1,0.6,0.2c0.2,0.1,0.4,0.2,0.6,0.3s0.3,0.3,0.4,0.5
				s0.2,0.5,0.2,0.8c0,0.5-0.2,1-0.6,1.3c-0.4,0.4-1,0.6-1.7,0.6s-1.2-0.2-1.7-0.5c-0.4-0.3-0.6-0.8-0.6-1.4h1.6
				c0,0.5,0.3,0.7,0.7,0.7c0.2,0,0.4-0.1,0.5-0.2c0.1-0.1,0.2-0.3,0.2-0.4c0-0.2-0.1-0.3-0.2-0.4c-0.1-0.1-0.3-0.2-0.4-0.3
				c-0.2-0.1-0.4-0.1-0.6-0.2c-0.2-0.1-0.4-0.1-0.6-0.2c-0.2-0.1-0.4-0.2-0.6-0.3s-0.3-0.3-0.4-0.5s-0.2-0.5-0.2-0.8
				c0-0.6,0.2-1,0.6-1.4c0.4-0.3,1-0.5,1.6-0.5c0.7,0,1.2,0.1,1.6,0.4c0.4,0.3,0.6,0.8,0.6,1.4h-1.6c0-0.2-0.1-0.4-0.2-0.5
				C102.2,46,102,45.9,101.8,45.9z"/>
		</g>
		<g id="XMLID_9_">
			<path id="XMLID_10_" class="st0 fill-primary" d="M114.3,50.9l-0.3-1h-2.2l-0.3,1h-1.6l2.1-6.1h1.8l2.1,6.1H114.3z M112.2,48.8h1.4l-0.7-2.2
				L112.2,48.8z"/>
		</g>
		<g id="XMLID_7_">
			<path id="XMLID_8_" class="st0 fill-primary" d="M121.7,44.8h1.5v5h1.8v1.1h-3.3V44.8z"/>
		</g>
		<g id="XMLID_5_">
			<path id="XMLID_6_" class="st0 fill-primary" d="M131.5,50.1c-0.6-0.6-0.9-1.3-0.9-2.2s0.3-1.6,0.9-2.2c0.6-0.6,1.3-0.9,2.2-0.9
				s1.6,0.3,2.2,0.9c0.6,0.6,0.9,1.3,0.9,2.2s-0.3,1.6-0.9,2.2c-0.6,0.6-1.3,0.9-2.2,0.9C132.9,51,132.2,50.7,131.5,50.1z
				 M134.9,49.1c0.3-0.3,0.4-0.7,0.4-1.3c0-0.5-0.1-1-0.4-1.3c-0.3-0.3-0.7-0.5-1.2-0.5s-0.9,0.2-1.2,0.5s-0.4,0.7-0.4,1.3
				c0,0.5,0.1,1,0.4,1.3c0.3,0.3,0.7,0.5,1.2,0.5S134.6,49.5,134.9,49.1z"/>
		</g>
		<g id="XMLID_3_">
			<path id="XMLID_4_" class="st0 fill-primary" d="M146.9,44.8h1.5v6.1h-1.5l-2.5-3.8v3.8h-1.5v-6.1h1.5l2.5,3.8V44.8z"/>
		</g>
	</g>
</g>
</svg>
