<!-- Generator: Adobe Illustrator 22.1.0, SVG Export Plug-In . SVG Version: 6.00 Build 0)  -->
<svg version="1.1" id="Layer_1" xmlns="http://www.w3.org/2000/svg" xmlns:xlink="http://www.w3.org/1999/xlink" x="0px" y="0px"
	 viewBox="0 0 200.4 66.5" style="enable-background:new 0 0 200.4 66.5;" xml:space="preserve">
<style type="text/css">
	.st0{fill:#221F1F;}
	.st1{fill:#FF9900;}
</style>
<g id="XMLID_3064_">
	<g id="XMLID_3092_">
		<g id="XMLID_3110_">
			<path id="XMLID_3111_" class="st0" d="M13.1,48.9V9.1h9.7v39.8H13.1z"/>
		</g>
		<g id="XMLID_3107_">
			<path id="XMLID_3108_" class="st0" d="M32.8,44.9c-2.9-2.9-4.4-6.9-4.4-11.8c0-4.9,1.5-8.8,4.4-11.8c2.9-2.9,6.7-4.4,11.4-4.4
				c3.9,0,7.1,1,9.8,2.9c2.7,1.9,4.5,4.6,5.3,8.2H48.8c-0.9-1.9-2.4-2.8-4.4-2.8c-2.1,0-3.6,0.7-4.6,2.2c-1,1.5-1.5,3.4-1.5,5.8
				c0,2.4,0.5,4.3,1.5,5.8c1,1.5,2.5,2.2,4.4,2.2c1.2,0,2.2-0.2,2.8-0.6c0.7-0.4,1.3-1.2,1.8-2.2h10.5c-0.9,3.4-2.7,6.1-5.4,8.1
				c-2.7,2-6,3-9.7,3C39.5,49.3,35.7,47.8,32.8,44.9z"/>
		</g>
		<g id="XMLID_3103_">
			<path id="XMLID_3104_" class="st0" d="M66.7,44.8c-3.2-3-4.8-6.9-4.8-11.8c0-4.9,1.6-8.8,4.8-11.7c3.2-2.9,7.1-4.4,11.8-4.4
				c4.7,0,8.6,1.5,11.8,4.4c3.2,2.9,4.7,6.8,4.7,11.7c0,4.9-1.6,8.8-4.7,11.8c-3.1,3-7,4.5-11.7,4.5C73.8,49.3,69.9,47.8,66.7,44.8z
				 M83.1,39c1.3-1.4,1.9-3.3,1.9-5.9c0-2.6-0.7-4.5-2-5.9c-1.3-1.3-2.9-2-4.7-2c-1.8,0-3.4,0.7-4.7,2c-1.3,1.3-2,3.3-2,5.9
				c0,2.6,0.7,4.5,2,5.9c1.3,1.4,2.9,2,4.7,2C80.3,41,81.9,40.4,83.1,39z"/>
		</g>
		<g id="XMLID_3100_">
			<path id="XMLID_3101_" class="st0" d="M110.3,17.3V22c2-3.3,5.2-5,9.6-5c3.6,0,6.6,1.2,8.8,3.6c2.2,2.4,3.4,5.7,3.4,9.9v18.5
				h-9.6V31.8c0-2-0.5-3.6-1.6-4.7c-1.1-1.1-2.6-1.7-4.4-1.7c-1.9,0-3.4,0.6-4.4,1.7c-1.1,1.1-1.6,2.7-1.6,4.7v17.2h-9.7V17.3H110.3
				z"/>
		</g>
		<g id="XMLID_3096_">
			<path id="XMLID_3097_" class="st0" d="M148.5,13.7c-1.1,1.1-2.4,1.6-4,1.6c-1.6,0-2.9-0.5-4-1.6c-1.1-1.1-1.6-2.4-1.6-4.1
				c0-1.6,0.5-3,1.6-4.1c1.1-1.1,2.4-1.6,4-1.6c1.6,0,2.9,0.5,4,1.6c1.1,1.1,1.6,2.4,1.6,4.1C150.2,11.3,149.6,12.6,148.5,13.7z
				 M139.7,48.9V17.3h9.7v31.6H139.7z"/>
		</g>
		<g id="XMLID_3093_">
			<path id="XMLID_3094_" class="st0" d="M159.4,44.9C156.4,42,155,38,155,33.1c0-4.9,1.5-8.8,4.4-11.8c2.9-2.9,6.7-4.4,11.4-4.4
				c3.9,0,7.1,1,9.8,2.9c2.7,1.9,4.5,4.6,5.3,8.2h-10.5c-0.9-1.9-2.4-2.8-4.4-2.8c-2.1,0-3.6,0.7-4.6,2.2c-1,1.5-1.5,3.4-1.5,5.8
				c0,2.4,0.5,4.3,1.5,5.8c1,1.5,2.5,2.2,4.4,2.2c1.2,0,2.2-0.2,2.8-0.6c0.7-0.4,1.3-1.2,1.8-2.2h10.5c-0.9,3.4-2.7,6.1-5.4,8.1
				c-2.7,2-6,3-9.7,3C166.1,49.3,162.3,47.8,159.4,44.9z"/>
		</g>
	</g>
	<g id="XMLID_3065_">
		<g id="XMLID_3089_">
			<path id="XMLID_3090_" class="st1" d="M52.9,54.7v8.2h-2v-4.6L49,62.9h-1.5l-1.9-4.6v4.6h-2v-8.2h2.3l2.4,5.7l2.4-5.7H52.9z"/>
		</g>
		<g id="XMLID_3086_">
			<path id="XMLID_3087_" class="st1" d="M65,54.7v1.5h-3V58h2.6v1.5H62v1.9h3v1.5h-5v-8.3H65z"/>
		</g>
		<g id="XMLID_3083_">
			<path id="XMLID_3084_" class="st1" d="M77.4,54.7h2v8.3h-2l-3.4-5.2v5.2h-2v-8.3h2l3.4,5.2V54.7z"/>
		</g>
		<g id="XMLID_3080_">
			<path id="XMLID_3081_" class="st1" d="M89.4,56.2c-0.3,0-0.5,0.1-0.6,0.2c-0.2,0.1-0.2,0.3-0.2,0.6c0,0.2,0.1,0.5,0.2,0.6
				c0.1,0.2,0.3,0.3,0.6,0.4c0.2,0.1,0.5,0.2,0.8,0.2c0.3,0.1,0.6,0.2,0.9,0.3c0.3,0.1,0.6,0.2,0.8,0.4c0.2,0.2,0.4,0.4,0.6,0.7
				c0.1,0.3,0.2,0.6,0.2,1c0,0.7-0.3,1.3-0.8,1.8c-0.6,0.5-1.3,0.7-2.2,0.7c-0.9,0-1.7-0.2-2.2-0.7c-0.6-0.4-0.8-1.1-0.8-1.9h2.1
				c0.1,0.7,0.4,1,1,1c0.3,0,0.5-0.1,0.7-0.2c0.2-0.2,0.2-0.3,0.2-0.6c0-0.2-0.1-0.4-0.2-0.6c-0.1-0.1-0.3-0.3-0.6-0.4
				c-0.2-0.1-0.5-0.2-0.8-0.2c-0.3-0.1-0.6-0.2-0.9-0.3c-0.3-0.1-0.6-0.2-0.8-0.4c-0.2-0.2-0.4-0.4-0.6-0.7c-0.1-0.3-0.2-0.6-0.2-1
				c0-0.8,0.3-1.4,0.9-1.8c0.6-0.5,1.3-0.7,2.2-0.7c0.9,0,1.6,0.2,2.2,0.6c0.5,0.4,0.8,1,0.9,1.9h-2.2c0-0.3-0.1-0.5-0.3-0.7
				C89.8,56.3,89.6,56.2,89.4,56.2z"/>
		</g>
		<g id="XMLID_3077_">
			<path id="XMLID_3078_" class="st1" d="M108.6,54.7h2.2l-2.3,8.2h-2.3l-1.4-5.2l-1.4,5.2H101l-2.3-8.2h2.1l1.4,5.9l1.5-5.9h2.3
				l1.4,5.8L108.6,54.7z"/>
		</g>
		<g id="XMLID_3074_">
			<path id="XMLID_3075_" class="st1" d="M122.1,54.7v1.5h-3V58h2.6v1.5h-2.6v1.9h3v1.5h-5v-8.3H122.1z"/>
		</g>
		<g id="XMLID_3070_">
			<path id="XMLID_3071_" class="st1" d="M134.4,62.9l-0.5-1.4h-3l-0.5,1.4h-2.1l2.9-8.3h2.4l2.8,8.3H134.4z M131.5,60h1.9l-1-2.9
				L131.5,60z"/>
		</g>
		<g id="XMLID_3066_">
			<path id="XMLID_3067_" class="st1" d="M144.9,59.7v3.2h-2v-8.2h3.2c1,0,1.7,0.2,2.2,0.7c0.5,0.5,0.8,1.1,0.8,1.8
				c0,0.5-0.1,0.9-0.4,1.4c-0.3,0.5-0.8,0.8-1.4,1l2,3.4H147l-1.9-3.2H144.9z M144.9,56.2v2h1.2c0.3,0,0.5-0.1,0.7-0.3
				c0.2-0.2,0.3-0.4,0.3-0.7c0-0.3-0.1-0.5-0.3-0.7c-0.2-0.2-0.4-0.3-0.7-0.3H144.9z"/>
		</g>
	</g>
</g>
</svg>
