<!-- Generator: Adobe Illustrator 22.1.0, SVG Export Plug-In . SVG Version: 6.00 Build 0)  -->
<svg version="1.1" id="Layer_1" xmlns="http://www.w3.org/2000/svg" xmlns:xlink="http://www.w3.org/1999/xlink" x="0px" y="0px"
	 viewBox="0 0 200.4 66.5" style="enable-background:new 0 0 200.4 66.5;" xml:space="preserve">
<style type="text/css">
	.st0{fill:#8C98A4;}
</style>
<g id="XMLID_2840_">
	<g id="XMLID_2880_">
		<g id="XMLID_2901_">
			<path id="XMLID_2902_" class="st0" d="M25.8,27.3c0,5.7-4.1,10.2-10.4,10.2C9.1,37.4,5,33,5,27.3c0-5.7,4.1-10.5,10.4-10.5
				C21.7,16.8,25.8,21.6,25.8,27.3z M18.9,27.3c0-7.8-0.1-10.2-3.5-10.2c-3.4,0-3.5,2.4-3.5,10.2c0,7.9,0.1,9.9,3.5,9.9
				C18.8,37.2,18.9,35.1,18.9,27.3z"/>
		</g>
		<g id="XMLID_2897_">
			<path id="XMLID_2898_" class="st0" d="M56.9,36.9v0.3h-5.7c-2,0-2.7-1.3-3.3-6.6c-0.4-2.9-3.8-2.7-3.8-2.7h-1.3V34
				c0,2.8,0.1,3,1.3,3v0.3h-8.5v-0.3c1.2,0,1.5-0.1,1.5-3V19.9c0-1.8-0.2-2.5-1.5-2.5v-0.2h8.1c5.7,0,10.8,0.7,10.8,5.5
				c0,4.3-3.9,5.2-6.7,5.2c3.3,0,4.9,0.7,6.3,5.9C54.6,35.7,56.1,36.9,56.9,36.9z M47.7,22.5c0-5.5-0.7-5.2-4.1-5.2h-0.9v10.3h0.9
				C47.3,27.6,47.7,27.7,47.7,22.5z"/>
		</g>
		<g id="XMLID_2894_">
			<path id="XMLID_2895_" class="st0" d="M86.1,29.7v0.3c-2,0-1.8,0.2-1.8,5.9c-1.4,1-4.3,1.6-7.3,1.6c-6.2,0-11-4.3-11-10.3
				c0-6.1,4.8-10.3,11-10.3c3.9,0,5.5,0.4,7.2,1.6L83.7,24h-0.2c0-6.6-4.6-7-6.5-7c-3.3,0-3.9,2.2-3.9,10.1c0,7.9,0.7,10.1,3.9,10.1
				c2.2,0,3.1-1.1,3.1-3.9c0-3.1-0.4-3.4-2-3.4v-0.3H86.1z"/>
		</g>
		<g id="XMLID_2890_">
			<path id="XMLID_2891_" class="st0" d="M105.8,17.1h0.1c7.2,16.6,7.7,17.5,7.7,17.5c1,2.3,2,2.3,2.6,2.4v0.2h-10V37
				c2.3,0,0.6-3.3,0.6-3.3l-0.9-2h-5.6c-0.6,1.3-0.1,5.3,3.4,5.3v0.2h-8.2V37c0.9-0.1,2.4-0.3,4.6-5.3L105.8,17.1z M102.9,25
				l-2.5,6.4h5.4L102.9,25z"/>
		</g>
		<g id="XMLID_2887_">
			<path id="XMLID_2888_" class="st0" d="M140.7,37.2l-10.8-15.3v8.9c0,2.3,0.1,6.2,4.3,6.2v0.3h-9.1v-0.3c3.9,0,4.5-3.9,4.5-6.2
				v-9.3l-1.3-1.9c-1.7-2.3-2.8-2.2-3.6-2.3v-0.2h9.1l9.7,14v-7.6c0-2.7-0.9-6.2-4.1-6.2v-0.2h8.7v0.2c-3.5,0-4.3,3.5-4.3,6.2v13.7
				H140.7z"/>
		</g>
		<g id="XMLID_2884_">
			<path id="XMLID_2885_" class="st0" d="M167.1,17.1v0.2c-1.2,0-1.9,0-1.9,2.5V34c0,2.7,0.7,3,1.9,3v0.3h-9.4v-0.3
				c1.2,0,1.9-0.3,1.9-3V19.9c0-2.5-0.6-2.5-1.9-2.5v-0.2H167.1z"/>
		</g>
		<g id="XMLID_2881_">
			<path id="XMLID_2882_" class="st0" d="M195.1,30.3l0.3,5.8c-0.8,0.5-3.7,1.3-6.7,1.3c-6.1,0-11.5-3.9-11.5-10.3
				c0-6.5,5.4-10.3,11.5-10.3c3.7,0,6,0.8,6.7,1.3l-0.3,5.8h-0.2c-0.9-5.9-4.1-6.8-6.2-6.8c-3.2,0-4.5,2.2-4.5,10.1
				c0,7.9,1.4,10.1,4.5,10.1c1.9,0,5.2-1.2,6.2-6.9H195.1z"/>
		</g>
	</g>
	<g id="XMLID_2841_">
		<g id="XMLID_2877_">
			<path id="XMLID_2878_" class="st0" d="M46.9,42.8v1.8h-0.1c-0.3-1.7-2.4-1.6-2.8-1.6h-0.4v3.1H44c0.1,0,1.4,0,1.5-1h0.1v2.1h-0.1
				c-0.1-1-1.4-1-1.5-1h-0.5v2.1c0,1,0.4,1.1,0.8,1.1v0.1h-2.5v-0.1c0.4,0,0.5-0.4,0.5-1.1V44c0-0.6-0.1-1-0.5-1v-0.1H46.9z"/>
		</g>
		<g id="XMLID_2873_">
			<path id="XMLID_2874_" class="st0" d="M56.4,49.7c-2.1,0-3.2-1.5-3.2-3.4c0-1.9,1.1-3.5,3.2-3.5c2.1,0,3.2,1.6,3.2,3.5
				C59.7,48.2,58.5,49.7,56.4,49.7z M56.4,42.8c-1.2,0-1.9,0.7-1.9,3.4c0,2.7,0.7,3.3,1.9,3.3c1.1,0,1.8-0.6,1.8-3.3
				C58.3,43.6,57.6,42.8,56.4,42.8z"/>
		</g>
		<g id="XMLID_2869_">
			<path id="XMLID_2870_" class="st0" d="M69.4,49.7c-2.1,0-3.2-1.5-3.2-3.4c0-1.9,1.1-3.5,3.2-3.5c2.1,0,3.2,1.6,3.2,3.5
				C72.6,48.2,71.5,49.7,69.4,49.7z M69.4,42.8c-1.2,0-1.9,0.7-1.9,3.4c0,2.7,0.7,3.3,1.9,3.3c1.1,0,1.8-0.6,1.8-3.3
				C71.2,43.6,70.5,42.8,69.4,42.8z"/>
		</g>
		<g id="XMLID_2865_">
			<path id="XMLID_2866_" class="st0" d="M81.5,49.6h-2.3v-0.1c0.4,0,0.7-0.4,0.7-1.1V44c0-0.6-0.3-1.1-0.7-1.1v-0.1h2.3
				c1.9,0,3.9,0.6,3.9,3.4C85.4,49.1,83.4,49.6,81.5,49.6z M81.5,42.9H81v6.5h0.4c1,0,2.5-0.1,2.5-3.2C84,43.1,82.5,42.9,81.5,42.9z
				"/>
		</g>
		<g id="XMLID_2860_">
			<path id="XMLID_2861_" class="st0" d="M98.9,48.5c0,0.8-0.6,1.2-1.1,1.2c0,0-1,0.1-1.3-0.5l-0.5-0.8c-0.4,1.1-2.4,1.9-3.3,0.6
				c-1-1.3,0.3-2.4,1.1-2.8l0.5-0.3l-0.5-0.8c-0.9-1.3-0.3-2.5,0.8-2.7c0.6-0.1,1.1,0.1,1.4,0.4c0.4,0.4,0.8,1.6-0.7,2.6l1.2,1.8
				c0.4-0.8,0.9-1,1.1-1.1c0.2,0,0.5,0,0.6,0.1c0.2,0.2,0.3,0.5,0.1,0.8c-0.2,0.2-0.6,0.3-0.8,0.1c-0.1-0.1-0.2-0.2-0.2-0.4
				c0-0.2-0.5,0-0.8,0.6l0.8,1.1c0.3,0.4,0.8,0.4,0.8,0.4c0.3,0,0.7-0.1,0.8-0.5H98.9z M95.8,48.3L94.2,46l-0.5,0.3
				c-0.5,0.4-0.9,1.3-0.2,2.3C94.1,49.2,95.3,49.3,95.8,48.3z M94.3,44.3l0.7,1c1.3-0.8,1-1.9,0.6-2.4c-0.3-0.3-0.7-0.4-1-0.3
				C94.1,42.8,93.9,43.6,94.3,44.3z"/>
		</g>
		<g id="XMLID_2856_">
			<path id="XMLID_2857_" class="st0" d="M107.8,49.6h-2.3v-0.1c0.4,0,0.7-0.4,0.7-1.1V44c0-0.6-0.3-1.1-0.7-1.1v-0.1h2.3
				c1.9,0,3.9,0.6,3.9,3.4C111.7,49.1,109.7,49.6,107.8,49.6z M107.8,42.9h-0.4v6.5h0.4c1,0,2.5-0.1,2.5-3.2
				C110.3,43.1,108.8,42.9,107.8,42.9z"/>
		</g>
		<g id="XMLID_2852_">
			<path id="XMLID_2853_" class="st0" d="M124.4,49.6h-0.8c-1.5,0-1.3,0-1.9-2.1c-0.3-1-1.2-1-1.4-1h-0.5v2c0,0.7,0.3,0.9,0.7,0.9
				v0.1h-2.5v-0.1c0.4,0,0.6-0.3,0.6-1v-4.7c0-0.6-0.2-0.8-0.6-0.8v-0.1h2.1c1.9,0,3.1,0.2,3.1,1.8c0,1.2-0.8,1.7-1.8,1.8
				c0.6,0,1.4,0.2,1.8,2.2c0.2,0.7,0.8,0.9,1.1,0.9V49.6z M120.2,42.9h-0.3v3.4h0.3c1,0,1.8,0,1.8-1.7
				C122,42.9,121.2,42.9,120.2,42.9z"/>
		</g>
		<g id="XMLID_2849_">
			<path id="XMLID_2850_" class="st0" d="M133.4,42.8v0.1c-0.4,0-0.8,0.2-0.8,0.8v4.8c0,0.7,0.3,1,0.8,1v0.1h-2.7v-0.1
				c0.4,0,0.8-0.3,0.8-1v-4.8c0-0.6-0.3-0.8-0.8-0.8v-0.1H133.4z"/>
		</g>
		<g id="XMLID_2846_">
			<path id="XMLID_2847_" class="st0" d="M147.2,42.8v0.1c-1.4,0-1.4,1.8-1.4,2.3v4.4h-0.4l-4.2-5.3v2.9c0,0.4,0,2.3,1.3,2.3v0.1
				h-2.9v-0.1c1.4,0,1.4-1.9,1.4-2.3v-3l-0.4-0.5c-0.6-0.8-0.9-0.7-1.2-0.7v-0.1h2.1l4,5.1v-2.7c0-0.4,0-2.3-1.3-2.3v-0.1H147.2z"/>
		</g>
		<g id="XMLID_2842_">
			<path id="XMLID_2843_" class="st0" d="M156,42.8v0.1c-0.4,0-0.8,0.1-0.8,0.8v4.8c0,0.7,0.3,1,0.7,1v0.1h-2.5v-0.1
				c0.4,0,0.6-0.3,0.6-1v-4.8c0-0.6-0.2-0.8-0.6-0.8v-0.1H156z M160.4,49.6h-1.3c-1,0-1.2-0.3-2.3-1.8c-0.6-0.8-1-1.4-1-1.4l1.3-1.5
				c0.3-0.3,1.7-1.9,0.1-2v-0.1h2.9v0.1c-0.7,0-1.3,0.1-3.4,2.8c1.7,2.3,2.3,3.1,2.3,3.1c0.5,0.6,1.1,0.6,1.3,0.6V49.6z"/>
		</g>
	</g>
</g>
</svg>
