<!-- Generator: Adobe Illustrator 22.1.0, SVG Export Plug-In . SVG Version: 6.00 Build 0)  -->
<svg version="1.1" id="Layer_1" xmlns="http://www.w3.org/2000/svg" xmlns:xlink="http://www.w3.org/1999/xlink" x="0px" y="0px"
	 viewBox="0 0 200.4 66.5" style="enable-background:new 0 0 200.4 66.5;" xml:space="preserve">
<style type="text/css">
	.st0{fill:#CF4037;}
</style>
<g id="XMLID_4133_">
	<g id="XMLID_4134_">
		<g id="XMLID_4154_">
			<path id="XMLID_4155_" class="st0" d="M70.5,30.1L55.3,8.5v12.6c0,3.2,0.2,8.7,6.1,8.7v0.4H48.6v-0.4c5.6,0,6.4-5.5,6.4-8.7v-13
				l-1.9-2.7c-2.4-3.2-4-3.1-5-3.2V1.6h12.8l13.7,19.8V10.8C74.6,7,73.3,2,68.8,2V1.6H81v0.3c-5,0-6.1,4.9-6.1,8.7v19.3h-4.4V30.1z"
				/>
		</g>
		<g id="XMLID_4151_">
			<path id="XMLID_4152_" d="M106.3,22.1V30H82.8v-0.4c1.7,0,2.3-2.4,2.3-5.1V7.2c0-2.5-0.6-5.2-2.3-5.2V1.6h23v8.2h-0.4
				c0-7.8-11-7.9-11-7.9h-1.5v13.5h3.3c0,0,4.3,0.1,4.7-4.7h0.4v9.9h-0.4c-0.4-4.8-4.7-4.8-4.7-4.8h-3.3v13.8h1.4
				c0,0,11.5,0.4,11.5-7.5H106.3z"/>
		</g>
		<g id="XMLID_4148_">
			<path id="XMLID_4149_" d="M154.5,1.6v0.3c-1.6,0-4.1,1.2-7,8.3l-7,19.7h-1.4c-3.7-8.7-6.2-14.4-7.8-18l-6.4,18h-1.4
				C113.2,6.3,112.7,5.2,112.7,5.2c-1.4-3.2-1.9-3.2-3-3.3V1.6h12.5v0.3c-2.6,0-0.5,4.7-0.5,4.7l6.1,13.8l3.2-9
				c-2.5-5.7-2.7-6.2-2.7-6.2c-1.4-3.2-1.9-3.2-3-3.3V1.6h12.6v0.3c-2.6,0-0.5,4.7-0.5,4.7l6,13.8l3.6-10.2c1-2.9,0.1-8.3-4-8.3V1.6
				H154.5z"/>
		</g>
		<g id="XMLID_4145_">
			<path id="XMLID_4146_" d="M82.2,36.5v0.3c-1.6,0-4.1,1.2-7,8.3l-7,19.7h-1.4c-3.7-8.7-6.2-14.4-7.8-18l-6.4,18h-1.4
				C40.9,41.1,40.4,40.1,40.4,40.1c-1.4-3.2-1.9-3.2-3-3.3v-0.3h12.5v0.3c-2.6,0-0.5,4.7-0.5,4.7l6.1,13.8l3.2-9
				c-2.5-5.7-2.7-6.2-2.7-6.2c-1.4-3.2-1.9-3.2-3-3.3v-0.3h12.5v0.3c-2.6,0-0.5,4.7-0.5,4.7l6,13.8l3.6-10.2c1-2.9,0.1-8.3-4-8.3
				v-0.3H82.2z"/>
		</g>
		<g id="XMLID_4141_">
			<path id="XMLID_4142_" d="M94.5,36.5h0.2c10.2,23.3,10.9,24.7,10.9,24.7c1.4,3.2,2.8,3.3,3.6,3.3v0.3H95.1v-0.3
				c3.2,0,0.8-4.7,0.8-4.7L94.6,57h-7.9c-0.8,1.9-0.1,7.5,4.7,7.5v0.3H79.9v-0.3c1.2-0.1,3.4-0.4,6.5-7.5L94.5,36.5z M90.4,47.6
				l-3.6,9.1h7.6L90.4,47.6z"/>
		</g>
		<g id="XMLID_4138_">
			<path id="XMLID_4139_" d="M137.5,36.5v0.3c-1.7,0-4.3,1.2-7.4,8.3l-8,19.7h-1.2c-10.8-23.7-11.3-24.7-11.3-24.7
				c-1.4-3.2-2.1-3.2-3.2-3.3v-0.3h13.4v0.3c-2.8,0-0.6,4.7-0.6,4.7l6.2,13.9l4.1-10.2c1.2-3,0.5-8.3-4.3-8.3v-0.3L137.5,36.5
				L137.5,36.5z"/>
		</g>
		<g id="XMLID_4135_">
			<path id="XMLID_4136_" d="M163,57v7.8h-23.5v-0.4c1.7,0,2.3-2.4,2.3-5.1V42.1c0-2.5-0.6-5.2-2.3-5.2v-0.3h23v8.2h-0.4
				c0-7.8-11-7.9-11-7.9h-1.4v13.5h3.3c0,0,4.3,0.1,4.7-4.7h0.4v9.9h-0.4c-0.4-4.8-4.7-4.7-4.7-4.7h-3.3v13.8h1.4
				c0,0,11.5,0.4,11.5-7.5h0.4V57z"/>
		</g>
	</g>
</g>
</svg>
