<!-- Generator: Adobe Illustrator 22.1.0, SVG Export Plug-In . SVG Version: 6.00 Build 0)  -->
<svg version="1.1" id="Layer_1" xmlns="http://www.w3.org/2000/svg" xmlns:xlink="http://www.w3.org/1999/xlink" x="0px" y="0px"
	 viewBox="0 0 200.4 66.5" style="enable-background:new 0 0 200.4 66.5;" xml:space="preserve">
<style type="text/css">
	.st0{fill:#8C98A4;}
</style>
<g id="XMLID_3573_">
	<g id="XMLID_3607_">
		<g id="XMLID_3626_">
			<path id="XMLID_3627_" class="st0" d="M66.6,52.7c-0.9-0.2-1.6-0.6-2.1-1.3c-0.5-0.7-0.7-1.5-0.5-2.4c0.2-0.9,0.7-1.6,1.4-2
				c0.7-0.5,1.5-0.6,2.4-0.4c0.6,0.1,1.2,0.4,1.6,0.8c0.5,0.4,0.8,0.9,0.9,1.5c-0.3-0.1-0.7-0.1-1-0.2c-0.3-0.8-0.8-1.2-1.7-1.4
				c-0.7-0.1-1.3,0-1.8,0.3c-0.5,0.4-0.9,0.9-1,1.6c-0.1,0.7,0,1.4,0.3,1.9c0.4,0.5,0.9,0.9,1.6,1c0.7,0.1,1.3,0,1.7-0.3
				c0.5-0.3,0.8-0.8,1-1.4c-0.9-0.1-1.8-0.3-2.6-0.5c0-0.2,0.1-0.4,0.1-0.6c1.2,0.2,2.3,0.4,3.5,0.6c0,0.2-0.1,0.4-0.1,0.6
				c-0.2,0.8-0.7,1.4-1.4,1.8C68.3,52.7,67.5,52.8,66.6,52.7z"/>
		</g>
		<g id="XMLID_3622_">
			<path id="XMLID_3623_" class="st0" d="M80.3,54.5c-0.1-0.5-0.3-0.9-0.4-1.4c-1-0.1-1.9-0.2-2.9-0.3c-0.2,0.4-0.4,0.9-0.7,1.3
				C76,54,75.7,54,75.5,54c1-2,2.1-3.9,3-5.9c0.3,0,0.6,0.1,0.9,0.1c0.5,2.1,1.1,4.3,1.7,6.4C80.8,54.5,80.5,54.5,80.3,54.5z
				 M77.3,52.2c0.8,0.1,1.6,0.2,2.4,0.2c-0.3-1.1-0.6-2.2-0.9-3.3C78.3,50.1,77.8,51.1,77.3,52.2z"/>
		</g>
		<g id="XMLID_3618_">
			<path id="XMLID_3619_" class="st0" d="M88.1,52.4c0,0.9-0.1,1.7-0.1,2.6c-0.3,0-0.6,0-0.9,0c0.1-2.1,0.2-4.2,0.3-6.2
				c0.7,0,1.4,0.1,2,0.1c0.7,0,1.2,0.2,1.6,0.6c0.4,0.3,0.5,0.8,0.5,1.3c0,0.5-0.2,0.9-0.4,1.2c-0.3,0.3-0.7,0.5-1.3,0.6
				c0.6,0.9,1.1,1.8,1.7,2.6c-0.4,0-0.7,0-1.1,0c-0.6-0.9-1.1-1.7-1.6-2.6C88.6,52.4,88.3,52.4,88.1,52.4z M88.2,49.4
				c0,0.8-0.1,1.6-0.1,2.4c0.4,0,0.8,0,1.2,0c0.5,0,0.8-0.1,1-0.3c0.2-0.2,0.3-0.5,0.4-0.9c0-0.8-0.4-1.2-1.3-1.2
				C89,49.4,88.6,49.4,88.2,49.4z"/>
		</g>
		<g id="XMLID_3614_">
			<path id="XMLID_3615_" class="st0" d="M99.6,48.7c1,0,1.8,0.2,2.4,0.7c0.6,0.5,1,1.3,1,2.2c0.1,1-0.2,1.7-0.8,2.3
				c-0.6,0.6-1.4,0.9-2.5,0.9c-0.7,0-1.4,0.1-2.1,0.1c-0.1-2.1-0.1-4.2-0.2-6.2C98.3,48.8,98.9,48.7,99.6,48.7z M98.6,54.4
				c0.4,0,0.8,0,1.2,0c0.8,0,1.4-0.3,1.8-0.7c0.4-0.5,0.6-1.1,0.5-1.8c0-0.8-0.3-1.4-0.7-1.8c-0.4-0.4-1.1-0.6-1.9-0.6
				c-0.4,0-0.8,0-1.2,0C98.5,51.1,98.6,52.7,98.6,54.4z"/>
		</g>
		<g id="XMLID_3611_">
			<path id="XMLID_3612_" class="st0" d="M111.9,47.7c0,0.2,0.1,0.4,0.1,0.6c-0.8,0.1-1.7,0.2-2.5,0.3c0.1,0.7,0.2,1.4,0.2,2.1
				c0.8-0.1,1.5-0.2,2.3-0.3c0,0.2,0.1,0.4,0.1,0.6c-0.8,0.1-1.5,0.2-2.3,0.3c0.1,0.7,0.2,1.4,0.2,2.2c0.9-0.1,1.7-0.2,2.6-0.3
				c0,0.2,0.1,0.4,0.1,0.6c-1.1,0.1-2.3,0.3-3.5,0.4c-0.2-2.1-0.4-4.1-0.7-6.2C109.7,47.9,110.8,47.8,111.9,47.7z"/>
		</g>
		<g id="XMLID_3608_">
			<path id="XMLID_3609_" class="st0" d="M121.8,46c0.3-0.1,0.5-0.1,0.8-0.2c0.4,2,0.8,4.1,1.3,6.1c-0.3,0.1-0.6,0.1-0.8,0.2
				c-1.5-1.4-2.9-2.8-4.3-4.2c0.3,1.6,0.6,3.3,0.9,4.9c-0.3,0.1-0.6,0.1-0.9,0.1c-0.4-2.1-0.7-4.1-1.1-6.2c0.3,0,0.5-0.1,0.8-0.1
				c1.4,1.4,2.8,2.8,4.2,4.2C122.4,49.3,122.1,47.7,121.8,46z"/>
		</g>
	</g>
	<g id="XMLID_3591_">
		<g id="XMLID_3604_">
			<path id="XMLID_3605_" class="st0" d="M79.1,62.7c0-0.3,0.1-0.6,0.1-0.9c0.2-0.1,0.4-0.2,0.7-0.4c0.3-0.2,0.5-0.3,0.6-0.4
				c0.2-0.1,0.3-0.2,0.5-0.4c0.2-0.1,0.4-0.3,0.5-0.4c0.3-0.3,0.4-0.6,0.5-0.8c0-0.4-0.1-0.6-0.5-0.7c-0.2,0-0.3,0-0.4,0.1
				c-0.1,0.1-0.2,0.3-0.2,0.5c-0.4-0.1-0.8-0.1-1.2-0.2c0.1-0.6,0.3-1,0.7-1.3c0.4-0.3,0.9-0.3,1.4-0.3c0.6,0.1,1,0.3,1.2,0.6
				c0.3,0.4,0.4,0.7,0.3,1.2c0,0.3-0.1,0.6-0.3,0.9c-0.1,0.1-0.2,0.3-0.3,0.3c-0.1,0.1-0.2,0.2-0.4,0.3c-0.2,0.1-0.3,0.2-0.4,0.3
				c-0.1,0.1-0.2,0.2-0.4,0.3c-0.2,0.1-0.3,0.2-0.4,0.3c0.7,0.1,1.3,0.2,2,0.2c0,0.3-0.1,0.7-0.1,1C81.7,63,80.4,62.9,79.1,62.7z"/>
		</g>
		<g id="XMLID_3600_">
			<path id="XMLID_3601_" class="st0" d="M89,58.5c0.3-0.1,0.6-0.2,1-0.2c0.4,0,0.7,0.1,1,0.2c0.3,0.1,0.5,0.3,0.6,0.6
				c0.2,0.2,0.3,0.5,0.3,0.8c0.1,0.3,0.1,0.7,0.1,1.1c0,0.4-0.1,0.7-0.1,1.1c-0.1,0.3-0.2,0.6-0.4,0.8c-0.2,0.2-0.4,0.4-0.7,0.6
				c-0.3,0.1-0.6,0.2-1,0.2c-0.4,0-0.7-0.1-1-0.2c-0.3-0.1-0.5-0.3-0.7-0.6c-0.2-0.3-0.3-0.5-0.3-0.9c-0.1-0.3-0.1-0.7-0.1-1.1
				c0-0.4,0.1-0.7,0.2-1.1c0.1-0.3,0.2-0.6,0.4-0.8C88.5,58.8,88.7,58.6,89,58.5z M90.3,59.6c-0.1-0.1-0.2-0.1-0.4-0.1
				c-0.1,0-0.3,0-0.4,0.1c-0.1,0.1-0.2,0.1-0.3,0.2c-0.1,0.1-0.1,0.2-0.2,0.3c0,0.1-0.1,0.3-0.1,0.4c0,0.1,0,0.3,0,0.5
				c0,0.2,0,0.3,0,0.5c0,0.1,0,0.3,0.1,0.4c0,0.1,0.1,0.3,0.1,0.3c0.1,0.1,0.1,0.2,0.2,0.2c0.1,0.1,0.2,0.1,0.4,0.1
				c0.1,0,0.3,0,0.4-0.1c0.1-0.1,0.2-0.1,0.3-0.2c0.1-0.1,0.1-0.2,0.2-0.3c0-0.1,0.1-0.3,0.1-0.4c0-0.1,0-0.3,0-0.5
				c0-0.2,0-0.3,0-0.5c0-0.1,0-0.3-0.1-0.4c0-0.1-0.1-0.3-0.1-0.3C90.5,59.8,90.4,59.7,90.3,59.6z"/>
		</g>
		<g id="XMLID_3597_">
			<path id="XMLID_3598_" class="st0" d="M97.5,63.7c-0.1-1.4-0.1-2.7-0.2-4.1c-0.3,0-0.6,0-0.9,0c0-0.4,0-0.8,0-1.2
				c0.7,0,1.5,0,2.2-0.1c0.1,1.7,0.2,3.5,0.3,5.2C98.4,63.7,98,63.7,97.5,63.7z"/>
		</g>
		<g id="XMLID_3592_">
			<path id="XMLID_3593_" class="st0" d="M103.8,59.2c0-0.4,0.1-0.8,0.4-1.1c0.3-0.3,0.7-0.5,1.3-0.6c0.6-0.1,1.1,0,1.4,0.3
				c0.4,0.2,0.6,0.6,0.6,1c0.1,0.5-0.1,0.9-0.5,1.2c0.6,0.2,0.9,0.6,1,1.2c0.1,0.5-0.1,0.9-0.4,1.3c-0.4,0.4-0.8,0.6-1.4,0.7
				c-0.6,0.1-1.1,0-1.6-0.3c-0.4-0.3-0.7-0.7-0.7-1.2c-0.1-0.6,0.2-1.1,0.7-1.4C104.1,60,103.8,59.7,103.8,59.2z M106.7,61.3
				c0-0.2-0.1-0.4-0.3-0.5c-0.1-0.1-0.3-0.2-0.6-0.1c-0.2,0-0.4,0.1-0.6,0.3c-0.1,0.1-0.2,0.3-0.2,0.5c0,0.2,0.1,0.4,0.3,0.5
				c0.2,0.1,0.4,0.2,0.6,0.1c0.2,0,0.4-0.1,0.5-0.3C106.7,61.7,106.7,61.5,106.7,61.3z M106.3,59.1c0-0.2-0.1-0.3-0.2-0.4
				c-0.1-0.1-0.3-0.1-0.5-0.1c-0.2,0-0.3,0.1-0.4,0.2c-0.1,0.1-0.2,0.3-0.1,0.5c0,0.2,0.1,0.3,0.2,0.4c0.1,0.1,0.3,0.1,0.5,0.1
				c0.2,0,0.3-0.1,0.4-0.2C106.3,59.4,106.4,59.2,106.3,59.1z"/>
		</g>
	</g>
	<g id="XMLID_3574_">
		<g id="XMLID_3589_">
			<path id="XMLID_3590_" class="st0" d="M42.7,9.1c-0.1-0.3-0.2-0.5-0.3-0.8c-0.1-0.3-0.2-0.7-0.3-1c-0.2-0.5-0.3-1-0.5-1.6
				c-0.4-1.2-1-1.9-1.8-2.2c-0.8-0.1-1.6-0.1-2.3,0c-2.9,0.6-5.8,1.9-8.6,4.1c-1.8,1.5-3.2,3.2-4.3,5.2c-0.9,1.6-1.4,3.4-1.4,5.5
				c0,2.1,0.7,3.9,2.2,5.6c0,0,0,0,0,0c0.5,0.5,1.1,0.9,1.7,1.2c0,0,0.1,0,0.1,0c0.5,0,0.8,0.1,0.9,0.3c0.3,0.8-1.6,3.2-2.7,4.6
				c-0.8,1-1.5,2-1.8,2.6c-1.2,2.3-1.9,5-2,8c-0.1,3.5,0.7,6.4,2.3,8.4c0.1,0.1,0.1,0.2,0.2,0.3c0.1,0.2,0.3,0.4,0.4,0.6
				c0,0,0,0.1,0.1,0.1c1.1,1.2,2.5,1.9,4,2c0.3,0,0.7,0,1-0.1c0.8-0.1,1.7-0.4,2.5-0.9c0,0,0,0,0.1,0c0.2-0.2,0.4-0.3,0.5-0.3
				c0.3,0.1,0.5-0.1,0.7-0.3c0.1-0.1,0.2-0.2,0.2-0.2h0c0,0,0,0,0,0c0,0,0,0,0,0c0.3-0.2,0.7-0.4,1-0.5c0.3-0.2,0.6-0.3,0.9-0.5
				c0.4-0.2,0.9-0.5,1.3-0.7c0.2-0.1,0.4-0.3,0.6-0.4c0.5-0.3,1.1-0.6,1.7-1c1-0.8,2-2,2.9-3c0.6-0.7,1.1-1.6,1.4-2.4
				c0.2-0.3,0.3-0.4,0.6-0.6c0.1,0,0.2-0.1,0.2-0.1c0-0.1-0.1-0.2-0.1-0.3c-0.3-0.9-0.7-1.7-1.2-2.2c-0.1-0.2-0.3-0.5-0.5-0.5
				c-0.3,0-0.5,0.2-0.7,0.6c-0.7,0.8-1.5,1.6-2.5,2.2c-0.4,0.2-0.8,0.4-1.3,0.6c-0.6,0.3-1.3,0.7-2,1c-0.8,0.5-1.7,1-2.5,1.5
				c-0.7,0.4-1.3,0.8-2,1.1c-1,0.5-2.2,1-3.4,1.3c-0.6,0.1-1.1,0.2-1.7-0.2c-0.4-0.2-0.8-1.8-0.8-2.5c0.1-5.6,6.8-15.4,9.6-18.1
				c0.5-0.6,0.9-1.1,1.2-1.7c0.3-0.9,0.7-1.4,1.1-1.9c0,0,0.1-0.1,0.1-0.1c0-0.1,0-0.1,0-0.2c0-0.1,0-0.2,0-0.2
				c-0.2-0.6-0.5-0.9-1.1-0.9c-0.9,0.1-1.7,0.3-2.3,0.7c-1.2,0.6-2.6,1.1-4.1,1.5c-2.3,0.7-2.6,0.3-2.6,0.3c0,0-0.1-0.5,1.5-2.2
				c2.8-2.9,7.2-5.7,7.8-5.2c0,0.1,0.1,0.1,0.1,0.2c0.1,0,0.1,0,0.2-0.1c0.8-0.3,1.5-0.4,2.2-0.4c1.2-0.1,2.3-0.9,3.1-2.5
				c0.5-0.9,0.7-1.9,0.4-3C42.8,9.4,42.7,9.3,42.7,9.1z"/>
		</g>
		<g id="XMLID_3583_">
			<path id="XMLID_3584_" class="st0" d="M88.1,14.2c0,0,0-0.1,0.1-0.1c0.1-0.1,0.2-0.3,0.2-0.5c0.1-0.3,0.2-0.6,0.3-0.8
				c0.1-0.2,0.2-0.3,0.3-0.5c0.1-0.1,0.1-0.2,0.2-0.3c0,0.2-0.1,0.3-0.1,0.5c0,0.1-0.1,0.3-0.1,0.4c0,0.3-0.1,0.5-0.2,0.8
				c-0.3,1.1-0.3,2.1-0.1,3c0.2,0.8,0.7,1.4,1.3,1.5c0.1,0.1,0.3,0.1,0.4,0.1c0.2,0.1,0.3,0.1,0.5,0.2c0.2,0.2,0.4,0.2,0.6,0
				c0.2-0.1,0.3-0.2,0.3-0.2c0.3,0,0.5-0.1,0.7-0.3c0,0,0.1,0,0.1-0.1c0,0,0,0,0.1-0.1c0,0,0,0,0,0c0,0,0.1,0,0.1-0.1
				c0,0,0.1-0.1,0.1-0.1c0.2-0.1,0.3-0.2,0.4-0.4c0-0.1,0.1-0.2,0.1-0.2c0.2-0.1,0.3-0.3,0.3-0.6c0,0,0-0.1,0-0.1c0,0,0-0.1-0.1-0.1
				c0-0.1-0.2-0.3-0.4-0.3c-0.2,0-0.4,0.2-0.4,0.3c-0.2,0.2-0.4,0.4-0.6,0.5c0,0,0,0.1-0.1,0.1c0,0,0,0-0.1,0.1c0,0-0.1,0.1-0.1,0.1
				c0,0-0.1,0-0.1,0c-0.1,0-0.1,0-0.2,0c0,0,0-0.1-0.1-0.1c0-0.3,0.1-0.5,0.1-0.8c0-0.1,0-0.3,0-0.4c0-0.2,0-0.3,0-0.5
				c0.1-0.5,0.1-1,0.1-1.6c0-0.4-0.1-0.8-0.1-1.2c0-0.3-0.1-0.6-0.1-0.8c0-0.1,0-0.2,0-0.3c0,0,0,0,0-0.1c-0.2-0.6-0.6-1.2-1.3-1.2
				c0,0,0,0,0,0c-0.1,0-0.3,0-0.5,0c-0.2,0-0.3,0-0.5,0c-0.4,0.1-0.7,0.3-1,0.7c-0.2,0.4-0.6,0.9-0.9,1.3c-0.3,0.5-0.6,0.9-0.9,1.4
				c0,0,0,0,0,0.1c-0.4,0.6-2.3,4.3-2.5,5.1c0,0,0,0,0,0c-0.1,0.5-1.1,1.6-1.4,1.7c0-0.1,0-0.3,0.2-0.7c0.3-1,0.8-1.9,1.3-2.8
				c0.5-0.9,1-1.9,1.3-3c0.1-0.5,0.2-0.5,0.2-0.6c0.1-0.1,0.2-0.2,0.4-0.8c0.4-1,0.3-1.7-0.1-2.6c-0.1-0.2-0.3-0.3-0.4-0.5
				c-0.3-0.4-0.6-0.7-0.8-1.1c0,0,0-0.1-0.1-0.1C84.4,8.1,84,8,83.7,8c-0.4-0.1-0.9-0.2-1.2-0.1c-0.6-0.1-0.9,0.1-1.2,0.8
				c-0.4,0.8-0.7,1.6-1.1,2.4c0,0.1-0.1,0.2-0.1,0.2c0,0.1-0.1,0.3-0.2,0.4c-0.1,0.2-0.2,0.4-0.2,0.6c-0.6,1.5-0.6,1.7-0.7,2.5
				c-0.1,0.3-0.1,0.7-0.2,1.2c-0.2,0.7-0.3,1-0.3,1.4c0,0.1-0.1,0.1-0.1,0.2c-0.4,0.6-0.8,1.1-1.4,1.9c-0.1,0.2-0.3,0.4-0.4,0.5
				c-0.1,0.2-0.3,0.4-0.4,0.6c0,0-0.1,0.1-0.1,0.1c-0.3,0.3-0.7,0.7-1,1c-0.4,0.4-0.9,0.9-1.3,1.3c-1.1,1-2.1,1.7-3.1,2.2
				c-0.4,0.1-1.5,0.5-1.7,0.5c0,0,0,0,0,0c-0.6,0-1.3-0.6-1.9-1.2c0,0-0.1-0.1-0.1-0.1c-0.1-0.1-0.2-0.4-0.3-0.6
				c-0.2-0.4-0.3-0.6-0.4-0.7c-0.1-0.2-0.2-0.4-0.2-0.7c0-0.4,0-0.7-0.1-1c0-0.1,0-0.2,0-0.3c0,0-0.1,0-0.1,0c0-0.1,0-0.1,0-0.2
				c0.1,0,0.2,0,0.2,0c0.1,0,0.1-0.1,0.2-0.1c0-0.1,0-0.2,0-0.4c0,0-0.1-0.1-0.1-0.1c0,0,0,0,0,0c0.2-0.1,0.2-0.2,0.3-0.5
				c0,0,0-0.1,0.1-0.1c0.1-0.1,0.3-0.3,0.3-0.5c0-0.1,0-0.2,0.1-0.4c0-0.1,0.1-0.1,0.1-0.2c0.2,0.2,0.3,0.5,0.4,0.8
				c0,0.1,0.1,0.2,0.1,0.2c0,0,0,0.1,0,0.1c0,0,0,0.1,0,0.1c0,0,0,0.1,0,0.1c0,0.1,0.1,0.3,0.2,0.4c0,0,0,0,0.1,0
				c0.1,0,0.1,0.1,0.2,0.2c0.2,0.1,0.4,0.3,0.7,0.3c0,0,0,0,0,0C68.8,21,68.9,21,69,21c0,0,0.1,0,0.1,0c0.3,0,0.7-0.1,1-0.3
				c0.4-0.2,0.8-0.5,1-1c0-0.1,0.1-0.1,0.1-0.2c0.2-0.3,0.3-0.6,0.4-0.9c0.1-0.3,0.2-0.6,0.4-0.8c0-0.1,0.1-0.2,0.1-0.2
				c0.4-0.8,0.7-1.5,0.7-2.1c0.2-0.7,0.1-1.3,0-1.9c0,0,0-0.1,0-0.1c0-0.2-0.1-0.4-0.3-0.5c-0.2-0.2-0.4-0.5-0.5-0.8
				c-0.1-0.1-0.1-0.2-0.2-0.3c-0.1-0.2-0.2-0.4-0.4-0.6c-0.3-0.2-1-0.3-1.7-0.5c-0.4-0.1-0.8-0.2-1.1-0.2c0,0,0,0,0-0.1
				c-0.1-0.1-0.1-0.2-0.2-0.3c-0.1-0.1-0.2-0.1-0.3-0.1c0,0-0.1,0-0.1,0c-0.3-0.4-0.8-0.1-0.9,0c-0.1,0.1-0.2,0.1-0.3,0.2
				c-0.1,0-0.1,0.1-0.2,0.1c-0.8,0.6-1.5,1.4-2.2,2.3c-0.7,0.8-1.2,1.7-1.7,2.6c-0.5,0.8-0.9,1.8-1.2,2.8c0,0.1-0.1,0.1-0.1,0.2
				c-0.1,0.3-0.2,0.6-0.2,1c0,0.3,0,0.7,0,1c0.1-0.3,0.3-0.6,0.4-0.9c0,0,0,0,0,0c-0.1,0.4-0.2,0.8-0.2,1.2
				c-0.2,0.2-0.3,0.4-0.5,0.5c-0.3,0.1-0.5,0.3-0.7,0.4c-0.1,0.1-0.3,0.2-0.5,0.3c-0.5,0.2-0.8-0.1-1.3-0.7
				c-0.1-0.2-0.3-0.3-0.4-0.4c0,0,0-0.1-0.1-0.1c-0.5-1-0.7-1.4-1.1-3.2c0-0.1-0.1-0.1-0.1-0.2c0,0,0-0.1,0-0.1
				c-0.1-0.2-0.2-0.3-0.4-0.4c0,0-0.1,0-0.1,0c-0.1,0-0.3-0.1-0.5,0c0,0,0,0-0.1,0c0,0-0.1-0.1-0.2-0.1c-0.2-0.1-1.2-0.1-1.4,0
				c-0.4,0.2-0.6,0.3-0.5,0.8c0,0.1,0.1,0.3,0.1,0.6c0,0,0,0.1,0,0.1c0.3,1,0.4,1.2,0.4,1.2c-0.1,0.5-0.2,0.6-0.3,0.7
				c-0.2,0.2-0.3,0.4-0.5,1c-0.2,0.4-0.3,0.9-0.4,1.3c-0.1,0.6-0.3,1.1-0.6,1.6c-0.2,0.4-0.4,0.8-0.6,1.2c-0.4,1-0.9,1.8-1.4,2.7
				c-0.1,0.2-0.2,0.3-0.3,0.5l0,0c0,0,0,0,0,0c0,0,0,0,0-0.1c0-0.1,0.1-0.1,0.1-0.2c0,0-0.1-0.1-0.1-0.1c0,0,0-0.1,0-0.1
				c0,0,0,0,0-0.1c0,0,0-0.1,0-0.1c0-0.2-0.1-0.5-0.2-0.8c0-0.1-0.1-0.1-0.1-0.1c0-0.2,0-0.4-0.1-0.7c-0.1,0.2-0.3,0.4-0.4,0.6
				c0,0,0,0.1,0,0.1c0,0.1,0,0.2,0,0.2c0-0.1,0-0.1-0.1-0.2c-0.1-0.3-0.1-0.6-0.1-0.9c0,0.1,0,0.1,0.1,0.2c0.2,0,0.3,0,0.5,0.1
				c0-0.1,0-0.1,0.1-0.2c0.1-0.4,0.1-0.5,0.1-0.9c-0.1-0.4-0.2-0.7-0.2-1.1c-0.1-0.5-0.1-1-0.2-1.5c0-0.1,0-0.3,0-0.4
				c-0.1-0.6-0.1-1.3-0.4-1.8c0-0.1,0-0.1,0-0.2c0-0.1-0.1-0.2-0.1-0.4c0-0.1,0-0.2,0-0.3c-0.1-0.5-0.2-1-0.4-1.4
				c-0.1-0.2-0.1-0.3,0-0.5c0.1,0,0.2,0,0.3-0.1c0.1,0,0.2,0,0.2-0.1c0-0.1,0-0.2-0.1-0.3c-0.1-0.4-0.3-0.6-0.5-0.8
				c-0.1-0.1-0.2-0.2-0.2-0.3c0,0-0.1-0.1-0.1-0.1c-0.1,0-0.2-0.1-0.3-0.1c-0.3-0.1-0.5-0.3-0.7-0.5c0,0-0.1-0.1-0.1-0.1
				c-0.1-0.1-0.3-0.2-0.5-0.1c-0.1,0-0.1,0-0.1,0c0,0-0.1-0.1-0.2-0.2c-0.2-0.1-0.2-0.2-0.2-0.2c0,0,0,0-0.1-0.1
				c-0.3-0.2-0.6-0.2-0.8,0.1c0,0,0,0.1-0.1,0.1c-0.1,0.2-0.1,0.3-0.1,0.4c0,0,0,0.1,0,0.2c0,0.2,0,0.3,0,0.4c0,0.1,0,0.1,0,0.3
				c-0.1,0.4-0.1,0.8,0,1.2c0,0.1,0,0.2,0,0.3c-0.1,0.9-0.1,1.6-0.3,2.4c-0.1,0.8-0.2,1.6-0.2,2.4c0,0.6-0.1,1.2-0.2,1.8
				c0,0.3,0,0.6-0.1,0.9c0,0.3,0,0.7-0.1,1c0,0.4-0.1,0.9-0.1,1.3c0,0.4,0,0.9-0.1,1.3c0,0.1,0,0.2,0,0.3c0,0.3,0,0.5,0,0.8
				c0,0.6,0.7,1.7,1.1,2c0.1,0.1,0.3,0.2,0.6,0.3c0.4,0.2,1.1,0.6,1.3,0.7c0.2,0.3,0.4,0.5,0.7,0.6c0.1,0,0.2,0,0.4,0
				c0.3,0,0.5-0.1,0.7-0.3c0,0,0.1,0,0.1-0.1c0.2-0.1,0.5-0.2,0.6-0.2c0.2,0,0.4,0,0.5-0.1c0.3-0.1,0.5-0.2,0.6-0.5
				c0.6-0.7,0.8-1.4,1-2.1c0.1-0.4,0.3-0.8,0.6-1.3c0-0.1,0-0.1,0.1-0.2c0.1-0.3,0.2-0.6,0.1-0.9c0,0,0-0.1,0-0.1c0,0,0-0.1,0-0.1
				c0.1-0.6,0.3-1,0.5-1.3c0.4-0.6,0.6-1,0.7-1.5c0,0,0-0.1,0.1-0.1c0-0.1,0.1-0.1,0.1-0.2c0,0,0-0.1,0.1-0.1
				c0.2-0.6,0.4-1.1,0.6-1.6c0.1-0.3,0.2-0.7,0.3-1c0.1-0.3,0.2-0.5,0.2-0.7c0.1-0.2,0.1-0.3,0.2-0.5c0.1,0.2,0.2,0.3,0.3,0.4
				c0.2,0.3,0.4,0.5,0.6,0.9c0,0,0,0,0.1,0.1c0,0,0.1,0.1,0.2,0.2c0.2,0.1,0.6,0.4,0.6,0.5c0,0,0,0,0.1,0.1c0,0,0.1,0,0.6,0.4
				c0,0,0,0,0,0.1c0.1,0,0.1,0,0.2,0c0,0,0.1,0,0.2,0.1c0.7,0.3,1.4,0.5,1.8,0.2c0.2-0.1,0.8-0.3,1.3-0.6c0,0,0,0,0,0
				c0.1,0.7,0.2,1.5,0.4,2.1c0.2,0.5,0.5,0.8,0.8,1c0.2,0.1,0.4,0.3,0.6,0.5c0.5,0.5,1,1,2.3,1.3c0.5,0.1,2.4,0.2,3.4,0.2
				c0.3,0,0.5,0,0.6-0.1c0.6-0.1,1.2-0.3,1.7-0.6c0.1-0.1,0.3-0.1,0.4-0.2c0.5-0.2,1-0.4,1.5-0.9c0.3-0.2,0.5-0.4,0.8-0.6
				c0.1-0.1,0.2-0.1,0.3-0.2c0.1-0.1,0.2-0.2,0.3-0.2c0.2-0.1,0.3-0.3,0.5-0.4c0.1-0.1,0.1-0.1,0.2-0.2c0.5-0.4,0.9-0.9,1.4-1.4
				c0.2-0.3,0.5-0.6,0.8-0.9c0.2-0.2,0.4-0.4,0.5-0.7c0.1-0.1,0.1-0.2,0.2-0.3c-0.1,0-0.1-0.1-0.2-0.1c0,0,0,0,0,0
				c0.1-0.1,0.2-0.2,0.2-0.5c0-0.1,0-0.3,0.1-0.4c0.1-0.1,0.1-0.2,0.2-0.3c0.1-0.2,0.2-0.3,0.3-0.5c-0.1,1-0.2,2-0.2,3.2
				c0,0.8,0,1.8,0.1,2.7c0.2,1.2,0.6,1.9,1.4,2c0.2,0.1,0.3,0.2,0.4,0.1c0.2,0,0.4,0.1,0.6,0.1c0.5,0,1-0.2,1.4-0.9
				c0,0,0.1-0.1,0.1-0.1c0.1-0.1,0.2-0.1,0.2-0.2c0.4-0.5,1.6-2.8,1.7-3.1c0.1-0.2,0.1-0.3,0.2-0.5c0.1-0.3,0.2-0.5,0.3-0.7
				c0.2-0.7,0.6-1.4,0.9-2.1c0.2-0.4,0.4-0.7,0.5-1.1c0.1-0.3,0.3-0.6,0.4-0.8c0.2-0.4,0.4-0.8,0.6-1.2C87.1,16,87.5,15.2,88.1,14.2
				z M65.4,21.9L65.4,21.9C65.4,21.9,65.4,21.9,65.4,21.9C65.4,21.9,65.4,21.9,65.4,21.9z M65.4,21.8L65.4,21.8L65.4,21.8L65.4,21.8
				z M70.5,14.9c-0.2,0.5-0.3,0.7-0.4,1c-0.1,0.2-0.2,0.5-0.4,0.9c-0.2,0.3-0.4,0.7-0.6,0.8c-0.4,0.1-0.6,0.2-0.8,0
				c-0.1-0.2-0.3-0.2-0.4-0.3c0,0-0.1,0-0.1-0.1c0,0-0.1,0-0.1-0.1c0,0,0-0.1,0.1-0.3c0.1-0.2,0.2-0.3,0.2-0.4c0,0,0-0.1,0.1-0.1
				c0.1-0.2,0.2-0.3,0.3-0.5c0.3-0.4,0.6-0.9,1-1.2c0.5-0.5,1.1-0.7,1.3-0.6C70.7,14,70.7,14.3,70.5,14.9z"/>
		</g>
		<g id="XMLID_3575_">
			<path id="XMLID_3576_" class="st0" d="M178.5,36.1c0.1-0.2,0.3-0.5,0.4-0.7c-0.2,0.1-0.3,0.1-0.5,0.2c0,0,0,0,0,0
				c-0.1,0-0.1,0.1-0.2,0.1c-0.2,0.1-0.3,0.2-0.5,0.3c-0.6,0.3-1,0.6-1.5,0.8c-1.4,0.7-2.5,1.1-3.6,1.6c-0.2,0.1-0.4,0.1-0.6,0.2
				c-6.2,2.2-7.7,2.4-8,2c0,0,0-0.1,0-0.2c0.2-0.3,1.5-1.8,2.5-2.8c0.7-0.8,1.4-1.5,1.6-1.7c0.7-0.9,2.5-2.5,2.9-2.8
				c0.1-0.1,0.2-0.2,0.2-0.2c0.2-0.2,0.5-0.4,0.7-0.8c0.1-0.1,0.8-0.6,1-0.8c0.1,0,0.1-0.1,0.2-0.1c0.3-0.1,0.5-0.3,0.6-0.5
				c0.4-0.4,0.5-1.1,0.5-1.4c0-0.2,0-0.9-0.2-1.2c-0.3-0.3-0.5-0.3-0.8-0.1c-0.3,0-0.5,0.2-0.7,0.4c0,0,0,0-0.1,0
				c-0.1,0.1-0.3,0.2-0.4,0.2c-0.4,0.2-0.8,0.5-1.3,0.7c0,0,0,0-0.1,0c-0.5,0.4-0.6,0.5-0.7,0.6c-0.1,0.1-0.2,0.2-0.8,0.6
				c-0.7,0.4-3.3,1.4-5.8,2.2c-3.7,1.2-5,1.2-5.1,1c0,0,0-0.5,2.5-2.3c0.2-0.1,0.4-0.3,0.6-0.4c0.1-0.1,0.3-0.2,0.4-0.3
				c0.2-0.2,0.5-0.4,0.8-0.5c0.4-0.3,0.8-0.5,1.1-0.8c0.1-0.1,0.3-0.2,0.4-0.3c0.5-0.4,0.9-0.7,1.3-1.1c0.3-0.2,0.5-0.4,0.7-0.6
				c0.2-0.2,0.3-0.3,0.5-0.4c0,0,0,0,0.1,0c0.4-0.5,0.7-0.9,0.8-1.5c0.2-0.6,0.4-1.5-0.1-2.4c0,0,0,0,0-0.1c0-0.1,0-0.2,0-0.3
				c-0.1-0.2-0.1-0.4-0.2-0.6c-0.1-0.1-0.2-0.2-0.2-0.4c-0.3-0.4-0.9-1.2-0.9-1.5c0,0,0,0,0-0.1c0,0,0,0,0-0.1
				c-0.1-0.1-0.1-0.2-0.2-0.3c-0.1-0.1-0.1-0.2-0.2-0.2c0,0-0.1-0.1-0.1-0.1c-0.1,0-0.1,0-0.2,0c-0.4,0.1-0.5,0.2-0.8,0.4
				c-0.6,0.4-1,0.7-1.5,1.1c-0.5,0.2-1,0.9-1.5,1.4c-0.3,0.4-0.7,0.7-0.9,1c0,0,0,0.1-0.1,0.1c-0.1,0.3-0.5,0.7-0.8,1.1
				c-0.2,0.2-0.4,0.4-0.5,0.6c-0.4,0.7-0.8,1.1-1.1,1.5c-0.3,0.3-0.5,0.7-0.8,1.1c0,0,0,0,0,0c0,0-0.1,0-0.2,0c-0.4,0.2-1,0.6-1.6,1
				c-0.5,0.4-1.1,0.8-1.5,1c-0.1,0.1-0.3,0.1-0.5,0.2c-0.2,0.1-0.3,0.1-0.5,0.2c-0.4,0.1-0.8,0.2-1.1,0.3c0,0-0.1,0-0.1,0
				c-0.2,0.1-0.5,0.1-0.7,0.1c-0.1,0-0.2,0-0.2,0c-0.3,0-0.6,0-0.9-0.1c-0.1,0-0.1-0.1-0.2-0.1c0-0.5,0-0.9,0-1.2
				c0.1-0.3,0.2-0.6,0.4-0.8c0.4-0.3,0.8-0.7,1.1-1.1c0,0,0,0,0,0c0.1-0.1,0.1-0.1,0.2-0.3c0.1-0.5,0.3-1,0.1-1.7
				c-0.1-0.1-0.1-0.2-0.2-0.3c-0.2-0.6-0.7-0.7-1.1-0.8c0,0-0.1,0-0.1,0c0,0-0.1,0-0.1,0.1c-0.5,0.4-0.9,0.8-1.3,1.1
				c-0.1,0-0.1,0.1-0.2,0.1c-0.3,0.3-0.7,0.5-1.1,0.8c-0.2,0.1-0.4,0.2-0.6,0.3c-0.3,0.3-0.6,0.4-0.9,0.5c-0.5,0.2-1,0.4-1.5,0.7
				c0.2-0.3,0.4-0.5,0.7-0.8c0.1-0.1,0.1-0.1,0.2-0.2c0,0,0.1-0.1,0.1-0.1c0.2-0.1,0.4-0.3,0.5-0.4c0.1-0.1,0.3-0.2,0.4-0.3
				c0.4-0.3,0.8-0.6,1.2-0.8c0.3-0.1,0.5-0.3,0.8-0.5c0.4-0.3,0.9-0.6,1.4-0.8c0.2-0.1,0.4-0.2,0.6-0.3c0,0,0.1,0,0.1-0.1
				c0.4-0.1,0.9-0.3,1.3-0.3c0.6-0.1,0.9-0.4,1-1.1c0-0.1,0-0.2,0-0.2c0-0.1,0-0.1,0-0.3c-0.1-0.3-0.2-0.6-0.3-0.9
				c-0.1-0.1-0.1-0.2-0.2-0.3c-0.1-0.1-0.2-0.3-0.3-0.3c-0.1,0-0.1-0.1-0.2-0.2c-0.1-0.1-0.2-0.2-0.3-0.3c-0.1-0.2-0.3-0.3-0.4-0.4
				c0,0-0.1,0-0.1-0.1c0,0-0.1-0.1-0.2-0.2c-0.1-0.1-0.3-0.2-0.4-0.2c-0.2-0.1-0.4-0.2-0.5-0.3c-0.1,0-0.2-0.1-0.2-0.1
				c-0.4-0.1-0.7-0.1-0.9-0.2c-0.2,0-0.4-0.1-0.6,0c-0.8,0.2-1.6,0.5-2.3,1c-1,0.6-2,1.3-2.9,2.1c-0.1,0-0.1,0.1-0.2,0.2
				c-0.6,0.4-1.1,0.9-1.5,1.3c-0.2-0.2-0.4-0.5-0.7-0.5c-0.3,0-0.5,0.2-0.7,0.5c-0.1,0.2-0.3,0.4-0.5,0.6c-0.5,0.5-1,1-1.5,1.5
				c-0.8,0.9-1.7,1.8-2.7,2.7c-0.7,0.8-1.1,1.4-1.3,1.8c-0.2,0.4-0.4,0.6-0.7,0.9c-0.3,0.3-0.6,0.6-0.9,0.9
				c-0.3,0.3-0.4,0.4-0.4,0.6c0,0-0.1,0.1-0.2,0.2c-0.1,0.1-0.1,0.1-0.2,0.2c0,0-0.1,0-0.1,0.1c-0.2,0-0.3,0.1-0.4,0.1
				c-0.2,0.1-0.4,0.2-1,0.2c-0.1-0.1-0.1-0.2-0.2-0.3c-0.3-0.6-0.6-1-0.8-1.7c0,0,0-0.1,0-0.1c0-0.1-0.1-0.1-0.1-0.2
				c0.1,0,0.1,0,0.2,0c0-0.1-0.1-0.2-0.1-0.3c0.1-0.1,0.1-0.4,0-0.6c0-0.2,0-0.4-0.2-0.6c0-0.6,0-1.2,0.1-1.9c0-0.1,0-0.2,0.1-0.3
				c0.1-0.2,0.1-0.4,0.1-0.7c0,0,0,0,0,0c0,0,0,0,0,0c0.1-0.4,0.2-0.8,0.3-1.2c0.1-0.3,0.3-0.7,0.3-1.1c0-0.1,0.1-0.3,0.1-0.4
				c0-0.1,0-0.1,0.1-0.2c0.1-0.1,0.2-0.3,0.2-0.5c0-0.1,0.1-0.2,0.1-0.3c0.1-0.2,0.1-0.3,0.2-0.5c0.2-0.4,0.4-0.7,0.6-1.1
				c0.1-0.3,0.3-0.7,0.5-1.1c0.1-0.2,0.2-0.3,0.3-0.4c0,0,0.1,0,0.1-0.1c0.2-0.2,0.3-0.4,0.3-0.5c0.1-0.2,0.1-0.3,0.3-0.4
				c0,0,0,0,0.1,0c0.6-0.4,1.2-0.9,1.6-1.5c0.2-0.2,0.5-0.4,0.7-0.6c0.3-0.1,0.8-0.4,1.1-0.8c0.3-0.4,0.6-0.8,1.1-1.1
				c0.3-0.3,0.7-0.7,1-1.1c0.1-0.2,0.2-0.4,0.3-0.6c0,0,0.1-0.1,0.1-0.1c0.3-0.4,0.6-0.7,0.8-1c0.3-0.3,0.6-0.7,1-1
				c0.2-0.2,0.4-0.5,0.6-0.8c0.1-0.1,0.1-0.2,0.1-0.2c0.4-0.4,0.6-0.9,0.7-1.2c0.2-0.4,0.3-0.7,0.5-1c0.2-0.4,0.3-0.9,0.4-1.3
				c0-0.1,0-0.2,0.1-0.4c0,0,0,0,0,0c0-0.2,0-0.4-0.1-0.6c0,0,0,0,0-0.1c-0.2-0.2-0.3-0.4-0.5-0.6c-0.1-0.2-0.3-0.4-0.5-0.6
				c-0.7-0.6-1.5-0.8-2.2-0.5c-0.5,0.2-0.9,0.3-1.5,0.5c-0.1,0-0.2,0.1-0.2,0.1c-0.2,0.1-0.4,0.1-0.5,0.2c-0.5,0.3-1.1,0.6-1.6,0.8
				c-0.6,0.4-1.1,0.8-1.6,1.3c-0.5,0.6-1.1,1.2-1.7,1.9c0,0.1-0.1,0.1-0.1,0.2c-0.1,0.2-0.2,0.3-0.4,0.5c-0.3,0.4-0.6,0.8-0.9,1.2
				c-0.2,0.3-0.4,0.6-0.6,0.9c-0.1,0.1-0.2,0.2-0.2,0.3c-0.1,0.1-0.1,0.2-0.2,0.3c-0.4,0.4-0.7,1.1-1,1.8c-0.3,0.6-0.7,1.5-0.9,1.5
				c-0.1,0-0.2-0.1-0.5-0.8c0,0,0,0,0-0.1c0,0,0,0-0.1,0c-0.1,0-0.1-0.1-0.2-0.2c-0.2-0.1-0.3-0.2-0.5-0.3c0,0,0,0-0.1,0
				c-0.1-0.1-0.2-0.1-0.4-0.1c-0.1,0-0.1,0-0.2,0c-0.3,0-0.5,0-0.7,0.1c-1.5,0.2-2.9,0.8-4.1,1.7c-0.9,0.6-1.6,1.4-2.3,2.2
				c0,0,0-0.1,0-0.1c-0.2,0.1-0.4,0.3-0.6,0.4c0,0,0,0,0,0c-0.1,0.1-0.2,0.2-0.3,0.4c-0.4,0.5-0.8,0.9-1.2,1.3
				c-0.8,0.8-1.9,1.7-3.1,2.7c-0.2,0.1-0.4,0.3-0.5,0.4c-5.4,4.2-6.9,4.9-7.2,4.6c0,0,0-0.1,0-0.2c0.1-0.4,1-2.2,1.7-3.5
				c0.5-1,0.9-1.9,1.1-2.2c0.4-1.2,1.8-3.2,2.1-3.7c0.1-0.1,0.1-0.2,0.2-0.3c0.2-0.3,0.4-0.6,0.4-0.9c0.1-0.2,0.6-0.9,0.7-1.1
				c0-0.1,0.1-0.1,0.1-0.2c0.2-0.2,0.4-0.4,0.5-0.7c0.3-0.5,0.2-1.2,0.1-1.5c0-0.2-0.2-0.8-0.6-1.1c-0.3-0.2-0.5-0.1-0.8,0.2
				c-0.3,0.1-0.4,0.4-0.6,0.6c0,0,0,0,0,0.1c-0.1,0.1-0.2,0.2-0.3,0.4c-0.4,0.4-0.7,0.7-1.1,1.1c0,0,0,0,0,0
				c-0.4,0.5-0.5,0.7-0.5,0.8c-0.1,0.1-0.1,0.2-0.6,0.8c-0.5,0.6-2.8,2.4-5,4c-3.3,2.4-4.5,2.8-4.7,2.6c0,0-0.1-0.5,1.8-3
				c0.2-0.2,0.3-0.4,0.4-0.6c0.1-0.1,0.2-0.3,0.3-0.4c0.2-0.3,0.4-0.5,0.6-0.8c0.3-0.4,0.6-0.8,0.8-1.1c0.1-0.1,0.2-0.3,0.3-0.4
				c0.3-0.5,0.7-1,0.9-1.4c0.2-0.3,0.4-0.5,0.6-0.8c0.1-0.2,0.2-0.4,0.4-0.5c0,0,0,0,0-0.1c0.3-0.6,0.5-1.1,0.4-1.7
				c0-0.6-0.1-1.6-0.8-2.2c0,0,0,0,0-0.1c0-0.1-0.1-0.2-0.1-0.3c-0.1-0.2-0.3-0.4-0.4-0.5c-0.1-0.1-0.2-0.2-0.3-0.2
				c-0.4-0.3-1.2-0.8-1.3-1.2c0,0,0,0,0-0.1c0,0,0,0-0.1,0c-0.1-0.1-0.1-0.1-0.2-0.2c-0.1-0.1-0.2-0.1-0.2-0.2c0,0-0.1-0.1-0.1-0.1
				c0,0-0.1,0.1-0.1,0.1c-0.3,0.2-0.5,0.4-0.6,0.6c0,0,0,0,0,0.1c-0.5,0.6-0.8,1-1.1,1.6C98.6,8.5,98.3,9.2,98,10
				c-0.2,0.5-0.4,0.9-0.6,1.2c0,0,0,0.1,0,0.1c0,0.3-0.3,0.9-0.5,1.3c-0.1,0.3-0.3,0.5-0.3,0.7c-0.2,0.8-0.4,1.3-0.6,1.8
				c-0.2,0.6-0.5,1.2-0.6,2c-0.1,0.8-0.1,0.9-0.2,1.1c-0.1,0.1-0.1,0.3-0.3,0.6c-0.2,0.6,0.3,1.9,1.5,4.1c0.2,0.3,0.3,0.6,0.4,0.7
				c0.3,0.6,1.8,1.7,2.4,1.8c0,0,0,0,0.1,0c0,0,0,0,0.1,0c1.3-0.4,2.4-1,3.1-1.4c0.1-0.1,0.3-0.1,0.4-0.2c-0.2,0.4-0.7,1.2-1.3,2.1
				c-0.3,0.5-0.6,1-1,1.5c-0.4,0.6-1.3,2.3-2.1,3.7c-0.3,0.4-0.8,0.9-1.1,1.1c-1.1,0.6-2,0.9-3,1.3c-0.1,0-0.2,0.1-0.3,0.1
				c-1.8,0.8-3.4,1.4-4.9,1.6c-0.1,0-0.2,0-0.3,0.1c-0.4,0.1-0.8,0.2-1.2,0.3c-0.6,0.2-1,0.9-1,1.5c0.2,1.3,0.9,2.6,2.1,3.5
				c1,0.8,2.2,1.3,3.3,1.3c0.3,0,0.6,0,0.9-0.1c0.1,0,0.2,0,0.2,0c0.7,0,1.6,0,2.3-0.4c0.9-0.5,1.7-1,2.6-1.9
				c0.2-0.3,0.5-0.6,0.7-0.8c0.2-0.2,0.4-0.4,0.6-0.6c0.5-0.5,0.9-1,1.2-1.6c0.3-0.5,0.6-1.1,1.1-1.6c0,0,0-0.1,0.1-0.1
				c0.6-0.9,1.2-1.8,1.7-2.8c0.1-0.4,0.4-0.7,0.8-0.9c0.1,0,0.2-0.1,0.2-0.2c0,0,0.1-0.1,0.1-0.1c0.1-0.1,0.8-0.4,1.4-0.6
				c1.5-0.6,2.6-1.1,2.9-1.3c0,0,0,0,0.1-0.1c0.2-0.3,0.4-0.5,0.6-0.6c0.3-0.2,0.6-0.6,1-1.1c0.3-0.3,0.5-0.7,0.7-0.8
				c0.5-0.5,0.7-0.7,1-1c0.2-0.2,0.4-0.4,0.7-0.7c0.4-0.3,0.7-0.6,0.9-0.9c0-0.1,0.1-0.1,0.1-0.2c0.2-0.2,0.4-0.5,0.7-0.7
				c0.3-0.3,0.6-0.6,0.9-0.8c0.1-0.1,0.2-0.2,0.2-0.3c0.2-0.4,0.4-0.6,0.6-0.8c0,0,0.1-0.1,0.2-0.2c-0.2,0.5-0.3,1.1-0.4,1.6
				c-0.1,0.1-0.1,0.3-0.1,0.4c0,0.1,0,0.1,0,0.2c0,0,0,0,0,0c0,0,0,0.1,0,0.1c0,0.1,0,0.3,0,0.4c-0.2,0.6-0.2,1.3,0,1.9
				c0.2,1,0.7,1.8,1.4,2.4c0.5,0.4,1.1,0.7,1.6,1c0.5,0.2,1.1,0.1,1.4-0.2c0.1-0.1,0.3-0.1,0.5-0.2c0,0,0.1,0,0.1,0
				c0.9-0.1,1.5-0.7,1.9-1.6c0.2-0.4,0.4-0.6,0.6-0.8c0,0.2,0,0.4-0.1,0.5c-0.1,0.5-0.1,1-0.1,1.4c0,0.2,0,0.3,0,0.5
				c0,0.2,0,0.4-0.1,0.6c-0.1,0.3-0.1,0.5,0,0.9c0,0,0,0,0,0.1c0,0,0,0,0,0c0,0,0,0.1,0,0.1c0,0.5,0.1,1,0.2,1.4
				c0,0.1,0.1,0.3,0.1,0.5c0.2,0.8,0.5,1.6,1.1,2.3c0.4,0.8,0.6,1,1,1.3c0.1,0.1,0.3,0.2,0.4,0.3c0.5,0.3,0.8,0.4,1.2,0.5
				c0,0,0.1,0,0.1,0c0,0,0,0,0.1-0.1c0.1-0.1,0.2-0.1,0.2-0.2c0,0,0,0,0,0c0.3-0.1,0.6-0.2,0.9-0.3c0.2-0.1,0.5-0.2,0.7-0.3
				c0.1,0,0.2-0.1,0.3-0.1c0.3-0.1,0.6-0.3,0.8-0.4c0.4-0.2,0.8-0.5,1.1-0.8c0.2-0.2,0.5-0.5,0.8-0.7c0.4-0.4,0.6-0.7,0.9-1.1
				c0.1-0.2,0.2-0.3,0.3-0.4c0.2-0.2,0.4-0.4,0.7-0.6c0.1-0.1,0.2-0.2,0.3-0.2c0,0,0,0,0,0c0,0,0,0,0,0c0,0,0.1,0,0.1,0
				c0,0,0-0.1,0.1-0.1c0.1-0.1,0.1-0.2,0.1-0.3c0.2-0.4,0.3-0.6,1.2-1.4c0.2-0.2,0.5-0.4,0.7-0.6c0-0.1-0.1-0.1-0.1-0.2
				c0,0,0-0.1,0-0.1c0.1-0.1,0.2-0.2,0.2-0.3c0.4-0.5,0.7-0.7,1.1-0.9c0.3-0.2,0.6-0.4,1-0.7c0.1,0.1,0.3,0.1,0.4,0
				c0.2-0.1,0.3-0.4,0.4-0.6c0.1-0.2,0.1-0.4,0.2-0.4c0,0,0,0,0.1,0c0.1-0.1,0.2-0.2,0.3-0.3c-0.2,1.5,0.2,2.7,1.3,3.7
				c0.2,0.2,0.4,0.3,0.5,0.5c0.5,0.5,1.1,0.7,2,0.7c0.1,0,0.2,0,0.2,0c0.3,0,0.6,0,1-0.3c0,0,0,0,0,0c0,0,0,0,0.1,0
				c0.2-0.1,0.4-0.1,0.6-0.2c0.3-0.1,0.5-0.2,0.9-0.3c0.2,0.4,0.5,0.8,0.8,1c0,0,0.1,0.1,0.1,0.2c0.3,0.4,0.6,0.7,1,1
				c0.1,0.1,0.2,0.2,0.3,0.2c0.2,0.1,0.3,0.1,0.5,0.2c0.1,0,0.3,0,0.4,0.1c0.2,0,0.5,0.1,0.7,0c0.2,0,0.4,0,0.7,0.1
				c0.2,0,0.3,0.1,0.5,0.1c0.4,0,0.7,0,1.1-0.2c0.1-0.1,0.3-0.1,0.5-0.2c0.3-0.1,0.5-0.2,0.8-0.4c0,0,0.1,0,0.2,0
				c0.3-0.1,0.6-0.1,0.9-0.5c0,0,0.1-0.1,0.2-0.1c0,0,0.1,0,0.1,0c0.1,0,0.2-0.1,0.2-0.1c0,0.8,0.2,1.9,0.5,3.5
				c0.1,0.4,0.1,0.7,0.2,0.8c0.1,0.7,1.2,2.2,1.7,2.5c0,0,0,0,0,0c0,0,0,0,0.1,0c1.4,0.1,2.5-0.1,3.3-0.3c0.1,0,0.3,0,0.4-0.1
				c-0.3,0.3-1,0.9-1.8,1.6c-0.4,0.4-0.9,0.8-1.3,1.2c-0.4,0.3-1.4,1.3-2.9,2.8c-0.3,0.3-1,0.6-1.4,0.7c-1.2,0.2-2.1,0.2-3.1,0.2
				c-0.1,0-0.2,0-0.4,0c-1.9,0.2-3.6,0.2-5.1-0.1c-0.1,0-0.2,0-0.3,0c-0.4,0-0.8-0.1-1.2-0.1c-0.6,0-1.2,0.6-1.3,1.1
				c-0.2,1.3,0.2,2.8,1.1,4.1c1,1.5,2.4,2.4,3.6,2.5c0.1,0,0.1,0,0.2,0.1c0.4,0.2,0.9,0.3,1.5,0.4c0.3,0,0.5,0,0.8,0
				c1-0.2,1.8-0.4,2.9-0.9c0.3-0.2,0.6-0.4,0.9-0.5c0.2-0.1,0.5-0.2,0.7-0.4c0.6-0.3,1.1-0.6,1.5-1.1c0.4-0.4,0.9-0.8,1.4-1.2
				c0,0,0,0,0.1-0.1c0.8-0.7,1.6-1.3,2.3-2.1c0.2-0.4,0.6-0.6,1-0.6c0.1,0,0.2-0.1,0.3-0.1c0,0,0.1-0.1,0.1-0.1
				c0.1,0,0.9-0.1,1.5-0.1c1.6-0.1,2.7-0.2,3-0.3c0,0,0,0,0.1,0c0.2-0.2,0.5-0.3,0.7-0.4c0.3-0.1,0.7-0.4,1.2-0.8
				c0.3-0.2,0.7-0.5,0.9-0.6c0.6-0.3,0.9-0.4,1.2-0.6c0.2-0.1,0.5-0.3,0.8-0.4c0.4-0.2,0.8-0.4,1-0.6c0.1,0,0.1-0.1,0.2-0.1
				c0.2-0.2,0.5-0.3,0.8-0.4c0.4-0.2,0.7-0.3,1-0.5c0.1-0.1,0.2-0.1,0.3-0.2c0.3-0.3,0.5-0.4,0.8-0.5c0.1,0,0.3-0.1,0.4-0.2
				c0.6-0.2,1-0.4,1.1-0.6c0.1-0.1,0.6-0.4,1.3-0.7c0,0,0.1,0,0.1,0c0.5-0.3,0.5-0.6,0.4-0.9C178.4,36.3,178.4,36.2,178.5,36.1z
				 M124,21.8c-0.1,0.3-0.2,0.7-0.3,1.1c-0.1,0.2-0.1,0.3-0.2,0.5c0,0.1-0.1,0.3-0.2,0.5c0,0,0,0.1,0,0.1c0,0,0,0.1-0.1,0.1
				c-0.2,0.3-0.5,0.6-0.8,0.8c-0.2,0.1-0.3,0.3-0.5,0.4c-0.4,0.3-0.7,0.6-1,0.9c0,0-0.1,0.1-0.1,0.1c-0.2,0.1-0.4,0.3-0.6,0.4
				c-0.2-0.9,0.1-1.8,0.4-2.5c0.1-0.2,0.2-0.3,0.3-0.4c0.2-0.3,0.4-0.6,0.6-0.8c0.1-0.1,0.1-0.1,0.2-0.2c0-0.1,0.1-0.1,0.1-0.2
				c0,0,0,0,0,0c0.2-0.2,0.3-0.4,0.5-0.6c0.3-0.4,0.6-0.8,1.1-1.2c1-1.1,1.4-1.1,1.4-1.1c0,0,0,0,0,0
				C124.8,19.6,124.8,20.3,124,21.8z M138.9,9.7c-0.1,0.3-0.2,0.4-0.3,0.6c-0.8,0.8-1.4,1.5-1.9,2.1c-0.4,0.4-0.8,0.7-1.2,1.1
				c-0.1,0.1-0.3,0.2-0.4,0.3c-0.4,0.3-0.7,0.6-1,1c-0.1,0.2-0.3,0.3-0.4,0.4c-0.6,0.4-0.8,0.5-0.9,0.5c0-0.3,0.6-1.4,0.9-2
				c0.2-0.3,0.3-0.6,0.5-0.9c0.3-0.6,0.6-1.1,1.1-1.7c0.3-0.4,0.6-0.8,0.9-1.3c0.1-0.3,0.4-0.6,0.6-0.9c0.2-0.3,0.3-0.6,0.4-0.9
				c0-0.1,0.1-0.2,0.4-0.3c0.3-0.2,0.7-0.4,0.9-0.8c0.3-0.3,0.6-0.6,0.7-1c0,0,0.1-0.1,0.1-0.2c0,0,0.1-0.1,0.1-0.1
				c0.1-0.1,0.2-0.1,0.3-0.2c0.3-0.2,0.6-0.4,0.8-0.8c0,0,0.1,0,0.1-0.1c0.1,0,0.1,0,0.1-0.1c0.2-0.1,0.3,0,0.3,0c0,0,0.1,0,0.1,0.2
				c0,0.3-0.1,0.5-0.2,0.8c-0.4,1.2-0.9,2.4-1.6,3.3C139.1,9.2,139,9.5,138.9,9.7z M89.5,37.6c0.3-0.1,0.5-0.1,0.9-0.2
				c0.1,0,0.1,0,0.2,0c0.9-0.2,1.9-0.4,2.9-0.7c1.9-0.8,2.5-0.8,2.7-0.8c0,0,0.1,0,0.1,0c0,0.2-0.6,0.9-1.7,2.1c0,0,0,0,0,0
				c-1.2,1.7-2.8,2-3.9,1.7c-0.7-0.2-1.3-0.6-1.4-1.1C89.1,38.2,89.2,37.9,89.5,37.6z M145.5,46.5c0-0.3,0.2-0.6,0.5-0.8
				c0.3,0,0.5,0,0.9,0.1c0.1,0,0.1,0,0.2,0c1,0.1,1.9,0.2,3,0.3c1.3-0.1,2,0,2.4,0c0.3,0,0.4,0.1,0.4,0.1c-0.1,0.2-0.8,0.7-2.1,1.4
				c0,0,0,0,0,0c-1.5,1.2-3.1,1-4.1,0.3C145.9,47.6,145.5,47,145.5,46.5z M129.9,32.6C129.9,32.6,129.9,32.6,129.9,32.6
				C129.9,32.6,129.9,32.6,129.9,32.6C129.9,32.6,129.9,32.6,129.9,32.6z"/>
		</g>
	</g>
</g>
</svg>
