<!-- Generator: Adobe Illustrator 22.1.0, SVG Export Plug-In . SVG Version: 6.00 Build 0)  -->
<svg version="1.1" id="Layer_1" xmlns="http://www.w3.org/2000/svg" xmlns:xlink="http://www.w3.org/1999/xlink" x="0px" y="0px"
	 viewBox="0 0 120 120" style="enable-background:new 0 0 120 120;" xml:space="preserve">
<style type="text/css">
	.st0{fill:#E24329;}
	.st1{fill:#FCA326;}
	.st2{fill:#FC6D26;}
	.st3{fill:#FFFFFF;}
</style>
<g id="XMLID_2979_">
	<g id="XMLID_3020_">
		<g id="XMLID_3060_">
			<path id="XMLID_3061_" class="st0" d="M17.5,30.2l-0.8-0.2l-1,1.5l0.5,0.7l-0.7,1.1L12.3,29l0.8-1.2l5.1,1.3L17.5,30.2z
				 M15.1,30.6l0.7-1l-1.8-0.5L15.1,30.6z"/>
		</g>
		<g id="XMLID_3057_">
			<path id="XMLID_3058_" class="st0" d="M19.1,20.5l0.8-0.9l3.6,3.4l-0.8,0.9L19,23.3l2.3,2.1l-0.8,0.9l-3.6-3.4l0.8-0.9l3.7,0.7
				L19.1,20.5z"/>
		</g>
		<g id="XMLID_3054_">
			<path id="XMLID_3055_" class="st0" d="M23.8,17.4l-0.6-0.7l3.1-2.4l0.6,0.7l-1.1,0.8l2.5,3.2l-0.9,0.7l-2.5-3.2L23.8,17.4z"/>
		</g>
		<g id="XMLID_3051_">
			<path id="XMLID_3052_" class="st0" d="M32.8,10.2l1.1-0.6l2.4,4.3l-1.1,0.6l-1-1.8l-1.7,0.9l1,1.8L32.5,16l-2.4-4.3l1.1-0.6
				l1,1.7l1.7-0.9L32.8,10.2z"/>
		</g>
		<g id="XMLID_3047_">
			<path id="XMLID_3048_" class="st0" d="M40.2,11.5c-0.6-0.3-1.1-0.8-1.3-1.5c-0.2-0.7-0.2-1.3,0.1-2c0.3-0.6,0.8-1,1.5-1.3
				c0.7-0.2,1.3-0.2,1.9,0.1c0.6,0.3,1,0.8,1.3,1.5c0.2,0.7,0.2,1.3-0.1,2c-0.3,0.6-0.8,1-1.5,1.3C41.4,11.8,40.8,11.8,40.2,11.5z
				 M42.5,9.8c0.1-0.3,0.1-0.7,0-1.1c-0.1-0.4-0.4-0.7-0.7-0.9c-0.3-0.2-0.7-0.2-1,0C40.4,8,40.1,8.2,40,8.5c-0.1,0.3-0.1,0.7,0,1.1
				c0.1,0.4,0.4,0.7,0.7,0.9c0.3,0.2,0.7,0.2,1,0C42.1,10.4,42.3,10.1,42.5,9.8z"/>
		</g>
		<g id="XMLID_3044_">
			<path id="XMLID_3045_" class="st0" d="M50.4,4.3l1.2-0.2L52.5,9l-1.2,0.2l-2.5-2.7l0.5,3.1l-1.2,0.2l-0.8-4.9l1.2-0.2L51,7.4
				L50.4,4.3z"/>
		</g>
		<g id="XMLID_3041_">
			<path id="XMLID_3042_" class="st0" d="M59,8.6l-1.2,0l0-1.6l-1.8-3.3l1.4,0l1,2.2l0.9-2.2l1.4,0L59,7L59,8.6z"/>
		</g>
		<g id="XMLID_3038_">
			<path id="XMLID_3039_" class="st0" d="M72.2,6.1c-0.1,0-0.3,0-0.4,0c-0.1,0.1-0.2,0.2-0.2,0.3c0,0.1,0,0.3,0,0.4
				c0.1,0.1,0.2,0.2,0.3,0.3c0.1,0.1,0.3,0.2,0.4,0.3c0.2,0.1,0.3,0.2,0.5,0.3c0.2,0.1,0.3,0.2,0.4,0.3c0.1,0.1,0.2,0.3,0.2,0.5
				c0,0.2,0,0.4,0,0.6C73.3,9.5,73,9.8,72.6,10c-0.4,0.2-0.9,0.2-1.4,0.1C70.7,10,70.3,9.8,70,9.4c-0.3-0.3-0.3-0.8-0.2-1.2L71,8.5
				c-0.1,0.4,0.1,0.6,0.4,0.7c0.2,0,0.3,0,0.4,0C72,9.1,72.1,9,72.2,8.9c0-0.1,0-0.3,0-0.4c-0.1-0.1-0.2-0.2-0.3-0.3
				c-0.1-0.1-0.3-0.2-0.4-0.3c-0.2-0.1-0.3-0.2-0.5-0.3c-0.2-0.1-0.3-0.2-0.4-0.3c-0.1-0.1-0.2-0.3-0.2-0.5c0-0.2,0-0.4,0-0.6
				c0.1-0.4,0.4-0.8,0.8-0.9c0.4-0.2,0.9-0.2,1.4-0.1c0.5,0.1,0.9,0.3,1.2,0.7c0.3,0.3,0.3,0.7,0.2,1.2l-1.3-0.3
				c0-0.2,0-0.3-0.1-0.4C72.4,6.3,72.3,6.2,72.2,6.1z"/>
		</g>
		<g id="XMLID_3035_">
			<path id="XMLID_3036_" class="st0" d="M78,8l0.3-0.8L82,8.6l-0.3,0.8l-1.2-0.5l-1.5,3.7l-1.1-0.5l1.5-3.7L78,8z"/>
		</g>
		<g id="XMLID_3032_">
			<path id="XMLID_3033_" class="st0" d="M84.5,13.1l1.5-2.5l1,0.6l-1.5,2.5c-0.2,0.3-0.2,0.5-0.2,0.7c0,0.2,0.2,0.4,0.4,0.5
				c0.2,0.1,0.5,0.2,0.7,0.1c0.2-0.1,0.4-0.2,0.5-0.5l1.5-2.5l1,0.6L88,15.3c-0.2,0.4-0.5,0.6-0.8,0.8c-0.3,0.2-0.7,0.2-1,0.2
				c-0.3,0-0.7-0.2-1-0.3c-0.5-0.3-0.8-0.7-1-1.2C84.1,14.2,84.1,13.7,84.5,13.1z"/>
		</g>
		<g id="XMLID_3028_">
			<path id="XMLID_3029_" class="st0" d="M94.8,16.7c0.6,0.5,0.9,1.1,1,1.8c0.1,0.7-0.1,1.3-0.6,1.8c-0.5,0.6-1.1,0.8-1.7,0.9
				c-0.7,0-1.3-0.2-1.9-0.7l-1.3-1.1l3.2-3.8L94.8,16.7z M91.8,19.4l0.4,0.3c0.3,0.3,0.7,0.4,1.1,0.4c0.4,0,0.7-0.2,1-0.6
				c0.3-0.4,0.5-0.7,0.4-1.1c0-0.4-0.2-0.7-0.6-1l-0.4-0.3L91.8,19.4z"/>
		</g>
		<g id="XMLID_3025_">
			<path id="XMLID_3026_" class="st0" d="M96.3,25l3.7-3.3l0.8,0.9l-3.7,3.3L96.3,25z"/>
		</g>
		<g id="XMLID_3021_">
			<path id="XMLID_3022_" class="st0" d="M100.5,29c0.1-0.7,0.5-1.2,1.1-1.6c0.6-0.4,1.2-0.5,1.9-0.4c0.7,0.1,1.2,0.5,1.6,1.1
				c0.4,0.6,0.5,1.2,0.4,1.9c-0.1,0.7-0.5,1.2-1.1,1.6c-0.6,0.4-1.2,0.5-1.9,0.4c-0.7-0.1-1.2-0.5-1.6-1.1
				C100.6,30.3,100.4,29.7,100.5,29z M102.7,30.9c0.3,0.1,0.7,0,1.1-0.3c0.4-0.2,0.6-0.5,0.7-0.9c0.1-0.3,0-0.7-0.2-1
				c-0.2-0.3-0.5-0.5-0.9-0.6c-0.3-0.1-0.7,0-1.1,0.3c-0.4,0.2-0.6,0.5-0.7,0.9c-0.1,0.3,0,0.7,0.2,1
				C102.1,30.6,102.4,30.8,102.7,30.9z"/>
		</g>
	</g>
	<g id="XMLID_2989_">
		<g id="XMLID_3017_">
			<path id="XMLID_3018_" class="st1" d="M29.2,101.8c-0.1-0.1-0.2-0.1-0.4-0.1c-0.1,0-0.2,0.1-0.3,0.2c-0.1,0.1-0.1,0.2-0.1,0.4
				c0,0.1,0.1,0.3,0.2,0.4c0.1,0.1,0.2,0.3,0.3,0.4c0.1,0.1,0.2,0.3,0.3,0.4c0.1,0.2,0.2,0.3,0.3,0.5c0.1,0.2,0.1,0.3,0.1,0.5
				c0,0.2-0.1,0.4-0.2,0.6c-0.2,0.3-0.6,0.5-1,0.6c-0.4,0-0.9-0.1-1.4-0.4c-0.5-0.3-0.7-0.7-0.9-1.1c-0.1-0.4,0-0.8,0.2-1.2l1,0.7
				c-0.2,0.3-0.1,0.6,0.2,0.8c0.1,0.1,0.3,0.1,0.4,0.1c0.1,0,0.2-0.1,0.3-0.2c0.1-0.1,0.1-0.2,0.1-0.4c0-0.1-0.1-0.2-0.2-0.4
				c-0.1-0.1-0.2-0.3-0.3-0.4s-0.2-0.3-0.3-0.4c-0.1-0.2-0.2-0.3-0.3-0.5c-0.1-0.2-0.1-0.3-0.1-0.5c0-0.2,0.1-0.4,0.2-0.6
				c0.3-0.4,0.6-0.6,1.1-0.6c0.4,0,0.9,0.1,1.3,0.4c0.4,0.3,0.7,0.7,0.8,1c0.1,0.4,0.1,0.8-0.2,1.2l-1.1-0.8
				c0.1-0.2,0.1-0.3,0.1-0.4C29.4,102,29.3,101.9,29.2,101.8z"/>
		</g>
		<g id="XMLID_3014_">
			<path id="XMLID_3015_" class="st1" d="M32.4,108.6l2.3-4.4l1.1,0.6l-2.3,4.4L32.4,108.6z"/>
		</g>
		<g id="XMLID_3011_">
			<path id="XMLID_3012_" class="st1" d="M42.4,107.6l1.1,0.4l-1.7,4.7l-1.1-0.4l-0.8-3.6l-1.1,2.9l-1.1-0.4l1.7-4.7l1.1,0.4
				l0.8,3.6L42.4,107.6z"/>
		</g>
		<g id="XMLID_3008_">
			<path id="XMLID_3009_" class="st1" d="M47.1,113.3c-0.4-0.6-0.5-1.2-0.4-1.9c0.1-0.7,0.5-1.3,1.1-1.6c0.6-0.4,1.2-0.5,1.9-0.4
				c0.5,0.1,1,0.3,1.4,0.7c0.4,0.4,0.6,0.8,0.7,1.4l-1.4-0.3c-0.1-0.4-0.4-0.6-0.8-0.7c-0.4-0.1-0.7,0-1,0.2c-0.3,0.2-0.5,0.5-0.5,1
				c-0.1,0.4,0,0.8,0.2,1.1c0.2,0.3,0.5,0.5,0.9,0.6c0.4,0.1,0.7,0,1-0.4l1.4,0.3c-0.3,0.5-0.6,0.8-1.1,1c-0.5,0.2-1,0.3-1.5,0.2
				C48,114.2,47.4,113.9,47.1,113.3z"/>
		</g>
		<g id="XMLID_3005_">
			<path id="XMLID_3006_" class="st1" d="M58.6,110.3l0,0.9l-1.8-0.1l0,1.1l1.6,0.1l0,0.9l-1.6-0.1l0,1.1l1.8,0.1l0,0.9l-3-0.1
				l0.2-5L58.6,110.3z"/>
		</g>
		<g id="XMLID_3002_">
			<path id="XMLID_3003_" class="st1" d="M68.5,114.4l-0.2-0.9c0.1-0.1,0.2-0.3,0.4-0.6c0.2-0.2,0.3-0.4,0.4-0.6
				c0.1-0.1,0.2-0.3,0.4-0.5c0.1-0.2,0.2-0.4,0.3-0.5c0.2-0.3,0.2-0.6,0.2-0.8c-0.1-0.4-0.3-0.6-0.6-0.5c-0.2,0-0.3,0.1-0.4,0.3
				c-0.1,0.1-0.1,0.3,0,0.5l-1.1,0.2c-0.1-0.6,0-1,0.2-1.3c0.3-0.3,0.7-0.6,1.2-0.7c0.5-0.1,1,0,1.3,0.2c0.4,0.2,0.6,0.6,0.7,1
				c0.1,0.3,0.1,0.6,0,0.9c-0.1,0.2-0.1,0.3-0.1,0.4c0,0.1-0.1,0.2-0.2,0.4c-0.1,0.2-0.2,0.3-0.2,0.4c-0.1,0.1-0.1,0.2-0.3,0.4
				c-0.1,0.2-0.2,0.3-0.3,0.4l1.8-0.4l0.2,1L68.5,114.4z"/>
		</g>
		<g id="XMLID_2998_">
			<path id="XMLID_2999_" class="st1" d="M75.4,107.7c0.2-0.2,0.5-0.4,0.8-0.5c0.3-0.1,0.6-0.2,0.9-0.1c0.3,0,0.5,0.1,0.8,0.3
				c0.2,0.2,0.4,0.4,0.6,0.6c0.2,0.3,0.3,0.6,0.4,0.9c0.1,0.4,0.2,0.7,0.2,1c0,0.3,0,0.6,0,0.9c-0.1,0.3-0.2,0.5-0.4,0.7
				c-0.2,0.2-0.5,0.4-0.8,0.5c-0.3,0.1-0.6,0.2-0.9,0.1c-0.3,0-0.5-0.1-0.8-0.3c-0.2-0.2-0.4-0.4-0.6-0.6c-0.2-0.3-0.3-0.6-0.4-0.9
				c-0.1-0.4-0.2-0.7-0.2-1c0-0.3,0-0.6,0-0.9C75,108.1,75.2,107.9,75.4,107.7z M76.9,108.2c-0.1,0-0.2,0-0.4,0
				c-0.1,0-0.2,0.1-0.3,0.2c-0.1,0.1-0.1,0.2-0.2,0.3c0,0.1,0,0.2,0,0.3c0,0.1,0,0.3,0.1,0.4c0,0.1,0.1,0.3,0.1,0.4
				c0.1,0.2,0.1,0.3,0.2,0.4c0,0.1,0.1,0.2,0.2,0.3c0.1,0.1,0.2,0.2,0.2,0.3c0.1,0.1,0.2,0.1,0.3,0.1c0.1,0,0.2,0,0.4,0
				c0.1,0,0.2-0.1,0.3-0.2c0.1-0.1,0.1-0.2,0.2-0.3c0-0.1,0-0.2,0-0.3c0-0.1,0-0.3-0.1-0.4c0-0.1-0.1-0.3-0.1-0.4
				c-0.1-0.2-0.1-0.3-0.2-0.4c-0.1-0.1-0.1-0.2-0.2-0.3c-0.1-0.1-0.2-0.2-0.2-0.3C77.1,108.3,77,108.2,76.9,108.2z"/>
		</g>
		<g id="XMLID_2995_">
			<path id="XMLID_2996_" class="st1" d="M84.3,109.2l-1.8-3.4l-0.8,0.4l-0.5-1l1.9-1l2.3,4.4L84.3,109.2z"/>
		</g>
		<g id="XMLID_2990_">
			<path id="XMLID_2991_" class="st1" d="M87.4,103c-0.2-0.3-0.3-0.7-0.2-1.1c0.1-0.4,0.4-0.8,0.8-1.1c0.5-0.3,0.9-0.5,1.3-0.4
				c0.4,0.1,0.7,0.2,0.9,0.6c0.3,0.4,0.3,0.8,0.1,1.3c0.6-0.1,1,0.1,1.4,0.6c0.3,0.4,0.4,0.8,0.2,1.3c-0.1,0.4-0.4,0.8-0.9,1.1
				c-0.4,0.3-0.9,0.4-1.4,0.4c-0.5,0-0.8-0.3-1.1-0.7c-0.3-0.5-0.4-1-0.1-1.5C88,103.6,87.6,103.4,87.4,103z M89.4,101.8
				c-0.1-0.2-0.2-0.2-0.4-0.3c-0.2,0-0.3,0-0.4,0.1c-0.1,0.1-0.2,0.2-0.3,0.4c0,0.2,0,0.3,0.1,0.5c0.1,0.2,0.2,0.2,0.4,0.3
				c0.2,0,0.3,0,0.4-0.1c0.1-0.1,0.2-0.2,0.3-0.4C89.6,102.1,89.5,102,89.4,101.8z M90.7,103.5c-0.1-0.2-0.3-0.3-0.4-0.3
				c-0.2,0-0.3,0-0.5,0.1c-0.2,0.1-0.3,0.3-0.3,0.5c0,0.2,0,0.3,0.1,0.5c0.1,0.2,0.3,0.3,0.5,0.3c0.2,0,0.4,0,0.6-0.1
				c0.2-0.1,0.3-0.3,0.3-0.5C90.9,103.8,90.8,103.7,90.7,103.5z"/>
		</g>
	</g>
	<g id="XMLID_2985_">
		<path id="XMLID_2986_" class="st2" d="M89.4,34.1c-0.3-0.5-0.6-1-0.9-1.5c-0.8-0.4-1.7-1.3-2.7-2.2c-1-0.9-1.9-1.8-2.7-2.3
			c0.5,0-0.4-1-1.2-1.8l0.2,0.5c-1.6-1.5-3.6-3-5.7-4.2c-2.1-1.2-4.3-2.2-6.3-2.9c-0.5-0.2-0.9-0.5-1.1-0.7c-0.7-0.2-1.3-0.3-2-0.5
			l-1-0.2l-1-0.1c0.2-0.2-0.6-0.5-1.2-0.7c-0.6-0.2-1.1-0.3,0-0.3c-1.6,0-3.2-0.1-4.8-0.1c-0.8,0-1.6,0-2.4,0.1
			c-0.8,0.1-1.5,0.2-2.3,0.4c-2.7,0.3-5.4,0.9-8,1.8c-2.6,0.9-5.1,2.2-7.4,3.7c-4.6,3-8.3,7-11,11.3l0.3-0.1c-1.9,3-2.6,6-4.6,9.7
			c-0.3,1.4-0.6,2.9-0.8,4.4c-1.4,4.2-2.1,8.6-2.1,12.8c0,3.2,0.5,6.4,1.3,9.5c-0.3,0.3-0.4-1.3-0.8-1.4c-0.2,0.5,0,1.4,0.3,2l0-0.2
			c0.3,0.6,0.7,1.8,0.7,2.6c-0.3-0.1-0.3,0.3-0.5-0.2l0.3,0.9c0.1,0.1,0.2,0.2,0.2-0.1c0.3,0.3,0.4,0.8,0.4,1.1
			c-0.1,0.1,0.6,1.1,1.3,2c0.8,0.9,1.5,1.8,1.4,1.8c0.2,0.3,0.2,0.5,0.2,0.6c-0.3-0.5-0.8-1.1-1.3-1.8c-0.9-1.2-1.6-2.4-1.4-2
			c0,0.2,0.3,0.6,0.6,1.2c0.4,0.6,1,1.4,1.5,2.1c0.6,0.7,1.2,1.4,1.6,2c0.5,0.5,0.7,0.9,0.7,1.1c0.3,0.4,0.7,0.8,0.8,0.6
			c0.4,0.7-0.5,0.1-0.3,0.6c0,0,0.1-0.1,0.2,0l0.1,0.6c1.1,0.8,1.9,2.5,3.3,3.1c-0.5-0.1-1.1-0.1-1.9-0.6l0-0.2
			c-0.1,0-0.7-0.5-0.9-0.4c0.4,0.7,1,1.2,1.7,1.7c0.1,0.2,0.2,0.3,0.2,0.5c0,0,0,0,0.1-0.1c0.1,0.3,0.1,0.3-0.1,0.3c0,0,0,0-0.1,0
			c-0.1,0.4,0.6,0.9,1.4,1.5c0.9,0.5,1.8,1.1,2.3,1.7c0.4,0.2,0.1-0.1,0.7,0.2c0.6,0.6,1,1.1,1.6,1.5c0.5,0.4,1,0.9,1.8,1.4
			c0.6,0,0.7-0.1,0.3-0.6l1.1,0.7c-0.7,0.1-0.3,0.5,0.1,0.9c0.4,0.4,0.9,0.8,0.1,0.9c0.3,0.3,1,0.7,1.7,0.8c0.2-0.2,0.4-0.3,1.3,0
			c1.1,0.7,0.9,0.5,1.8,1c0.2,0.3-0.3,0.3-0.3,0.5c1.7,0.2,1.2,0.9,2.8,1.3c1,0.1,3,0.5,3.2,0.1c1.3,0.2,1.3,0.5,1.1,0.8l1.1,0.2
			c-3.6-0.4-7.4-1.4-10.7-2.9c3.4,2.1,7.8,3.8,12.2,4.2c4.4,0.5,8.7-0.4,11.6-2.5c0.5,0.8,2.8,0.9,5,0.5c2.2-0.3,4.3-1.1,4.3-1.3
			c0.8-0.4,1.5-1,2.3-1.5c0.4-0.3,0.8-0.5,1.1-0.8l1.1-0.8c4.6-3.4,8.6-7.4,12-12c3.3-4.6,6-9.8,7.5-15.4c0.4-1.6,0.9-3.8,1.1-6.4
			c0.2-2.6,0.2-5.6-0.2-8.5c-0.7-5.8-2.6-11.4-3.9-14.3c-0.4-0.9-0.7-1.7-1.2-2.5C95,39,95,39,95.6,40.4c-2.2-3.3-4.4-6-6.8-8.5
			C88.9,32.6,88.8,32.8,89.4,34.1z M22,71.3c0,0.2,0.1,0.3,0.2,0.5c-0.1,0.1-0.3,0.1-0.5,0C21.5,71,21.9,71.3,22,71.3z"/>
	</g>
	<g id="XMLID_2980_">
		<g id="XMLID_2981_">
			<path id="XMLID_2982_" class="st3" d="M58.6,34.7h0.3c16.6,38.2,17.8,40.3,17.8,40.3c2.4,5.3,4.6,5.3,5.9,5.5v0.5h-23v-0.5
				c5.3,0,1.3-7.7,1.3-7.7l-2.1-4.5H45.9c-1.3,3-0.1,12.2,7.8,12.2v0.5h-19v-0.5c2-0.1,5.5-0.7,10.6-12.2L58.6,34.7z M52,52.9
				l-5.9,14.8h12.4L52,52.9z"/>
		</g>
	</g>
</g>
</svg>
