<!-- Generator: Adobe Illustrator 22.1.0, SVG Export Plug-In . SVG Version: 6.00 Build 0)  -->
<svg version="1.1" id="Layer_1" xmlns="http://www.w3.org/2000/svg" xmlns:xlink="http://www.w3.org/1999/xlink" x="0px" y="0px"
	 viewBox="0 0 200.4 66.5" style="enable-background:new 0 0 200.4 66.5;" xml:space="preserve">
<style type="text/css">
	.st0{fill:#8C98A4;}
</style>
<g id="XMLID_3827_">
	<g id="XMLID_3869_">
		<g id="XMLID_3890_">
			<path id="XMLID_3891_" class="st0" d="M14.7,17.1v4.1c1.8-2.9,4.6-4.4,8.5-4.4c3.2,0,5.8,1.1,7.8,3.2c2,2.1,3,5.1,3,8.7v16.4
				h-8.5V29.9c0-1.8-0.5-3.2-1.4-4.2c-1-1-2.3-1.5-3.9-1.5c-1.7,0-3,0.5-3.9,1.5c-1,1-1.4,2.4-1.4,4.2v15.2H6.1v-28H14.7z"/>
		</g>
		<g id="XMLID_3886_">
			<path id="XMLID_3887_" class="st0" d="M42.4,41.5c-2.5-2.7-3.7-6.1-3.7-10.3c0-4.2,1.2-7.6,3.7-10.3c2.5-2.7,5.5-4,9.1-4
				c3.6,0,6.3,1.3,8.2,4v-3.7h8.6v28h-8.6v-4.1c-2.1,2.9-4.9,4.4-8.3,4.4C47.9,45.5,44.9,44.2,42.4,41.5z M57.8,36.3
				c1.2-1.2,1.9-2.9,1.9-5.1s-0.6-3.9-1.9-5.1c-1.2-1.2-2.7-1.8-4.3-1.8c-1.6,0-3,0.6-4.3,1.8c-1.2,1.2-1.9,2.9-1.9,5.1
				c0,2.2,0.6,3.9,1.9,5.1c1.2,1.2,2.7,1.8,4.3,1.8C55.2,38.1,56.6,37.5,57.8,36.3z"/>
		</g>
		<g id="XMLID_3883_">
			<path id="XMLID_3884_" class="st0" d="M87.2,37.9h3.1v7.3h-4.4c-3.1,0-5.6-0.7-7.3-2.1c-1.7-1.4-2.6-3.8-2.6-7.2V24.3h-2.6v-7.1
				H76v-6.8h8.6v6.8h5.6v7.1h-5.6v11.7C84.6,37.2,85.5,37.9,87.2,37.9z"/>
		</g>
		<g id="XMLID_3880_">
			<path id="XMLID_3881_" class="st0" d="M114.7,17.1h8.6v28h-8.6V41c-1.8,2.9-4.6,4.4-8.5,4.4c-3.2,0-5.8-1.1-7.8-3.2
				c-2-2.1-3-5.1-3-8.7V17.1h8.5v15.2c0,1.8,0.5,3.2,1.4,4.2c1,1,2.3,1.5,3.9,1.5c1.7,0,3-0.5,3.9-1.5c1-1,1.4-2.4,1.4-4.2V17.1z"/>
		</g>
		<g id="XMLID_3877_">
			<path id="XMLID_3878_" class="st0" d="M138.9,17.1v5.2c2-3.7,4.7-5.5,8-5.5v8.7h-2.1c-2,0-3.5,0.5-4.4,1.4
				c-1,0.9-1.5,2.6-1.5,4.9v13.3h-8.6v-28H138.9z"/>
		</g>
		<g id="XMLID_3873_">
			<path id="XMLID_3874_" class="st0" d="M152.8,41.5c-2.5-2.7-3.7-6.1-3.7-10.3c0-4.2,1.2-7.6,3.7-10.3c2.5-2.7,5.5-4,9.1-4
				c3.6,0,6.3,1.3,8.2,4v-3.7h8.6v28h-8.6v-4.1c-2.1,2.9-4.9,4.4-8.3,4.4C158.3,45.5,155.3,44.2,152.8,41.5z M168.2,36.3
				c1.2-1.2,1.9-2.9,1.9-5.1s-0.6-3.9-1.9-5.1c-1.2-1.2-2.7-1.8-4.3-1.8c-1.6,0-3,0.6-4.3,1.8c-1.2,1.2-1.9,2.9-1.9,5.1
				c0,2.2,0.6,3.9,1.9,5.1c1.2,1.2,2.7,1.8,4.3,1.8C165.6,38.1,167,37.5,168.2,36.3z"/>
		</g>
		<g id="XMLID_3870_">
			<path id="XMLID_3871_" class="st0" d="M185.7,45.2V8h8.6v37.2H185.7z"/>
		</g>
	</g>
	<g id="XMLID_3828_">
		<g id="XMLID_3866_">
			<path id="XMLID_3867_" class="st0" d="M15.4,50.1v8.4H14v-5.8l-2.6,5.8h-1l-2.6-5.8v5.8H6.5v-8.4H8l3,6.6l2.9-6.6H15.4z"/>
		</g>
		<g id="XMLID_3863_">
			<path id="XMLID_3864_" class="st0" d="M24.9,58.5v-8.4h1.4v8.4H24.9z"/>
		</g>
		<g id="XMLID_3860_">
			<path id="XMLID_3861_" class="st0" d="M41.5,50.1h1.4v8.4h-1.4l-4.2-6.3v6.3h-1.4v-8.4h1.4l4.2,6.3V50.1z"/>
		</g>
		<g id="XMLID_3857_">
			<path id="XMLID_3858_" class="st0" d="M57.1,50.1v1.1h-3.3v2.6h2.9v1.1h-2.9v2.7h3.3v1.1h-4.7v-8.4H57.1z"/>
		</g>
		<g id="XMLID_3853_">
			<path id="XMLID_3854_" class="st0" d="M67.9,55.1v3.4h-1.4v-8.4h2.9c1,0,1.7,0.2,2.2,0.7c0.5,0.5,0.8,1.1,0.8,1.8
				c0,0.6-0.2,1.1-0.5,1.5c-0.3,0.5-0.9,0.7-1.6,0.9l2.2,3.5h-1.7l-2.1-3.4H67.9z M67.9,51.2V54h1.5c0.5,0,0.9-0.1,1.2-0.4
				c0.3-0.3,0.4-0.6,0.4-1c0-0.4-0.1-0.8-0.4-1c-0.3-0.3-0.7-0.4-1.2-0.4H67.9z"/>
		</g>
		<g id="XMLID_3849_">
			<path id="XMLID_3850_" class="st0" d="M87.7,58.5l-0.6-1.7h-3.5l-0.6,1.7h-1.4l3-8.4h1.6l3,8.4H87.7z M83.9,55.7h2.8l-1.4-4
				L83.9,55.7z"/>
		</g>
		<g id="XMLID_3846_">
			<path id="XMLID_3847_" class="st0" d="M98.2,50.1h1.4v7.4h2.9v1.1h-4.2V50.1z"/>
		</g>
		<g id="XMLID_3843_">
			<path id="XMLID_3844_" class="st0" d="M132.2,50.1h1.5l-2.5,8.4h-1.6l-1.8-6.4l-1.9,6.4l-1.6,0l-2.4-8.4h1.5l1.7,6.9l1.9-6.9h1.6
				l1.8,6.8L132.2,50.1z"/>
		</g>
		<g id="XMLID_3839_">
			<path id="XMLID_3840_" class="st0" d="M148.3,58.5l-0.6-1.7h-3.5l-0.6,1.7h-1.4l3-8.4h1.6l3,8.4H148.3z M144.6,55.7h2.8l-1.4-4
				L144.6,55.7z"/>
		</g>
		<g id="XMLID_3836_">
			<path id="XMLID_3837_" class="st0" d="M158.4,51.2v-1.1h5.9v1.1h-2.2v7.4h-1.4v-7.4H158.4z"/>
		</g>
		<g id="XMLID_3833_">
			<path id="XMLID_3834_" class="st0" d="M178.1,50.1v1.1h-3.3v2.6h2.9v1.1h-2.9v2.7h3.3v1.1h-4.7v-8.4H178.1z"/>
		</g>
		<g id="XMLID_3829_">
			<path id="XMLID_3830_" class="st0" d="M189,55.1v3.4h-1.4v-8.4h2.9c1,0,1.7,0.2,2.2,0.7c0.5,0.5,0.8,1.1,0.8,1.8
				c0,0.6-0.2,1.1-0.5,1.5c-0.3,0.5-0.9,0.7-1.6,0.9l2.2,3.5h-1.7l-2.1-3.4H189z M189,51.2V54h1.5c0.5,0,0.9-0.1,1.2-0.4
				c0.3-0.3,0.4-0.6,0.4-1c0-0.4-0.1-0.8-0.4-1c-0.3-0.3-0.7-0.4-1.2-0.4H189z"/>
		</g>
	</g>
</g>
</svg>
