<!-- Generator: Adobe Illustrator 22.1.0, SVG Export Plug-In . SVG Version: 6.00 Build 0)  -->
<svg version="1.1" id="Layer_1" xmlns="http://www.w3.org/2000/svg" xmlns:xlink="http://www.w3.org/1999/xlink" x="0px" y="0px"
	 viewBox="0 0 120 120" style="enable-background:new 0 0 120 120;" xml:space="preserve">
<style type="text/css">
	.st0{fill:#2684FF;}
</style>
<g id="XMLID_970_">
	<g id="XMLID_1097_">
		<path id="XMLID_1098_" class="st0" d="M40.4,109c0.6,0.2,1.1,0.5,1.7,0.7c1.1,0.5,1.9,0.7,2.4,0.8c0.5,0.1,0.9,0.1,1.2,0.1
			c0.3,0,0.7,0,1.2,0.1c0.3,0,0.6,0.1,1,0.2c0.4,0.1,0.9,0.2,1.5,0.3c4.7,1,9.6,1.4,14.4,1c4.8-0.4,9.6-1.4,14-3.1
			c8.9-3.4,16.6-9.3,22.4-16.5c5.8-7.2,9.8-15.8,11.4-25c0.8-4.6,1-9.4,0.4-14.1c-0.5-4.7-1.7-9.3-3.6-13.6
			c1.6,4.4,2.3,8.5,2.7,12.6c0.4,4.1,0.3,8.1-0.1,12.7c-0.3,0-0.9-0.1-1.2,2.1c-0.7,3.3-1.6,6.7-2.9,10c-1.3,3.2-2.8,6.3-4.5,9
			c-3.4,5.5-7.5,9.4-10.4,11.2c-0.5,0.3-0.9,0.6-1.5,0.9c-0.6,0.3-1.2,0.6-1.9,1c-0.7,0.4-1.6,0.9-2.6,1.4c-1,0.6-2.2,1.2-3.6,2.1
			c0.9-0.6,1.9-1.1,2.8-1.7c0.9-0.6,1.8-1.2,2.7-1.9c-0.2-0.2-0.5-0.7-0.5-0.7c-3.5,2.5-7.8,4.7-12.5,6.1c-4.6,1.4-9.5,2-13.7,1.9
			c0,0,0-0.6,0-0.9l-1,0c-0.3,0-0.7,0-1-0.1l-2.1-0.1c-1-0.6-0.3-0.9,1.4-1c0.4,0,0.9-0.1,1.4-0.1c0.5,0,1.1-0.1,1.8-0.1
			c1.3-0.1,2.7-0.3,4.3-0.5c3.1-0.5,6.5-1.4,9.7-2.7c0.8-0.3,1.6-0.6,2.3-1c0.7-0.4,1.4-0.7,2.1-1.1c1.3-0.8,2.5-1.5,3.5-2.3
			c-0.2-0.2-0.5-0.7-0.6-1c-1,0.8-2.2,1.4-3.3,2l0-0.1c18.1-9.9,28.6-33.4,20.2-54.4c-1-2.5-2.3-5-3.9-7.2c0.1,0.1,0.2,0.3,0.4,0.4
			c0.6,0.6,1.1,1.3,1.7,1.9c0.5,0.7,1,1.3,1.4,1.8c0.8,1.2,1.5,2.1,1.8,2.5c0.7,1.3,1.1,1.1,1.3,0c0.1-0.5,0-1.3,0-2.3
			c-0.1-1-0.3-2.2-0.6-3.4c-0.1-0.6-0.4-1.3-0.6-2c-0.2-0.7-0.5-1.4-0.8-2.1c-0.6-1.4-1.2-2.8-2-4.1c-0.7-1.4-1.6-2.6-2.4-3.7
			c-0.9-1.1-1.7-2.1-2.5-2.9c-1.6-1.7-1.4-2-0.7-1.9c0.7,0.1,1.9,0.5,2.2,0.1c-1.9-1.4-3.3-2.6-4.6-3.7c-0.7-0.5-1.4-1.1-2.2-1.6
			c-0.8-0.5-1.8-1-2.8-1.5c0-0.1-0.7-0.5-2-1.2c-0.7-0.3-1.4-0.7-2.3-1.1c-0.9-0.4-1.9-0.8-3-1.2C73.6,8.6,68,7.7,64.4,7.7
			c0,0-0.6,0-2.1,0.1c-1.5,0.1-3.9,0.2-7.5,0.8c-2.4,0.4-2.3,0.7-2.2,1c-0.1-0.3-0.1-0.3-0.1-0.6c-1.1,0.5-2.8,0.9-4.6,1.4
			c-1.7,0.5-3.4,1-4.5,1.6c-0.1-0.3-0.1-0.3-0.2-0.5c-4.2,2.4-8.7,4.3-12.3,7.5c-0.2-0.2-0.2-0.2-0.4-0.5c-0.9,0.8-1.9,1.5-2.6,2.1
			c-0.7,0.6-1.2,0.9-1.3,0.8c-0.2-0.2-0.2-0.2-0.4-0.4c-2.1,1.4-4.8,5.5-5.2,5.1c0.2,0.2,0.2,0.2,0.4,0.4c-3.1,3.7-5.3,7.3-7.2,10.8
			c-0.4,0.9-0.9,1.7-1.3,2.6c-0.4,0.9-0.8,1.7-1.1,2.6c-0.2,0.4-0.4,0.9-0.5,1.3c-0.2,0.4-0.3,0.9-0.5,1.3c-0.3,0.9-0.6,1.7-0.9,2.6
			c-1.5,4.7-2.4,10-2.3,15.7c0.1,5.6,1.3,11.4,3.5,16.8c4.3,10.8,12.1,20,21.6,25.9c2.1,1.3,4.5,2.1,2.7,0.3c1,0.7,2.1,1.2,3.2,1.8
			L40.4,109z"/>
	</g>
</g>
</svg>
