<!-- Generator: Adobe Illustrator 22.1.0, SVG Export Plug-In . SVG Version: 6.00 Build 0)  -->
<svg version="1.1" id="Layer_1" xmlns="http://www.w3.org/2000/svg" xmlns:xlink="http://www.w3.org/1999/xlink" x="0px" y="0px"
	 viewBox="0 0 200.4 66.5" style="enable-background:new 0 0 200.4 66.5;" xml:space="preserve">
<style type="text/css">
	.st0{fill:#8C98A4;}
</style>
<g id="XMLID_3232_">
	<g id="XMLID_3263_">
		<g id="XMLID_3278_">
			<path id="XMLID_3279_" class="st0" d="M8,42.7V17.5c0-4,0.3-5.8-2.6-5.8V11h18.9v0.6c-2.8,0-2.7,1.1-2.7,5.8v25.7
				c0,7.8,4.1,11.1,10.4,11.1c7.1,0,10.7-4.9,10.7-11.1V25.9c0-5.4-1.7-14.3-8-14.3V11H52l0.1,0.6c-7.4,0-8.8,8.9-8.8,14.3v17.2
				c0,8.7-5.8,15.1-17.5,15.1C16.8,58.2,8,53.5,8,42.7z"/>
		</g>
		<g id="XMLID_3275_">
			<path id="XMLID_3276_" class="st0" d="M81.8,36.7c-2.3,2.6-6.1,2.8-8.7,0.7c-1.3-1.2-2.1-2.6-2.1-4.1c0-0.9-2.1-0.4-4.8,3.7v13.2
				c0,3.6,0.3,6.3,2.7,6.9v0.5H52.3v-0.5c2.5-0.7,2.6-3.6,2.6-6.9V34c0-2.3-0.8-3.2-3.5-4.2v-0.5l14.8-2.8v9.3
				c4.7-7.1,6.7-7.9,8.7-8.8c1.9-0.9,4.6-0.5,6.4,1.1C83.7,30.2,84,34.2,81.8,36.7z"/>
		</g>
		<g id="XMLID_3271_">
			<path id="XMLID_3272_" class="st0" d="M122.4,41.8c0,13.1-8.7,16.4-17.2,16.4c-5.2,0-8.3-1.3-10.1-2.9c-2.1,1.4-9.2,3-9.2,2V15.8
				c0-2.3-0.7-3.2-3.4-4.2V11l14.6-2.8v23.2c1.9-3.3,5.2-5,11.4-5C117.6,26.5,122.4,33.6,122.4,41.8z M109.1,42.7
				c0-7.7-1.9-14.3-6.6-14.3c-4.4,0-5.4,5.4-5.4,10.5v7c0,7.5,1.5,11.6,5.5,11.6C106.3,57.6,109.1,53.3,109.1,42.7z"/>
		</g>
		<g id="XMLID_3267_">
			<path id="XMLID_3268_" class="st0" d="M159.1,53.4c-0.9,2.9-4.4,4.8-8.5,4.8c0,0-7.3,0-7.9-6c-0.9,3.4-4.2,6-8.9,6
				c-2.5,0-8.3-1.1-8.3-6.8c0-6.6,5.4-7.9,17.1-10.7v-4.2c0-6.9-3.9-10.6-8.5-8.2c0,0-1.5,0.9,0.8,1.7c1.1,0.4,1.9,1.3,2.4,2.5
				c1,2.4-0.1,5.1-2.6,6.2c-2.4,0.9-5.1-0.2-6.1-2.6c-0.7-1.7-0.3-3.7,0.8-4.9c0.8-0.9,2-2.1,4.4-3.4c3-1.6,6.2-1.4,6.2-1.4
				c8.7,0,13.5,5.4,13.5,13.2v9.9c0,0,0,4.8,3.2,4.6c0,0,1.7,0,2-1.1L159.1,53.4z M142.5,41.5c-5.4,1.2-5.4,5.2-5.4,8.3
				c0,0-0.1,4.4,2.6,4.4c1.1,0,2.1-0.9,2.8-2.5V41.5z"/>
		</g>
		<g id="XMLID_3264_">
			<path id="XMLID_3265_" class="st0" d="M195,57.1v0.5h-16.5v-0.5c2.5-0.7,2.6-3.6,2.6-7V36.8c0-3.8-1.4-5.6-4.6-5.6
				c-1.5,0-3,1.2-3.9,2.6v16.3c0,3.6,0.3,6.3,2.7,6.9v0.5h-16.5v-0.5c2.5-0.7,2.6-3.5,2.6-6.9V34c0-2.3-0.7-3.2-3.4-4.2v-0.5
				l14.7-2.8v6.4c1.7-3.5,5.2-6.4,8.8-6.4c5.3,0,10.9,2.1,10.9,10.1v13.6C192.3,53.7,192.7,56.5,195,57.1z"/>
		</g>
	</g>
</g>
</svg>
