<!-- Generator: Adobe Illustrator 22.1.0, SVG Export Plug-In . SVG Version: 6.00 Build 0)  -->
<svg version="1.1" id="Layer_1" xmlns="http://www.w3.org/2000/svg" xmlns:xlink="http://www.w3.org/1999/xlink" x="0px" y="0px"
	 viewBox="0 0 200.4 66.5" style="enable-background:new 0 0 200.4 66.5;" xml:space="preserve">
<style type="text/css">
	.st0{fill:#377DFF;}
</style>
<g id="XMLID_3980_">
	<g id="XMLID_4012_">
		<g id="XMLID_4027_">
			<path id="XMLID_4028_" class="st0 fill-primary" d="M34.2,39v12.8h-8V18.9h13c3.8,0,6.8,1,8.9,3s3.2,4.3,3.2,7.1c0,1.9-0.6,3.8-1.7,5.6
				c-1.2,1.8-3.1,3.1-5.7,3.8L52,51.8h-9.4L35.2,39H34.2z M34.2,25v7.9h5c1.2,0,2.2-0.4,2.9-1.1c0.7-0.7,1.1-1.7,1.1-2.8
				c0-1.2-0.4-2.1-1.1-2.9c-0.7-0.8-1.7-1.1-2.9-1.1C39.2,25,34.2,25,34.2,25z"/>
		</g>
		<g id="XMLID_4024_">
			<path id="XMLID_4025_" class="st0 fill-primary" d="M77,18.8v6.1H65.1V32h10.5v6.1H65.1v7.7H77v6.1H57.1v-33L77,18.8L77,18.8z"/>
		</g>
		<g id="XMLID_4021_">
			<path id="XMLID_4022_" class="st0 fill-primary" d="M81.2,25v-6.1h26V25h-9v26.8h-8V25H81.2z"/>
		</g>
		<g id="XMLID_4017_">
			<path id="XMLID_4018_" class="st0 fill-primary" d="M119.5,39v12.8h-8V18.9h13c3.8,0,6.8,1,8.9,3c2.1,2,3.2,4.3,3.2,7.1c0,1.9-0.6,3.8-1.7,5.6
				c-1.2,1.8-3.1,3.1-5.7,3.8l8.1,13.4h-9.4L120.5,39H119.5z M119.5,25v7.9h5c1.2,0,2.2-0.4,2.9-1.1c0.7-0.7,1.1-1.7,1.1-2.8
				c0-1.2-0.4-2.1-1.1-2.9c-0.7-0.8-1.7-1.1-2.9-1.1C124.5,25,119.5,25,119.5,25z"/>
		</g>
		<g id="XMLID_4013_">
			<path id="XMLID_4014_" class="st0 fill-primary" d="M145.4,47.4c-3.3-3.2-4.9-7.2-4.9-12.1s1.6-8.9,4.9-12.1c3.3-3.2,7.3-4.8,12-4.8
				s8.7,1.6,12,4.8c3.2,3.2,4.9,7.2,4.9,12.1s-1.6,8.9-4.9,12.1c-3.3,3.2-7.2,4.8-12,4.8C152.6,52.2,148.6,50.6,145.4,47.4z
				 M163.7,42.2c1.6-1.7,2.4-4,2.4-6.9s-0.8-5.2-2.4-6.9c-1.6-1.7-3.7-2.6-6.3-2.6s-4.8,0.9-6.3,2.6c-1.6,1.7-2.4,4-2.4,6.9
				c0,2.9,0.8,5.2,2.4,6.9c1.6,1.7,3.7,2.6,6.3,2.6C160,44.7,162.1,43.9,163.7,42.2z"/>
		</g>
	</g>
	<g id="XMLID_4002_">
		<g id="XMLID_4009_">
			<path id="XMLID_4010_" class="st0 fill-primary" d="M82,4.1V1.6h10.4V4h-3.6v10.8h-3.2V4.1H82z"/>
		</g>
		<g id="XMLID_4006_">
			<path id="XMLID_4007_" class="st0 fill-primary" d="M102.5,1.6h3.2v13.2h-3.2V9.3h-5.1v5.5h-3.2V1.6h3.2v5.3h5.1V1.6z"/>
		</g>
		<g id="XMLID_4003_">
			<path id="XMLID_4004_" class="st0 fill-primary" d="M116.3,1.6V4h-4.8v2.8h4.2v2.5h-4.2v3.1h4.8v2.4h-8V1.6H116.3z"/>
		</g>
	</g>
	<g id="XMLID_3981_">
		<g id="XMLID_3999_">
			<path id="XMLID_4000_" class="st0 fill-primary" d="M64.5,59c-0.2,0-0.4,0.1-0.5,0.2c-0.1,0.1-0.2,0.3-0.2,0.5s0.1,0.4,0.2,0.5
				c0.1,0.1,0.3,0.2,0.5,0.3s0.4,0.1,0.7,0.2c0.3,0.1,0.5,0.1,0.8,0.2c0.2,0.1,0.5,0.2,0.7,0.3s0.4,0.3,0.5,0.6
				c0.1,0.2,0.2,0.5,0.2,0.9c0,0.6-0.2,1.1-0.7,1.5c-0.5,0.4-1.1,0.6-1.9,0.6c-0.8,0-1.4-0.2-1.9-0.6C62.2,64,62,63.4,62,62.7h1.8
				c0,0.6,0.3,0.8,0.9,0.8c0.2,0,0.4-0.1,0.6-0.2c0.1-0.1,0.2-0.3,0.2-0.5s-0.1-0.4-0.2-0.5S65,62.1,64.8,62s-0.4-0.1-0.7-0.2
				c-0.3-0.1-0.5-0.1-0.8-0.2c-0.2-0.1-0.5-0.2-0.7-0.3s-0.4-0.3-0.5-0.6c-0.1-0.2-0.2-0.5-0.2-0.9c0-0.7,0.2-1.2,0.7-1.6
				c0.5-0.4,1.1-0.6,1.9-0.6s1.4,0.2,1.9,0.5s0.7,0.9,0.7,1.6h-1.9c0-0.3-0.1-0.5-0.2-0.6C64.9,59.1,64.8,59,64.5,59z"/>
		</g>
		<g id="XMLID_3996_">
			<path id="XMLID_3997_" class="st0 fill-primary" d="M74.6,59.1v-1.3h5.6v1.3h-1.9v5.8h-1.7v-5.8C76.6,59.1,74.6,59.1,74.6,59.1z"/>
		</g>
		<g id="XMLID_3993_">
			<path id="XMLID_3994_" class="st0 fill-primary" d="M87.7,62v-4.2h1.7V62c0,0.4,0.1,0.7,0.3,1c0.2,0.2,0.5,0.3,0.9,0.3s0.7-0.1,0.9-0.3
				c0.2-0.2,0.3-0.6,0.3-1v-4.2h1.7V62c0,0.6-0.1,1.2-0.4,1.6c-0.3,0.5-0.7,0.8-1.1,1s-0.9,0.3-1.5,0.3c-0.8,0-1.5-0.3-2.1-0.8
				C87.9,63.7,87.7,62.9,87.7,62z"/>
		</g>
		<g id="XMLID_3989_">
			<path id="XMLID_3990_" class="st0 fill-primary" d="M104,57.8c1.1,0,2.1,0.3,2.8,1c0.7,0.7,1.1,1.5,1.1,2.6c0,1-0.4,1.9-1.1,2.6
				c-0.7,0.7-1.7,1-2.8,1h-2.5v-7.1h2.5V57.8z M103.2,63.6h0.8c0.7,0,1.2-0.2,1.6-0.6c0.4-0.4,0.6-0.9,0.6-1.6
				c0-0.7-0.2-1.2-0.6-1.6c-0.4-0.4-0.9-0.6-1.6-0.6h-0.8V63.6z"/>
		</g>
		<g id="XMLID_3986_">
			<path id="XMLID_3987_" class="st0 fill-primary" d="M115.4,64.9v-7.1h1.7v7.1H115.4z"/>
		</g>
		<g id="XMLID_3982_">
			<path id="XMLID_3983_" class="st0 fill-primary" d="M125.7,63.9c-0.7-0.7-1.1-1.6-1.1-2.6s0.4-1.9,1.1-2.6c0.7-0.7,1.6-1,2.6-1
				c1,0,1.9,0.3,2.6,1c0.7,0.7,1,1.5,1,2.6c0,1-0.3,1.9-1,2.6s-1.6,1-2.6,1S126.4,64.6,125.7,63.9z M129.7,62.8
				c0.3-0.4,0.5-0.9,0.5-1.5s-0.2-1.1-0.5-1.5s-0.8-0.6-1.4-0.6c-0.6,0-1,0.2-1.4,0.6c-0.3,0.4-0.5,0.9-0.5,1.5s0.2,1.1,0.5,1.5
				s0.8,0.6,1.4,0.6C128.9,63.3,129.3,63.2,129.7,62.8z"/>
		</g>
	</g>
</g>
</svg>
