<!-- Generator: Adobe Illustrator 22.1.0, SVG Export Plug-In . SVG Version: 6.00 Build 0)  -->
<svg version="1.1" id="Layer_1" xmlns="http://www.w3.org/2000/svg" xmlns:xlink="http://www.w3.org/1999/xlink" x="0px" y="0px"
	 viewBox="0 0 200.4 66.5" style="enable-background:new 0 0 200.4 66.5;" xml:space="preserve">
<style type="text/css">
	.st0{fill:#8C98A4;}
</style>
<g id="XMLID_2908_">
	<g id="XMLID_2949_">
		<g id="XMLID_2967_">
			<path id="XMLID_2968_" class="st0" d="M73.8,60.3c-0.2,0-0.3,0.1-0.4,0.2c-0.1,0.1-0.2,0.2-0.2,0.4c0,0.2,0,0.3,0.1,0.4
				c0.1,0.1,0.2,0.2,0.4,0.2c0.2,0,0.3,0.1,0.5,0.1c0.2,0,0.4,0.1,0.6,0.1c0.2,0.1,0.4,0.1,0.5,0.2c0.2,0.1,0.3,0.2,0.4,0.4
				c0.1,0.2,0.1,0.4,0.1,0.7c0,0.5-0.2,0.9-0.6,1.2c-0.4,0.4-0.9,0.6-1.5,0.6c-0.6,0-1.1-0.1-1.5-0.3c-0.4-0.3-0.6-0.7-0.6-1.2
				l1.4-0.1c0,0.4,0.3,0.6,0.7,0.6c0.2,0,0.3-0.1,0.5-0.2c0.1-0.1,0.2-0.2,0.2-0.4c0-0.2,0-0.3-0.2-0.4c-0.1-0.1-0.2-0.2-0.4-0.2
				c-0.2,0-0.3-0.1-0.5-0.1c-0.2,0-0.4-0.1-0.6-0.1c-0.2-0.1-0.4-0.1-0.5-0.2c-0.2-0.1-0.3-0.2-0.4-0.4c-0.1-0.2-0.2-0.4-0.2-0.7
				c0-0.5,0.2-0.9,0.6-1.3c0.4-0.3,0.9-0.5,1.5-0.6c0.6,0,1.1,0.1,1.4,0.3c0.4,0.2,0.6,0.7,0.6,1.2l-1.5,0.1c0-0.2-0.1-0.3-0.2-0.4
				C74.1,60.3,74,60.3,73.8,60.3z"/>
		</g>
		<g id="XMLID_2964_">
			<path id="XMLID_2965_" class="st0" d="M81.7,59.7v-1l4.4-0.3v1l-1.5,0.1V64l-1.3,0.1v-4.5L81.7,59.7z"/>
		</g>
		<g id="XMLID_2961_">
			<path id="XMLID_2962_" class="st0" d="M91.9,61.3V58l1.3-0.1v3.3c0,0.3,0.1,0.6,0.2,0.7c0.2,0.2,0.4,0.2,0.7,0.2
				c0.3,0,0.6-0.1,0.7-0.3c0.2-0.2,0.3-0.5,0.3-0.8v-3.3l1.3-0.1v3.3c0,0.5-0.1,0.9-0.3,1.3c-0.2,0.4-0.5,0.7-0.9,0.8
				c-0.3,0.2-0.7,0.3-1.1,0.3c-0.6,0-1.2-0.1-1.6-0.5C92.1,62.5,91.9,62,91.9,61.3z"/>
		</g>
		<g id="XMLID_2957_">
			<path id="XMLID_2958_" class="st0" d="M104.6,57c0.9-0.1,1.6,0.1,2.2,0.6c0.6,0.5,0.9,1.1,0.9,1.9c0,0.8-0.3,1.5-0.9,2.1
				c-0.6,0.6-1.3,0.9-2.2,0.9l-1.9,0.1v-5.5L104.6,57z M104,61.5l0.6,0c0.5,0,0.9-0.2,1.2-0.6c0.3-0.3,0.4-0.8,0.4-1.3
				c0-0.5-0.1-0.9-0.4-1.2c-0.3-0.3-0.7-0.4-1.2-0.4l-0.6,0V61.5z"/>
		</g>
		<g id="XMLID_2954_">
			<path id="XMLID_2955_" class="st0" d="M113.5,61.8v-5.5l1.3-0.1v5.5L113.5,61.8z"/>
		</g>
		<g id="XMLID_2950_">
			<path id="XMLID_2951_" class="st0" d="M121.6,60.5c-0.5-0.5-0.8-1.1-0.8-2c0-0.8,0.3-1.5,0.8-2.1c0.5-0.6,1.2-0.9,2-0.9
				c0.8-0.1,1.5,0.2,2,0.6c0.5,0.5,0.8,1.1,0.8,2c0,0.8-0.3,1.5-0.8,2.1c-0.5,0.6-1.2,0.9-2,1C122.8,61.2,122.1,61,121.6,60.5z
				 M124.7,59.4c0.3-0.3,0.4-0.7,0.4-1.2c0-0.5-0.1-0.9-0.4-1.1c-0.3-0.3-0.6-0.4-1.1-0.4c-0.4,0-0.8,0.2-1.1,0.5
				c-0.3,0.3-0.4,0.7-0.4,1.2c0,0.5,0.1,0.9,0.4,1.1c0.3,0.3,0.6,0.4,1.1,0.4C124,59.9,124.4,59.7,124.7,59.4z"/>
		</g>
	</g>
	<g id="XMLID_2909_">
		<g id="XMLID_2946_">
			<path id="XMLID_2947_" class="st0" d="M44.4,27.7c0,0-1.5,2.4-6.3,2.8c-5.4,0.4-7.5-0.9-7.5-0.9v-5.3l0.2,0
				c0.4,1.9,2.9,6.3,7.2,5.9c3-0.2,3.8-4,0.5-6.2l-4.3-2.4c-3.9-2.2-4.9-5.5-2.6-8.6c0,0,1.5-2.2,6.1-2.6c4.7-0.4,6.6,0.8,6.6,0.8
				v4.7l-0.2,0c-0.6-2-1.9-5.5-6.3-5.2c-3,0.2-3.9,3.6-0.2,5.7l4.3,2.5C45.5,21.1,46.4,24.6,44.4,27.7z"/>
		</g>
		<g id="XMLID_2943_">
			<path id="XMLID_2944_" class="st0" d="M65.9,11.2v14.3c0,0.4-0.1,2.4,1.2,2.3V28L60,28.6v-0.2c0.7-0.1,0.7-2,0.7-2.5v-6.5
				l-6.7,0.5v6.5c0,0.4-0.1,2.4,0.7,2.4V29l-7.2,0.5v-0.2c1.4-0.1,1.2-2.1,1.2-2.5V12.5c0-0.3,0.1-2.4-1.2-2.3V10l7.2-0.5v0.2
				c-0.8,0.1-0.7,2.2-0.7,2.4v7.5l6.7-0.5v-7.5c0-0.3,0.1-2.4-0.7-2.3V9.1l7.2-0.5v0.2C65.9,8.8,65.9,10.9,65.9,11.2z"/>
		</g>
		<g id="XMLID_2940_">
			<path id="XMLID_2941_" class="st0" d="M69,21.6V11.1c0-1.7,0.1-2.4-1.1-2.4V8.5l7.9-0.6v0.2c-1.2,0.1-1.1,0.5-1.1,2.5v10.8
				c0,3.3,1.7,4.5,4.4,4.3c3-0.2,4.5-2.4,4.5-5v-7.2c0-2.3-0.7-5.9-3.4-5.7V7.5L87.4,7l0,0.2c-3.1,0.2-3.7,4-3.7,6.3v7.2
				c0,3.7-2.4,6.5-7.3,6.9C72.6,27.9,69,26.2,69,21.6z"/>
		</g>
		<g id="XMLID_2937_">
			<path id="XMLID_2938_" class="st0" d="M108.2,5.4v6.2l-0.2,0c-0.1-3.2-4.2-5.7-6.5-5.5l-0.3,0v16.1c0,1.9,0.1,2.9,1.2,2.8v0.2
				L94.2,26v-0.3c1.1-0.1,1.2-1.1,1.2-3V6.6l-0.3,0c-2.3,0.2-6.4,3.3-6.5,6.5l-0.2,0V6.9L108.2,5.4z"/>
		</g>
		<g id="XMLID_2934_">
			<path id="XMLID_2935_" class="st0" d="M129.2,3.8v6.2l-0.2,0c-0.1-3.2-4.2-5.7-6.5-5.5l-0.3,0v16.1c0,1.9,0.1,2.9,1.2,2.8v0.2
				l-8.2,0.6v-0.3c1.1-0.1,1.2-1.1,1.2-3V5l-0.3,0c-2.3,0.2-6.4,3.3-6.5,6.5l-0.2,0V5.3L129.2,3.8z"/>
		</g>
		<g id="XMLID_2931_">
			<path id="XMLID_2932_" class="st0" d="M146.8,16.6V22l-16.2,1.2V23c1.2-0.1,1.6-1.8,1.6-3.7V7.4c0-1.7-0.4-3.6-1.6-3.5V3.7
				l15.8-1.2v5.7l-0.3,0c0-5.4-7.6-4.9-7.6-4.9l-1,0.1v9.3l2.2-0.2c0,0,3-0.1,3.3-3.5l0.2,0v6.8l-0.2,0c-0.3-3.3-3.2-3-3.3-3
				l-2.2,0.2v9.5l1-0.1c0,0,7.9-0.3,7.9-5.8L146.8,16.6z"/>
		</g>
		<g id="XMLID_2927_">
			<path id="XMLID_2928_" class="st0" d="M170,20.1v0.3l-5.5,0.4c-2,0.1-2.6-1.1-3.2-6.2c-0.4-2.7-3.7-2.3-3.7-2.3l-1.3,0.1v5.9
				c0,2.7,0.1,2.9,1.3,2.8v0.3l-8.3,0.6v-0.2c1.2-0.1,1.4-0.2,1.4-3V4.9c0-1.7-0.2-2.5-1.4-2.4V2.3l7.9-0.6
				c5.5-0.4,10.5-0.1,10.5,4.5c0,4.2-3.8,5.3-6.5,5.5c3.2-0.2,4.8,0.3,6.2,5.2C167.8,19.1,169.2,20.1,170,20.1z M161,6.7
				c0-5.3-0.7-5-4-4.8l-0.9,0.1v10l0.9-0.1C160.7,11.7,161,11.8,161,6.7z"/>
		</g>
		<g id="XMLID_2924_">
			<path id="XMLID_2925_" class="st0" d="M66.2,48.7c0,0-1.5,2.4-6.3,2.7c-5.4,0.4-7.5-0.9-7.5-0.9v-5.3l0.2,0
				c0.4,1.9,2.9,6.3,7.2,5.9c3-0.2,3.8-4,0.5-6.2l-4.3-2.4c-3.9-2.2-4.9-5.5-2.6-8.6c0,0,1.5-2.2,6.1-2.6c4.7-0.4,6.6,0.8,6.6,0.8
				v4.7l-0.2,0c-0.6-2-1.9-5.5-6.3-5.2c-3,0.2-3.9,3.6-0.2,5.7l4.3,2.5C67.3,42.1,68.2,45.6,66.2,48.7z"/>
		</g>
		<g id="XMLID_2920_">
			<path id="XMLID_2921_" class="st0" d="M76.2,46.2c0,3.6,0.7,3.5,2.3,3.4v0.2l-9.1,0.7v-0.2c1.2-0.1,1.3-0.6,1.3-2.5V33.5
				c0-1.7-0.2-2.4-1.4-2.3V31l7-0.5c5.5-0.4,11-0.5,11,4.8c0,5.2-5.5,5.9-11,6.3V46.2z M76.2,41.4c4.1-0.3,4.5-0.3,4.5-5.6
				c0-5.6-0.8-5.3-4.5-5V41.4z"/>
		</g>
		<g id="XMLID_2917_">
			<path id="XMLID_2918_" class="st0" d="M105,42.4v5.4l-16.2,1.2v-0.3c1.2-0.1,1.6-1.8,1.6-3.7V33.2c0-1.7-0.4-3.6-1.6-3.5v-0.2
				l15.8-1.2V34l-0.2,0c0-5.4-7.6-4.9-7.6-4.9l-1,0.1v9.3l2.2-0.2c0,0,3-0.1,3.3-3.5l0.3,0v6.8l-0.3,0c-0.3-3.3-3.2-3-3.3-3
				l-2.2,0.2v9.5l1-0.1c0,0,7.9-0.3,7.9-5.8L105,42.4z"/>
		</g>
		<g id="XMLID_2914_">
			<path id="XMLID_2915_" class="st0" d="M123.8,41v5.4l-16.2,1.2v-0.2c1.2-0.1,1.6-1.8,1.6-3.7V31.8c0-1.7-0.4-3.6-1.6-3.5v-0.2
				l15.8-1.2v5.7l-0.2,0c0-5.4-7.6-4.9-7.6-4.9l-1,0.1v9.3l2.2-0.2c0,0,3-0.1,3.3-3.5l0.2,0v6.8l-0.2,0c-0.3-3.3-3.2-3-3.3-3
				l-2.2,0.2v9.5l1-0.1c0,0,7.9-0.3,7.9-5.8L123.8,41z"/>
		</g>
		<g id="XMLID_2910_">
			<path id="XMLID_2911_" class="st0" d="M146.9,35c0,8.1-6.5,10.2-12,10.6l-8.2,0.6V46c1.2-0.1,1.6-1.8,1.6-3.7V30.4
				c0-1.7-0.4-3.6-1.6-3.5v-0.2l8.2-0.6C140.4,25.6,146.9,26.9,146.9,35z M140,35.5c0-8.9-1.7-9.5-5.1-9.2l-1.2,0.1v19l1.2-0.1
				C138.1,45.1,140,44.6,140,35.5z"/>
		</g>
	</g>
</g>
</svg>
