<!-- Generator: Adobe Illustrator 22.1.0, SVG Export Plug-In . SVG Version: 6.00 Build 0)  -->
<svg version="1.1" id="Layer_1" xmlns="http://www.w3.org/2000/svg" xmlns:xlink="http://www.w3.org/1999/xlink" x="0px" y="0px"
	 viewBox="0 0 200.4 66.5" style="enable-background:new 0 0 200.4 66.5;" xml:space="preserve">
<style type="text/css">
	.st0{fill:#377DFF;}
</style>
<g id="XMLID_3136_">
	<g id="XMLID_3177_">
		<g id="XMLID_3205_">
			<path id="XMLID_3206_" class="st0 fill-primary" d="M36.3,45.9c0-0.2-0.3-0.4-0.4-0.6c0.1-0.2,0.3-0.4,0.4-0.5c0.1-0.5,0.1-1.1,0.2-1.7
				c0-0.2,0-0.4,0.1-0.7c0.4-0.8,0.5-1.5,0.4-2.3c0-0.1,0.2-0.4,0.3-0.7c0.1-0.1,0.2-0.3,0.2-0.4c-0.2-0.2,0-0.5,0.3-0.9
				c0.2-0.3,0.2-0.6,0.4-0.9c0.5-1.3,0.8-2.6,1.3-3.8c-0.3-2.3,5.5-10,1.1-8.9c-0.3,0.2-0.6,0.3-0.9,0.3c-4.6,2-4.2,1.7-5.9,5.8
				c-0.1,0.6-0.3,1.1-0.5,1.7c-0.1,0.2-0.1,0.5-0.2,0.8c-0.9,2-1.3,3.9-2.7,5.9c-0.1,0.1-0.1,0.1-0.2,0.2c-1.3,1.4-1.1,1.4-2.6,1.3
				c-0.2,0-0.5-0.1-0.7,0c-0.7,0.1-1-0.3-1-0.7c0-0.6,0.1-1.2,0.3-1.8c0.9-2.7,2-5.6,3.1-8.3c1.4-2.7-1.5-1-1.4-3.2
				c0-0.4-0.1-0.8,0.1-1.1c0.3-0.7,0.3-1.4,0.6-2c0.2-0.5,0.2-0.8,0.1-1c0.5-0.8,1-1.6,1.5-2.5c0.8,0.4,1.7,0,3-0.2
				c0.8-0.2,1.7-1.2,1.9-1.9c1-2.5,1.9-3.8,3.4-6.3c0.9-1.6,2.1-3.2,3.2-4.9c0.3-0.4,0.6-0.5,1-0.5c0.5,0.1,0.8,0.1,1.3,0.2
				c0.6,0.2,0.6,0.5,0.4,1.1c-0.5,0.9-1,1.8-1.4,2.6c-0.5,0.9-0.9,1.8-1.4,2.7c-4.1,5.5-0.4,5.2,4.3,3.6c0.2-0.3,0.3-0.4,0.4-0.6
				c0.7-1.7,1.3-2.7,2.3-4.5c0.2-0.5,0.6-1.1,0.7-1.5c0.1-0.8,0.7-1.4,1.1-2.1C50.6,7,50.8,6.6,51,6c0-0.4,0.4-1,0.6-1.5
				c0.7-1.1,1.5-2.1,2.2-3.2c0.8,0,1.7,0,2.5,0c1.3,0,2.4,0.3,3.3,0.9c0.8,0.5,1.2,1.2,0.9,2.3c-0.4,0.7-0.5,1.4-1.1,2.1
				c-1.5,2.2-2.6,4.5-3.6,6.8c-1.3,2.6,1.9,1.8,3.5,1.4c0.3-0.1,0.7-0.1,0.8,0.2c-1.2,0.2-2.5,0.4-3.5,0.7c-0.6,0.1-1.1,0.3-1.6,0.5
				c-0.7,0.3-1.1,0.9-1.3,1.6c0.3,0,0.8,0.1,1.1,0.1c0.2,0,0.5-0.1,0.7-0.2c0.7,0,1.5-0.2,2.2-0.1c0.3,0.1,1,0,1.4-0.1
				c0.5-0.1,0.9,0,1.4,0c-0.1-0.3-0.3-0.5-0.4-0.8c0-0.3,0.2-0.7,0.4-1.1c0.1,0,0.3,0,0.4,0c0.1-0.1,0.1-0.1,0.1-0.1
				c-0.2-0.2-0.4-0.5-0.5-0.7c0.8,0.3,1.4,0.9,1.6,1.7l0-0.1c-0.1,0.1-0.3,0.2-0.5,0.2c-0.5,0.9,0.2,1,1,1c-0.9,0.6-1.4,0.2-2.1,0.3
				c0.4,0.2,0.6,0.4,0.9,0.7c-0.4,0.1-0.9,0-1.2,0.7c0.3,0.1,0.7,0.1,1.1,0.1c-0.4,0.1-0.8,0.3-1,0.3c-0.2,0.1-0.6,0.1-0.8,0.5
				c0.2,0,0.5,0.1,0.8,0.2c-1.5,0.4-3,0.8-4.5,1.4c-1,0.3-2.1,0.6-3.2,0.9c-0.9,0.2-1.4,0.8-1.7,1.5c-0.6,1.1-0.9,2.1-1.2,3.2
				c-0.3,0.8-0.5,1.5-0.9,2.3c-0.6,1.3-0.8,2.6-1.3,3.8c-0.4,1.2-0.8,2.4-1.2,3.6c0,0.1-0.2,0.2-0.3,0.4c0,0.1-0.2,0.3-0.1,0.4
				c0.3,0.8-0.3,1.8-0.6,2.7c0,0.2-0.1,0.4-0.1,0.5c0.1,0.8-0.5,1.6-0.9,2.4c-0.1,0.4-0.7,0.7-1.1,1.1c-0.3,0-0.6,0.1-0.8,0.1
				c-0.2,0-0.4,0-0.5,0.1c-0.9,0.7-1.7,0.5-2.6,1.2c-0.3,0.2-0.1-0.3-0.4-0.1c-0.2,0.2-0.3,0.4-0.4,0.4c-0.2,0-0.3-0.1-0.6-0.2
				c-0.1,0.1-0.4,0.4-0.5,0.5C36.5,46.5,36.5,46.5,36.3,45.9z M32.4,20.3c-0.7,0.2-0.9,0.4-1.3,1.2c0.3,0,0.6,0.1,1,0.1
				c0.4,0.1,0.4,0.2,0.5,0.5c-0.6,0.2-1.1,0.2-1.7,0.8c0.7-0.1,1.3-0.2,1.9-0.4c0.5-0.8,0.8-1.6,1.3-2.5
				C33.4,20.2,33,20.3,32.4,20.3z M39.6,18.8c-0.4,0.1-0.7,0.2-0.7,0.5c0.2,0,0.3,0.1,0.4,0c1-0.4,1.8-0.8,2.8-1.1
				c0.4-0.1,0.8,0,1.2,0c0-0.1,0.1-0.2,0.1-0.2c-0.5,0.1-0.9,0.2-1.4,0.3C41.3,18.4,40.5,18.5,39.6,18.8z M40.3,20
				c-0.4,0.1-0.7,0.2-1.1,0.3C39.5,20.4,39.9,20.4,40.3,20z M44.2,19.8c-0.6-0.1-1.3,0.1-2.1,0.3c-0.4,0.2-0.9,0.3-1.4,0.3
				c-0.4,0-0.8,0.1-1.2,0.4c1.5,0,3-0.3,4.9-0.7C44.4,20,44.3,19.9,44.2,19.8z M44.1,20.7c-0.4-0.1-0.7-0.4-1.5,0.3
				C43.2,20.9,43.5,21.1,44.1,20.7z"/>
		</g>
		<g id="XMLID_3201_">
			<path id="XMLID_3202_" class="st0 fill-primary" d="M62.7,22.3C62.7,22.3,62.7,22.3,62.7,22.3c0.3-0.3,0.4-0.4,0.6-0.5
				c0.7-0.1,2.3-1.2,2.9-0.8c0.2,0.2,0.7,0.5,0.9,0.8c0.2,0.3,0.2,0.7,0,1.3c-0.4,0.8-0.9,1.5-1.5,2.4c-0.2,0.4-0.3,0.7-0.4,0.9
				c-0.3,0.5-0.6,1.2-1,1.8c-0.3,0.7,1-1.5,0.8-0.9c0,0.2-0.2,0.4-0.2,0.5c-0.6,1.2-0.6,0.9-0.8,2c-0.1,0.6-0.6,3.6-0.6,4.2
				c0,0.4,0.2,0.7,0.4,0.9c0.2,0.1,0.5,0.4,0.8,0.5c0.3,0.2,0.6,0.1,1,0.1c5.2-1.7,3.5-2.4,6.7-5.4c0.6-0.8,1.4-1.5,1.8-2.4
				c0-0.1,0-0.1,0.2-0.4c0.2,0.6-0.5,1.4,0.3,1.6c-1.5,2.2-2.8,5.5-5,6.7c-0.7,0.8-5.2,4.3-7.7,3.2c-0.9,0.3-1.6-0.6-2.4-0.9
				c-0.6-0.2-1.1-0.7-1.6-1.3c-0.2-0.8-0.4-1.6-0.3-2.4c-0.1-0.4,0-0.8,0-1.1c0.3-0.7,0.3-2.1,0.6-2.6c0.1-0.3,0.2-0.6,0.3-0.9
				c0.1-0.1,0-0.4,0.5-0.4c0.1,0,0.1-0.2,0.2-0.3c0.3-0.4,0.4-0.8,0.8-1.2c0,0-1.4,1.2-0.5,0.1c0.6-1.2,1.8-2.5,2.3-3.3
				c0-0.1,0.2-0.3,0.2-0.3c0.2-0.4,0.4-0.6,0.4-1c0-0.2,0.1-0.5,0.3-0.8C62.4,22.3,62.5,22.3,62.7,22.3z M68.9,15.9
				c-0.1,0.2-0.3,0.3-0.4,0.5c0,0.1,0,0.2-0.2,0.3c-0.2,0.2-0.4,0.4-0.7,0.7c-0.1,0.2-0.6,0.4-1,0.5c-0.1-0.1-0.3,0.1-0.4,0.2
				c-0.4,0.2-0.6,0.2-0.8,0C65.3,18,65.2,18,65,18c-0.2,0-0.4,0-0.7-0.1c0.1-0.1,0.1-0.2,0.2-0.2c0-0.2,0.2-0.4,0.2-0.6
				c0.2-0.3,0.3-0.5,0.5-0.8c0-0.1,0.2-0.2,0.2-0.3c0-0.4,0.4-0.6,0.6-1c0.1-0.2,0.3-0.4,0.4-0.5c0.1-0.1,0.3-0.2,0.4-0.2
				c0.1-0.1,0.2-0.1,0.3,0c0,0.1,0.1,0.1,0.2,0.1c0.1-0.1,0.2-0.1,0.2-0.1c0.2,0.1,0.5,0.2,0.8,0.3c0.4,0.2,0.7,0.5,0.9,0.9
				C69.1,15.6,69.1,15.8,68.9,15.9z"/>
		</g>
		<g id="XMLID_3197_">
			<path id="XMLID_3198_" class="st0 fill-primary" d="M92.3,29.7c-0.1,1.5,0.4,1,2.7,0.6c0.7-0.1,1.8-0.4,3.1-1.4c0.6-0.5,1.2,0.1,1.5,0.4
				c0,0.2-0.9,1.4-1.1,1.5c-2.7,1.4-4,1.4-5.9,1.6c-1.5,0.3-1.8,1.1-2.4,2.3l-0.3,0.5c-0.3,0.7-0.7,1.2-1.1,1.8
				c-0.1,0.1-0.3,0.3-0.4,0.4l-0.7,0.7c-0.3,0.4-0.7,0.9-1.2,1.2L86,39.8l-0.7,0.5c-0.2,0.1-0.4,0.1-0.5,0c-0.2-0.1-0.4-0.3-0.6-0.4
				c0-0.2,0-0.4,0-0.5c-0.1-0.5-0.2-1-0.7-1.1c-0.2-0.1-0.4-0.4-0.5-0.5c-0.2-0.4-0.4-0.5-0.6-0.7c-0.5-0.4-0.5-1.3,0.1-2.1
				c0.3-0.5,0.6-0.8,1-1.1c0.4-0.3,0.8-0.5,1.3-0.7c0.8-0.5,1.4-0.5,2.3-0.8c0.4-0.2,0.8-0.6,1.1-1.3c0.6-1.5,1.3-3.8,1.7-5.4l0.2-2
				c0-0.1,0-0.2,0-0.4c0-0.3-0.3-0.4-0.5-0.2c-0.1,0.1-0.2,0.1-0.3,0.3c-0.5,0.6-1,1.3-1.4,2c-1.1,1.7-2.1,3.5-3.2,5.2
				c-0.8,1.2-1.5,2.4-2.2,3.7c-1.1,2.1-3.4,4.2-4.5,6.5c-0.2,0.4-0.4,0.8-0.8,1.1c-0.3,0.1-0.5,0.6-0.5,0.9c0,0.4-0.2,0.9-0.3,1.2
				c-0.1,0.2-0.3,0.5-0.4,0.6c-0.4,0.4-0.6,0.7-0.8,1c-0.8,1.5-1.4,3-1.7,4.6c-0.1,0.7-0.2,1.4-0.5,2.1c-0.1,0.5-0.4,0.9-0.8,1.1
				c-0.3,0.2-0.6,0.4-0.8,0.9c-0.1,0.1-0.3,0.3-0.3,0.3c-0.2,0-0.3,0.4-0.4,0.6l-0.1,0c-1,0.2-1.5-0.6-1.7-1.7
				c-0.2-1.1-0.2-2.4-0.1-3.6c0.2-2.9,0.7-5.6,1.4-8.4c0.2-1.1,0.6-2.3,0.9-3.4c0.4-1.8,1.1-3.7,1.8-5.4c1-2.6,2-5.1,3-7.6
				c0.2-0.6,0.5-1.1,0.8-1.8c0.9-1.8,1.7-3.7,2.7-5.5c0.4-0.9,1-1.9,1.5-2.8c0.3-0.2,0.6-0.2,0.9,0l1.3,0.9l0.1,0.1
				c0.8,1.1,1.2,2.4,1.2,4.2c0,0.9-0.2,1.9-0.5,2.9c-0.5,1.4-1.1,3-1.8,4.4c-0.5,0.9-1,2.1-1.4,3.2c-1.3,3.3,0.6,2.9,1.2,1.9
				c0.2-0.5,1.3-1.6,1.5-2.2l2.4-4c0.4-0.8,0.7-1.3,1.3-1.9c0.5-0.5,1-1.1,1.5-1.5c0.4-0.4,1-0.6,1.4-0.6l1,0c0.6-0.1,1,0.4,1.4,0.8
				c0.3,0.2,0.5,0.7,0.5,1.1c0,0.5,0.1,1,0,1.4l0,1.7L92.3,29.7z M84.7,34.3c-0.4,0.2-0.7,0.6-0.7,1.3c0,0.3,0.2,0.5,0.4,0.5
				c0.1-0.1,0.3-0.1,0.4-0.2c0.3-0.2,0.6-0.4,0.9-0.7c0.8-0.9,1.1-1.8,0.9-1.5C85.8,34.1,85.3,33.9,84.7,34.3z"/>
		</g>
		<g id="XMLID_3193_">
			<path id="XMLID_3194_" class="st0 fill-primary" d="M99,47.8c-0.2,0-0.2,0-0.8,0.3c0,0,0-0.1,0-0.2c-0.1-0.1-0.1-0.1-0.2-0.2
				c-0.1,0.1-0.3,0.1-0.4,0.3c-0.3,0.2-0.6,0.3-1,0.4c-0.1,0.1-0.1,0.1-0.4-0.1c0.1-0.1,0.1-0.2,0.2-0.3c-0.2,0-0.3,0.1-0.5,0.1
				c-0.1,0.1-0.2,0.2-0.3,0.2c-0.5,0.3-0.7,0.2-0.9-0.3c-0.1-0.4-0.1-0.7-0.3-1C94,46.7,94,46.1,94,45.4c0-0.2,0.1-0.7,0.3-0.9
				c0.3-0.8,0.7-1.4,1.3-2.1c1.1-1.4,2.3-2.5,3.5-3.5c2.5-2,2.2-2.6,1.7-4.4c-0.2-1.4-0.7-2.4-1.2-3.5c0-0.2-0.2-0.4-0.2-0.7
				c-0.5-0.8-1.1-5.1-1-6.2c0.1-0.1,0.1-0.2,0.2-0.5c0-0.4,0.1-0.7,0.4-1.1c0.1-0.2,0.3-0.5,0.2-0.8c0.2-0.3,0.3-0.7,0.5-1
				c0.2-0.3,0.3-0.5,0.5-0.8c0.1-0.2,0.2-0.4,0.4-0.5c0.2-0.4,0.4-0.7,0.7-1.1c0.3-0.5,0.7-0.8,1-1.2c0.1-0.1,0.1-0.1,0.3-0.2
				c0.2-0.1,0.3-0.2,0.4-0.4c0.2-0.2,0.3-0.4,0.4-0.2c0.4,0.2,0.7,0.4,1,0.7c0,0,0.1,0,0.1,0.1c0.5,0.2,1.2,2.5,1.2,3.2
				c0,0.2,0,0.4,0.1,0.5c0,0.4-0.1,0.7-0.2,1.1c-0.2,0.5-0.4,1.1-0.7,1.5c-0.1,0.2-0.2,0.4-0.5,0.5c-0.2,0.1-0.4,0.4-0.5,0.6
				c-0.1,0.2-0.3,0.4-0.3,0.6c0,0,0,0.1-0.1,0.2c-0.2,0.3-0.4,0.6-0.6,0.9c-0.3,0.6-0.4,1.7-0.3,2.1c0.1,0.3,0.4,0.6,0.5,0.8
				c0.7,0.7,1.1,2.9,1.7,3.6c0.3,0.2,0.2,0.9,0.4,1.1c0.4,1.3,2.5-0.3,4.1-0.7c1-0.6,2-1.3,2.9-2c0.7-0.5,1.4-1,2.1-1.5
				c0.5-0.3,0.9-0.8,1.3-1.2c0.3-0.3,0.7-0.6,1-1c0.1,0.2,0.1,0.4,0.2,0.6c0.1,0.4,0.1,0.7-0.2,1.1c-0.1,0.2-0.2,0.3-0.2,0.5
				c-0.2,0.4-0.4,0.8-0.7,1.1c-0.3,0.4-0.6,0.8-0.9,1.2c-0.3,0.2-0.6,0.5-0.9,0.7c-0.5,0.4-0.9,0.7-1.4,1.1
				c-0.1,0.1-0.2,0.2-0.3,0.2c-0.7,0.3-1.4,0.9-2.1,1.4c-0.2,0.2-0.5,0.4-0.7,0.5c-1.3,0.9-3.1,0.8-3.3,2.5c0.1,1.2,0.1,1-0.4,2.4
				c0,0.2-0.1,0.3-0.1,0.5c-0.1,0.2-0.1,0.2-0.1,0.2c-0.3,0.4-0.2,1-0.4,1.4c-0.1,0.1-0.2,0.2-0.3,0.3c-0.1,0.1-0.1,0.1-0.2,0.1
				c-0.3,0.4-0.6,0.7-0.8,1.1c-0.4,0.6-2.2,2.3-2.7,2.8c-0.2,0.2-0.3,0.4-0.5,0.6c-0.3,0.4-0.8,0.5-1.2,0.7
				c-0.1,0.1-0.1,0.1-0.1,0.1c-0.4,0.4-0.8,0.6-1.2,0.6c-0.1,0.1-0.1,0.1-0.3,0.2C98.2,48.7,98.6,48.3,99,47.8z M97.2,42.9
				c-0.4,0.1-0.8,0.5-1,0.9c-0.2,0.4-0.4,0.6-0.7,0.8c-0.3,0.2-0.5,0.5-0.7,0.8c-0.1,0.4-0.1,0.7-0.3,0.9c-0.2,0.4-0.1,0.6,0,0.8
				c0.2,0.3,0.4,0.5,0.6,0.8c0.2,0.1,0.4,0.2,0.7,0c0.3-0.2,0.5-0.4,0.8-0.6c0.3-0.2,0.5-0.5,0.8-0.8c0.6-0.4,1.1-0.9,1.5-1.6
				c0.1-0.1,0.2-0.3,0.3-0.4c0.4-0.5,0.7-1,0.9-1.5c0.4-0.5,0.4-1.1,0.7-1.7c0.1,0,0.1-0.1,0.1-0.2c0.2-1.9-2.3,0.8-3.1,1.5
				C97.7,42.7,97.5,42.8,97.2,42.9z"/>
		</g>
		<g id="XMLID_3188_">
			<path id="XMLID_3189_" class="st0 fill-primary" d="M134.6,28.4c0,0.4-0.2,0.4-0.2,0.7c0,0.2-0.8,2-1,2.2c-0.5,0.9-1,1.9-1.5,2.8
				c-0.7,1.1-1.3,2-2,3c-0.3,0.4-3.5,3.9-3.8,4.2c-0.8,0.5-2.3,2-3.1,2.5c-0.5,0.3-2.4,0.9-2.8,1c-0.8,0-1.6,0.1-2.3-0.1
				c-1.2-0.2-2.9-2.1-3.4-3.3c-0.2-0.5-0.5-1-0.7-1.6c-0.2-0.8-0.2-2-0.2-2.9c0.6-5,1.2-5.7,3.2-10.5c0.2-0.4,0.3-0.8,0.4-1.2
				c0.1-0.4,0.3-0.8,0.5-1.2c0.3-0.7,0.5-1.3,0.8-1.9c0.4-1.3,2.3-3.5,0.9-3.9c-0.4-0.1-0.8,0-1.1-0.3c-0.3-0.2-0.7-0.4-1-0.7
				c-0.1-0.1-0.3-0.2-0.3-0.5c0.1-0.1,0.3-0.1,0.3-0.1c0.9-0.2,1.7-0.3,2.5-0.5c0.6-0.1,1.2-0.2,1.8-0.2c0.2-0.1,0.5-0.2,0.7-0.5
				c0.2-0.5,0.6-0.9,0.8-1.4c0.7-1.1,1.3-2.3,2.1-3.4c0.7-0.9,1.4-1.8,2.3-2.5c0.1-0.2,0.3-0.4,0.5-0.5c0.3-0.2,0.5-0.3,0.8-0.2
				c0.3,0.1,0.7,0,1.1,0c0.1,0,0.1,0,0.1-0.1c0.9-0.2,1.1,0.2,1.3,0.9c0.2,0.6,0.3,1.2,0.2,1.9c0,0.4,0,0.7,0,1c0,0.2,0,0.5-0.1,0.8
				c-0.1,0.3-0.2,0.6-0.3,0.9c-0.2,0.5-0.3,0.9-0.5,1.4c0,0.2,0,0.3-0.1,0.5c0.2,0.1,0.3,0.1,0.6,0.1c0.7-0.1,1.5-0.1,2.2-0.1
				c1,0,2.1,0,3.1,0c0.4,0,0.7,0.1,1.1,0.2c-0.1,0.2-0.2,0.3-0.3,0.4c-0.1,0.1-0.3,0.2-0.5,0.3c-0.4,0.2-0.9,0.4-1.4,0.6
				c0,0.1-0.1,0.1-0.1,0.1c-0.7,0-1.4,0.3-2.1,0.3c-0.4,0-0.8,0-1.3,0.2c-0.3,0.1-0.6,0.1-0.8,0.2c-0.5,0.1-0.9,0.1-1.4,0.2
				c-0.2,0.1-0.4,0.2-0.5,0.5c-0.1,0.1-0.1,0.1-0.1,0.2c-0.9,2-2.1,3.9-3.1,5.8c-0.1,0.2-0.3,0.5-0.4,0.6c-0.4,0.6-0.7,1.1-0.9,1.8
				c-0.2,0.5-0.6,1.1-1,1.5c-0.3,0.4-0.3,0.9-0.6,1.4c-0.8,1.5-2.1,6-2.3,8.2c0,1,0.1,1.8,0.3,2.7c0.1,0.3,0.3,0.5,0.5,0.7
				c0.1,0,0.1,0.1,0.2,0.1c0.5,0,1.6,0.1,2.2-0.3c0.4-0.2,2.4-1.6,2.7-1.9c1-0.9,3.3-3,4-4.2c0.7-1,1.1-2.3,1.8-3.2
				c0.3-0.6,1.1-1.9,1.4-2.5C134.2,28.4,134.7,28.2,134.6,28.4z M126.3,19.4c0.8-1.5,1.1-2.7-1-1.4c-0.9,2-1.3,3.3-2,5.1
				c-1.9,4.9,0.5,1.3,1.5-0.9C125.3,21.1,125.6,20.5,126.3,19.4z M128.9,12.6c0.1-0.2,0.2-0.5,0.3-0.8c0.1-0.5,0.3-0.9,0.4-1.4
				c0.1-0.5,0.1-1.1,0.1-1.6c0-0.2-0.2-0.3-0.3-0.2c-0.3,0.2-0.5,0.3-0.6,0.6c-0.3,0.5-0.6,1-0.8,1.5c-0.1,0.2-0.2,0.4-0.3,0.5
				c-0.1,0.2-0.3,0.5-0.4,0.8c-0.2,0.6-0.4,1.2-0.6,1.9c-0.4,1.5,1.3,1.6,1.7,0.6C128.5,13.9,128.7,13.3,128.9,12.6z"/>
		</g>
		<g id="XMLID_3181_">
			<path id="XMLID_3182_" class="st0 fill-primary" d="M140,28.6c0,0.1-0.1,0.2-0.3,0.3c-0.1,0.1-0.2,0.1-0.2,0.3c-0.1,0.2-0.2,0.3-0.3,0.4
				c-0.1,0.1-0.1,0.1-0.2,0.5c0.1,0,0.2,0,0.2,0.1c0,0,0,0,0,0.1c-0.1,0-0.2,0-0.4,0c0.1-0.2,0.1-0.4,0.1-0.5c-0.1,0-0.1,0-0.1,0
				c-0.1,0.4-0.2,0.8-0.3,1.2c0.1,0.1,0.2,0.1,0.2,0.1c0,0.4,0,0.8-0.1,1.2c0,0.4,0,0.8,0.1,1.1c0.2,0.2,0.5,1.6,0.6,1.8
				c0.7,0.8,1.6,1.9,2.6,2c0.3,0.1,2.1-0.2,2.4-0.3c1.5-0.4,3-1.1,4.4-2.1c1.1-0.8,2.2-1.6,3.3-2.5c0.1-0.1,0.1-0.1,0.2-0.2
				c0.4-0.4,0.8-0.8,1.2-1.2c0.7-0.6,1.4-1.3,2-2.1c0.2-0.3,0.4-0.6,0.8-0.7c-0.2,0.5-0.4,1-0.6,1.5c-0.1,0.2-0.2,0.4-0.4,0.5
				c-0.4,0.4-0.7,0.8-1,1.2c-0.2,0.2-0.5,0.5-0.7,0.7c-0.1,0.1-0.1,0.2-0.3,0.4c0.2-0.1,0.3-0.1,0.5-0.2c-0.1,0.4-0.4,0.4-0.5,0.7
				c0.1,0.1,0,0.1,0.2,0.2c-0.2,0.3-0.4,0.5-0.7,0.7c-0.4,0.3-0.8,0.6-1.1,1c-0.6,0.6-1.3,1.1-1.9,1.5c-0.3,0.2-0.6,0.5-0.9,0.6
				c-0.3,0.2-0.5,0.3-0.8,0.5c-0.4,0.2-0.8,0.3-1.1,0.6c-0.6,0.3-1.3,0.6-2,0.7c-0.2,0.1-0.4,0.1-0.6,0.2c-0.7,0.2-1.5,0.3-2.2,0.4
				c-0.9,0.1-4.3-0.6-5.1-0.9c-2-0.9-2.3-1.9-3.2-2.7c-0.3-0.3-0.6-0.8-0.7-1.3c-0.2-0.8-0.2-1.6-0.1-2.5c0.2-1.8,0.9-3.6,1.9-5.3
				c0.2-0.4,0.2-0.4,0.2-0.9c-0.3,0.2-0.5,0.3-0.7,0.6c-0.2,0.5-0.5,1-0.9,1.5c0.1-0.5,0.3-0.9,0.6-1.3c0.6-1.1,1.3-2.1,2-3
				c0.8-1,1.6-1.9,2.5-2.7c0.9-0.9,1.9-1.6,3-2.2c0.3-0.1,0.4-0.2,0.6-0.3c0.3-0.1,0.6-0.2,0.8,0.1c0.2,0.2,0.4,0.1,0.5,0.2
				c0.2,0.1,0.2,0.4,0.3,0.5c0.6,0.3,2.8,0.9,3.3,1.3c0.2,0.1,0.3,0.4,0.4,0.6c0.2,0.5,0.4,1.1,0.8,1.5c0.1,0.1,0.1,0.4,0.2,0.5
				c0,0.7,0,1.4-0.2,2.1c-0.2,0.8-0.7,1.6-1.2,2.3c-0.3,0.4-0.6,0.8-0.8,1.2c-0.2,0.4-0.4,0.8-0.7,1.2c-0.3,0.5-0.7,0.8-1.2,0.9
				c-0.4,0.2-0.8,0.2-1.2,0.2c-0.2-0.1-0.4,0-0.5-0.2c0-0.1-0.1-0.1-0.1-0.1c-0.5,0.1-0.7-0.5-1.1-0.7c-0.1-0.1-0.1-0.2-0.1-0.3
				c0.1-0.2,0-0.4,0-0.5c-0.2-0.5-0.4-1-0.6-1.5c0-0.2-0.2-0.2-0.4-0.1C140.3,28,140.1,28.3,140,28.6z M133.7,33.9
				c0,0.2,0.1,0.3,0.1,0.5c0,0.2,0.1,0.3,0,0.5c-0.1-0.1-0.1-0.1-0.1-0.1c-0.2-0.6-0.3-1.4-0.3-2.1c-0.1-0.1,0-0.1,0-0.2
				c0.1-0.9,0.2-1.7,0.5-2.6c0.1-0.2,0.2-0.4,0.2-0.5c0-0.1,0-0.2,0-0.4c-0.2,0.4-0.4,0.6-0.5,0.8c-0.1,0.3-0.2,0.5-0.3,0.8
				c-0.4,1.5-0.5,3,0,4.2c0.1,0.2,0.3,0.4,0.4,0.7c0.1,0.1,0.2,0.2,0.4,0.2c0,0.1,0.1,0,0.2,0c-0.1-0.3-0.3-0.5-0.4-0.8
				c-0.1-0.4-0.1-0.7-0.2-1C133.8,33.8,133.7,33.9,133.7,33.9z M134.1,30.1c-0.4,0.9-0.4,1.8-0.4,2.7c0,0.1,0.1,0.1,0.1,0.1
				c0.1-0.7,0.3-1.2,0.4-1.8c0.1-0.4,0.2-0.8,0.1-1.2C134.2,30,134.1,30,134.1,30.1z M138.2,31.6c0,0.1,0,0.1,0,0.1
				C138.2,31.7,138.2,31.7,138.2,31.6z M142.2,25.4c-0.1,0.2-0.3,0.4-0.5,0.6c-0.3,0.4-0.3,0.7,0,0.9c0.2,0.1,0.4,0.2,0.5,0.4
				c0.3,0.4,0.8,0.4,1.3,0.3c0.4-0.1,0.8-0.5,1.1-0.9c0.5-1,0.8-1.2,1.3-2.2c1.2-2.2-0.8-1.7-1.7-1C143.4,24,142.9,24.8,142.2,25.4z
				"/>
		</g>
		<g id="XMLID_3178_">
			<path id="XMLID_3179_" class="st0 fill-primary" d="M162.7,30.9c0.3-0.9,2.9-5.1,3.4-5.8c0.4-0.5,0.8-1.1,1.2-1.6c0.4-0.5,0.8-1,1.1-1.5
				c0.3-0.4,0.7-0.6,1-0.7c0.4,0,0.8,0,1.1,0c0.7,0,1.1,0.6,1.4,1.3c0,0.1,0,0.1,0,0.2c0,0.8,0.1,1.6,0.1,2.4c0,0.8-0.1,1.6-0.2,2.4
				c-0.1,0.5-0.1,1.1-0.2,1.6c0.3,0.2,0.2,0.4,0.3,0.4c0.1-0.1,0.5,0.1,0.7,0c0.1-0.1,0.2-0.2,0.3-0.3c0.3-0.2,0.5-0.3,0.8-0.6
				c0.2-0.3,0.4-0.3,0.6,0c0,0.2-0.1,0.4-0.3,0.5c-0.1,0.1-0.1,0.2-0.2,0.3c-0.1,0.2-0.2,0.4-0.4,0.4c-0.1,0.1-0.1,0.1-0.2,0.2
				c-0.1,0.1-0.2,0.1-0.2,0.2c-0.1,0.1-0.1,0.1-0.2,0.1c-0.3,0.2-0.5,0.3-0.7,0.3c-0.1,0-0.3,0.1-0.6,0.2c-0.2,0.1-0.4,0.1-0.5,0
				c-0.4-0.2-0.8-0.3-1.2-0.5c-0.7-0.2-1.2-0.9-1.4-1.7c-0.2-1.1-0.1-2.3,0.2-3.4c0.2-0.5,0.2-1,0.3-1.5c0.1-0.4,0.2-0.7,0.3-1.1
				c0.1-0.2,0.2-0.4,0.1-0.7c-0.1,0-0.2-0.1-0.2,0.1c-0.1,0.1-0.2,0.2-0.3,0.3c-0.3,0.5-0.6,0.9-1,1.5c-0.2,0.3-0.4,0.6-0.5,1.1
				c0,0.2-0.2,0.4-0.2,0.6c-0.7,1-1.2,1.9-1.7,3.1c-0.4,0.8-0.9,1.5-1.3,2.4c-0.7,1.2-1.5,2.4-2,3.7c-0.2,0.4-0.5,0.9-0.7,1.4
				c-0.2,0.4-2,3.2-2.4,3.5c0,0.1-0.2,0.2-0.3,0.3c-0.8,1-1.7,0.9-2.6,0.7c-0.1,0.1-0.2,0-0.3-0.1c-0.9-0.3-1.3-1.2-1.4-2.3
				c-0.1-1,0.1-2.1,0.2-3.1c0.2-1.5,0.5-3.1,0.8-4.6c0.5-1.7,0.2-1.6,0.9-3.2c0.7-2.3,0.4-2,1.5-4.3c0.1-0.4,0.4-0.7,0.5-1.1
				c0.5-1.1,1-2,1.6-3c0.3-0.8,0.6-0.9,1.2-0.8c0.4,0,0.9,0.1,1.5,0.3c0.4,0.1,0.7,0.2,1.1,0.6c0.3,0.8,0.9,1.3,1.4,2
				c0.4,1,0.5,1.7,0,2.8c-0.4,1.2-0.5,0.3-0.9,1.5c-1.1,2.5-2.7,4.4-3.6,6.7C159.3,34.6,162.3,31.9,162.7,30.9z"/>
		</g>
	</g>
	<g id="XMLID_3137_">
		<g id="XMLID_3173_">
			<path id="XMLID_3174_" class="st0 fill-primary" d="M49.1,60.1c0.8,0,1.5,0.2,2,0.7c0.5,0.5,0.8,1.1,0.8,1.8c0,0.8-0.3,1.4-0.8,1.8
				c-0.5,0.5-1.2,0.7-2,0.7h-1.8v-5.1H49.1z M48.6,64.3h0.6c0.5,0,0.9-0.1,1.1-0.4c0.3-0.3,0.4-0.7,0.4-1.2c0-0.5-0.1-0.9-0.4-1.2
				C50,61.2,49.6,61,49.1,61h-0.6V64.3z"/>
		</g>
		<g id="XMLID_3170_">
			<path id="XMLID_3171_" class="st0 fill-primary" d="M59.1,60.1V61h-1.9v1.1h1.6v0.9h-1.6v1.2h1.9v0.9H56v-5.1H59.1z"/>
		</g>
		<g id="XMLID_3167_">
			<path id="XMLID_3168_" class="st0 fill-primary" d="M65.3,61c-0.2,0-0.3,0-0.4,0.1c-0.1,0.1-0.1,0.2-0.1,0.4c0,0.2,0,0.3,0.1,0.4
				c0.1,0.1,0.2,0.2,0.4,0.2c0.1,0.1,0.3,0.1,0.5,0.1c0.2,0,0.4,0.1,0.5,0.2s0.3,0.1,0.5,0.2c0.1,0.1,0.3,0.2,0.4,0.4
				c0.1,0.2,0.1,0.4,0.1,0.6c0,0.4-0.2,0.8-0.5,1.1c-0.4,0.3-0.8,0.5-1.4,0.5c-0.6,0-1-0.1-1.4-0.4c-0.4-0.3-0.5-0.7-0.5-1.2h1.3
				c0,0.4,0.2,0.6,0.6,0.6c0.2,0,0.3,0,0.4-0.1c0.1-0.1,0.2-0.2,0.2-0.4c0-0.1,0-0.3-0.1-0.4c-0.1-0.1-0.2-0.2-0.4-0.2
				c-0.1-0.1-0.3-0.1-0.5-0.1c-0.2,0-0.4-0.1-0.5-0.2s-0.3-0.1-0.5-0.2c-0.1-0.1-0.3-0.2-0.4-0.4c-0.1-0.2-0.1-0.4-0.1-0.6
				c0-0.5,0.2-0.9,0.5-1.1c0.4-0.3,0.8-0.4,1.4-0.4c0.6,0,1,0.1,1.3,0.4c0.3,0.3,0.5,0.6,0.5,1.2h-1.4c0-0.2-0.1-0.3-0.2-0.4
				C65.6,61.1,65.4,61,65.3,61z"/>
		</g>
		<g id="XMLID_3164_">
			<path id="XMLID_3165_" class="st0 fill-primary" d="M71.6,65.2v-5.1h1.2v5.1H71.6z"/>
		</g>
		<g id="XMLID_3161_">
			<path id="XMLID_3162_" class="st0 fill-primary" d="M77.8,64.5C77.2,64,77,63.4,77,62.6c0-0.8,0.3-1.4,0.8-1.9c0.5-0.5,1.1-0.7,1.9-0.7
				c0.6,0,1.1,0.2,1.5,0.5c0.4,0.3,0.8,0.7,0.9,1.3h-1.5c-0.2-0.4-0.5-0.6-0.9-0.6c-0.4,0-0.8,0.1-1,0.4c-0.2,0.3-0.4,0.6-0.4,1.1
				c0,0.4,0.1,0.8,0.4,1.1c0.2,0.3,0.6,0.4,1,0.4c0.3,0,0.5-0.1,0.7-0.2c0.2-0.1,0.3-0.3,0.4-0.6h-1.4v-0.9h2.8v0.9
				c-0.1,0.5-0.3,0.9-0.8,1.3c-0.2,0.2-0.4,0.4-0.7,0.5c-0.3,0.1-0.6,0.2-0.9,0.2C78.9,65.3,78.3,65,77.8,64.5z"/>
		</g>
		<g id="XMLID_3158_">
			<path id="XMLID_3159_" class="st0 fill-primary" d="M89.5,60.1h1.2v5.1h-1.2L87.4,62v3.2h-1.2v-5.1h1.2l2.1,3.2V60.1z"/>
		</g>
		<g id="XMLID_3155_">
			<path id="XMLID_3156_" class="st0 fill-primary" d="M102.5,61c-0.2,0-0.3,0-0.4,0.1c-0.1,0.1-0.1,0.2-0.1,0.4c0,0.2,0,0.3,0.1,0.4
				c0.1,0.1,0.2,0.2,0.4,0.2c0.1,0.1,0.3,0.1,0.5,0.1c0.2,0,0.4,0.1,0.5,0.2c0.2,0.1,0.3,0.1,0.5,0.2c0.1,0.1,0.3,0.2,0.4,0.4
				c0.1,0.2,0.1,0.4,0.1,0.6c0,0.4-0.2,0.8-0.5,1.1c-0.4,0.3-0.8,0.5-1.4,0.5c-0.6,0-1-0.1-1.4-0.4c-0.4-0.3-0.5-0.7-0.5-1.2h1.3
				c0,0.4,0.2,0.6,0.6,0.6c0.2,0,0.3,0,0.4-0.1c0.1-0.1,0.2-0.2,0.2-0.4c0-0.1,0-0.3-0.1-0.4c-0.1-0.1-0.2-0.2-0.4-0.2
				c-0.1-0.1-0.3-0.1-0.5-0.1c-0.2,0-0.4-0.1-0.5-0.2s-0.3-0.1-0.5-0.2c-0.1-0.1-0.3-0.2-0.4-0.4c-0.1-0.2-0.1-0.4-0.1-0.6
				c0-0.5,0.2-0.9,0.5-1.1c0.4-0.3,0.8-0.4,1.4-0.4c0.6,0,1,0.1,1.3,0.4c0.3,0.3,0.5,0.6,0.5,1.2H103c0-0.2-0.1-0.3-0.2-0.4
				C102.8,61.1,102.6,61,102.5,61z"/>
		</g>
		<g id="XMLID_3152_">
			<path id="XMLID_3153_" class="st0 fill-primary" d="M108.4,61v-0.9h4V61h-1.4v4.2h-1.2V61H108.4z"/>
		</g>
		<g id="XMLID_3149_">
			<path id="XMLID_3150_" class="st0 fill-primary" d="M116.6,63.1v-3.1h1.2v3.1c0,0.3,0.1,0.5,0.2,0.7c0.2,0.2,0.4,0.2,0.7,0.2s0.5-0.1,0.7-0.2
				c0.2-0.2,0.2-0.4,0.2-0.7v-3.1h1.2v3.1c0,0.5-0.1,0.8-0.3,1.2c-0.2,0.3-0.5,0.6-0.8,0.7c-0.3,0.2-0.7,0.2-1.1,0.2
				c-0.6,0-1.1-0.2-1.5-0.6C116.8,64.3,116.6,63.8,116.6,63.1z"/>
		</g>
		<g id="XMLID_3145_">
			<path id="XMLID_3146_" class="st0 fill-primary" d="M127,60.1c0.8,0,1.5,0.2,2,0.7c0.5,0.5,0.8,1.1,0.8,1.8c0,0.8-0.3,1.4-0.8,1.8
				c-0.5,0.5-1.2,0.7-2,0.7h-1.8v-5.1H127z M126.5,64.3h0.6c0.5,0,0.9-0.1,1.1-0.4c0.3-0.3,0.4-0.7,0.4-1.2c0-0.5-0.1-0.9-0.4-1.2
				c-0.3-0.3-0.6-0.4-1.1-0.4h-0.6V64.3z"/>
		</g>
		<g id="XMLID_3142_">
			<path id="XMLID_3143_" class="st0 fill-primary" d="M134,65.2v-5.1h1.2v5.1H134z"/>
		</g>
		<g id="XMLID_3138_">
			<path id="XMLID_3139_" class="st0 fill-primary" d="M140.1,64.5c-0.5-0.5-0.8-1.1-0.8-1.9c0-0.8,0.3-1.4,0.8-1.9c0.5-0.5,1.1-0.7,1.9-0.7
				c0.7,0,1.4,0.2,1.9,0.7c0.5,0.5,0.8,1.1,0.8,1.9c0,0.8-0.3,1.4-0.8,1.9c-0.5,0.5-1.1,0.7-1.9,0.7S140.6,65,140.1,64.5z M143,63.7
				c0.2-0.3,0.4-0.6,0.4-1.1c0-0.4-0.1-0.8-0.4-1.1c-0.2-0.3-0.6-0.4-1-0.4c-0.4,0-0.7,0.1-1,0.4c-0.2,0.3-0.4,0.6-0.4,1.1
				c0,0.4,0.1,0.8,0.4,1.1c0.2,0.3,0.6,0.4,1,0.4C142.4,64.1,142.7,64,143,63.7z"/>
		</g>
	</g>
</g>
</svg>
