<!-- Generator: Adobe Illustrator 22.1.0, SVG Export Plug-In . SVG Version: 6.00 Build 0)  -->
<svg version="1.1" id="Layer_1" xmlns="http://www.w3.org/2000/svg" xmlns:xlink="http://www.w3.org/1999/xlink" x="0px" y="0px"
	 viewBox="0 0 200.4 66.5" style="enable-background:new 0 0 200.4 66.5;" xml:space="preserve">
<style type="text/css">
	.st0{fill:#8C98A4;}
</style>
<g id="XMLID_539_">
	<g id="XMLID_574_">
		<g id="XMLID_591_">
			<path id="XMLID_592_" class="st0" d="M25.1,34.6c0,0-2.1,3.2-8.9,3.2c-7.6,0-10.5-2-10.5-2v-7.5H6c0.6,2.7,4,9.2,10.2,9.2
				c4.2,0,5.4-5.2,0.7-8.7l-6-3.8c-5.6-3.5-6.9-8.3-3.6-12.5c0,0,2.2-3,8.6-3c6.7,0,9.3,1.8,9.3,1.8v6.6h-0.4c-0.8-2.8-2.7-8-8.9-8
				c-4.2,0-5.4,4.7-0.4,8l6,4C26.6,25.3,28,30.4,25.1,34.6z"/>
		</g>
		<g id="XMLID_588_">
			<path id="XMLID_589_" class="st0" d="M30.6,28.6V13.7c0-2.4,0.2-3.4-1.6-3.4V9.9h11.2v0.4c-1.7,0-1.6,0.6-1.6,3.4v15.2
				c0,4.6,2.4,6.6,6.2,6.6c4.2,0,6.3-2.9,6.3-6.6V18.7c0-3.2-1-8.5-4.7-8.5V9.9h10.3l0,0.4c-4.4,0-5.2,5.3-5.2,8.5v10.2
				c0,5.2-3.4,8.9-10.3,8.9C35.7,37.8,30.6,35,30.6,28.6z"/>
		</g>
		<g id="XMLID_585_">
			<path id="XMLID_586_" class="st0" d="M87.2,9.9h9.6v0.4c-1.9,0-1.8,0.5-1.8,2.9v20.7c0,2.7,0.3,3.3,2.2,3.3v0.4h-12v-0.4
				c1.8,0,2-0.6,2-3.3V11L77.1,37.8h-0.4L64,14.2v12.9c0,5.1,1.4,10,6,10v0.4H57.8v-0.4c4.2,0,5.9-4.9,5.9-10V13.7
				c-1.5-2.7-2.8-3.3-3.9-3.4V9.9h11.2l9.5,18L87.2,9.9z"/>
		</g>
		<g id="XMLID_582_">
			<path id="XMLID_583_" class="st0" d="M127.6,9.9h9.6v0.4c-1.9,0-1.8,0.5-1.8,2.9v20.7c0,2.7,0.3,3.3,2.2,3.3v0.4h-12v-0.4
				c1.8,0,2-0.6,2-3.3V11l-10.2,26.9h-0.4l-12.7-23.6v12.9c0,5.1,1.4,10,6,10v0.4H98.1v-0.4c4.2,0,5.9-4.9,5.9-10V13.7
				c-1.5-2.7-2.8-3.3-3.9-3.4V9.9h11.2l9.5,18L127.6,9.9z"/>
		</g>
		<g id="XMLID_579_">
			<path id="XMLID_580_" class="st0" d="M162,29.8v7.7h-22.9v-0.4c1.6,0,2.3-2.4,2.3-5V15.3c0-2.4-0.5-5.1-2.3-5.1V9.9h22.4v8h-0.4
				c0-7.6-10.7-7.7-10.7-7.7H149v13.1h3.2c0,0,4.2,0.1,4.6-4.6h0.4v9.6h-0.4c-0.4-4.7-4.6-4.6-4.6-4.6H149v13.4h1.4
				c0,0,11.2,0.4,11.2-7.3H162z"/>
		</g>
		<g id="XMLID_575_">
			<path id="XMLID_576_" class="st0" d="M195,37.1v0.4h-7.8c-2.8,0-3.6-1.8-4.6-9.1c-0.5-3.9-5.2-3.7-5.2-3.7h-1.8v8.3
				c0,3.8,0.2,4.1,1.8,4.1v0.4h-11.7v-0.4c1.7,0,2-0.1,2-4.1V13.7c0-2.4-0.3-3.5-2-3.5V9.9h11.1c7.8,0,14.8,0.9,14.8,7.5
				c0,5.9-5.4,7.1-9.2,7.1c4.5,0,6.8,1,8.7,8C191.9,35.5,194,37.1,195,37.1z M182.4,17.4c0-7.5-1-7.1-5.6-7.1h-1.2v14.2h1.2
				C181.9,24.4,182.4,24.5,182.4,17.4z"/>
		</g>
	</g>
	<g id="XMLID_540_">
		<g id="XMLID_571_">
			<path id="XMLID_572_" class="st0" d="M48.8,50.5h1.6v6.4h-1.6v-2.6h-2.5v2.6h-1.6v-6.4h1.6v2.6h2.5V50.5z"/>
		</g>
		<g id="XMLID_567_">
			<path id="XMLID_568_" class="st0" d="M60.3,56.9l-0.4-1.1h-2.3l-0.4,1.1h-1.7l2.2-6.4h1.9l2.2,6.4H60.3z M58,54.6h1.5l-0.8-2.3
				L58,54.6z"/>
		</g>
		<g id="XMLID_564_">
			<path id="XMLID_565_" class="st0" d="M67.3,56.9v-6.4h1.6v6.4H67.3z"/>
		</g>
		<g id="XMLID_560_">
			<path id="XMLID_561_" class="st0" d="M76.3,54.4v2.5h-1.6v-6.4h2.5c0.7,0,1.3,0.2,1.7,0.6c0.4,0.4,0.6,0.8,0.6,1.4
				c0,0.4-0.1,0.7-0.3,1.1c-0.2,0.3-0.6,0.6-1.1,0.7l1.6,2.6h-1.8l-1.4-2.5H76.3z M76.3,51.7v1.5h1c0.2,0,0.4-0.1,0.6-0.2
				c0.1-0.1,0.2-0.3,0.2-0.5c0-0.2-0.1-0.4-0.2-0.6c-0.1-0.1-0.3-0.2-0.6-0.2H76.3z"/>
		</g>
		<g id="XMLID_556_">
			<path id="XMLID_557_" class="st0" d="M94.9,50.5c1,0,1.9,0.3,2.5,0.9c0.7,0.6,1,1.4,1,2.3c0,0.9-0.3,1.7-1,2.3
				c-0.7,0.6-1.5,0.9-2.5,0.9h-2.2v-6.4H94.9z M94.2,55.7h0.7c0.6,0,1.1-0.2,1.4-0.5c0.3-0.4,0.5-0.9,0.5-1.5c0-0.6-0.2-1.1-0.5-1.5
				c-0.3-0.4-0.8-0.5-1.4-0.5h-0.7V55.7z"/>
		</g>
		<g id="XMLID_553_">
			<path id="XMLID_554_" class="st0" d="M107.7,50.5v1.2h-2.3V53h2v1.2h-2v1.5h2.3v1.2h-3.9v-6.4H107.7z"/>
		</g>
		<g id="XMLID_550_">
			<path id="XMLID_551_" class="st0" d="M115.8,51.6c-0.2,0-0.4,0.1-0.5,0.2c-0.1,0.1-0.2,0.3-0.2,0.4c0,0.2,0.1,0.3,0.2,0.5
				c0.1,0.1,0.3,0.2,0.4,0.3c0.2,0.1,0.4,0.1,0.6,0.2c0.2,0.1,0.5,0.1,0.7,0.2c0.2,0.1,0.4,0.2,0.6,0.3c0.2,0.1,0.3,0.3,0.4,0.5
				c0.1,0.2,0.2,0.5,0.2,0.8c0,0.5-0.2,1-0.7,1.4c-0.4,0.4-1,0.6-1.7,0.6c-0.7,0-1.3-0.2-1.7-0.5c-0.4-0.3-0.7-0.8-0.7-1.5h1.7
				c0,0.5,0.3,0.8,0.8,0.8c0.2,0,0.4-0.1,0.5-0.2c0.1-0.1,0.2-0.3,0.2-0.4c0-0.2-0.1-0.3-0.2-0.4c-0.1-0.1-0.3-0.2-0.4-0.3
				c-0.2-0.1-0.4-0.1-0.6-0.2c-0.2-0.1-0.5-0.1-0.7-0.2c-0.2-0.1-0.4-0.2-0.6-0.3c-0.2-0.1-0.3-0.3-0.4-0.5
				c-0.1-0.2-0.2-0.5-0.2-0.8c0-0.6,0.2-1.1,0.7-1.4c0.4-0.4,1-0.5,1.7-0.5c0.7,0,1.2,0.2,1.7,0.5c0.4,0.3,0.6,0.8,0.7,1.5h-1.7
				c0-0.2-0.1-0.4-0.2-0.5C116.1,51.7,116,51.6,115.8,51.6z"/>
		</g>
		<g id="XMLID_547_">
			<path id="XMLID_548_" class="st0" d="M124,56.9v-6.4h1.6v6.4H124z"/>
		</g>
		<g id="XMLID_544_">
			<path id="XMLID_545_" class="st0" d="M132.1,56c-0.6-0.6-0.9-1.4-0.9-2.3c0-0.9,0.3-1.7,0.9-2.3c0.6-0.6,1.4-0.9,2.3-0.9
				c0.7,0,1.3,0.2,1.9,0.6c0.6,0.4,0.9,0.9,1.2,1.6h-1.9c-0.2-0.5-0.6-0.7-1.2-0.7c-0.5,0-1,0.2-1.3,0.5c-0.3,0.3-0.5,0.8-0.5,1.3
				c0,0.6,0.2,1,0.5,1.3c0.3,0.3,0.7,0.5,1.2,0.5c0.4,0,0.7-0.1,0.9-0.3c0.2-0.2,0.4-0.4,0.5-0.7H134v-1.2h3.5v1.2
				c-0.1,0.6-0.4,1.1-1,1.6c-0.2,0.2-0.6,0.4-0.9,0.6c-0.4,0.1-0.8,0.2-1.2,0.2C133.5,56.9,132.7,56.6,132.1,56z"/>
		</g>
		<g id="XMLID_541_">
			<path id="XMLID_542_" class="st0" d="M147.1,50.5h1.6v6.4h-1.6l-2.6-4v4H143v-6.4h1.6l2.6,4V50.5z"/>
		</g>
	</g>
</g>
</svg>
