<!-- Generator: Adobe Illustrator 22.1.0, SVG Export Plug-In . SVG Version: 6.00 Build 0)  -->
<svg version="1.1" id="Layer_1" xmlns="http://www.w3.org/2000/svg" xmlns:xlink="http://www.w3.org/1999/xlink" x="0px" y="0px"
	 viewBox="0 0 200.4 66.5" style="enable-background:new 0 0 200.4 66.5;" xml:space="preserve">
<style type="text/css">
	.st0{fill:#FFFFFF;}
</style>
<g id="XMLID_3629_">
	<g id="XMLID_3681_">
		<path id="XMLID_3682_" class="st0" d="M198.3,41.9c-7.2-0.3-14.5,0.3-19.9-1.5c-1.8-0.1,1.9-3.1,0.1-4.8c-1.8-0.1-5.4-0.2-7.2-0.3
			c-1.7-2.5,2-4.7,0.2-7.2c-1.7-2.5-9-1.1-10.8-2.8c-5.4-1.8,3.7-2.3,9.1-2.1c-1.8-1.7,3.6,0.1,3.7-1.5c0.1-3.2,0.2-6.4-7-9.1
			c-1.8-0.9,0.1-3.2,0.1-4.8c-21.7-0.8-45.2-1.7-67,0.8C81.7,10.3,59.9,6.1,41.9,8C36.5,8.7,27.6,5.1,23.8,9
			c1.8,0.1,3.6,0.1,5.4,0.2C23.7,11.4,18.4,8.8,13,9.4c0,1.6-0.1,2.4-1.9,3.1c3.6,0.1,9.1-0.5,12.7,0.5l-0.1,2.4
			c-3.6,0.7-9-1.1-12.7-0.5c0,0.8-0.1,2.4-0.1,3.2c0,0.8-1.8,0.7-3.6,0.7c1.8,0.1,5.4,0.2,7.2,0.3c0,0.8-0.1,2.4-0.1,3.2
			c0,0.8-1.8,0.7-3.6,0.7c0,1.6-1.9,3.1-0.1,4c1.8,0.1,3.6,0.1,5.4,0.2C8.8,27.7,5,31.6,5,34c1.8-0.7,1.8,1.7,3.6,0.9
			c-5.5,2.2-11,5.2-3.8,6.3c63.2,4.7,128.3,3.9,191.7,4.6C200,45.2,198.3,43.5,198.3,41.9z"/>
	</g>
	<g id="XMLID_3657_">
		<g id="XMLID_3677_">
			<path id="XMLID_3678_" class="st0" d="M23,28.3v6.4h-4V18.4h6.4c1.9,0,3.4,0.5,4.4,1.5c1.1,1,1.6,2.2,1.6,3.5
				c0,0.9-0.3,1.9-0.9,2.8C30,27,29,27.7,27.7,28l4,6.7h-4.7l-3.7-6.4H23z M23,21.4v3.9h2.5c0.6,0,1.1-0.2,1.4-0.5
				c0.3-0.4,0.5-0.8,0.5-1.4c0-0.6-0.2-1.1-0.5-1.4c-0.4-0.4-0.8-0.6-1.4-0.6H23z"/>
		</g>
		<g id="XMLID_3674_">
			<path id="XMLID_3675_" class="st0" d="M50.8,18.3v3h-5.9v3.5h5.2v3h-5.2v3.8h5.9v3H41V18.3H50.8z"/>
		</g>
		<g id="XMLID_3671_">
			<path id="XMLID_3672_" class="st0" d="M60.7,34.7V18.4h10.6v3h-6.7v3.5h5v3h-5v6.8H60.7z"/>
		</g>
		<g id="XMLID_3667_">
			<path id="XMLID_3668_" class="st0" d="M84.5,28.3v6.4h-4V18.4H87c1.9,0,3.4,0.5,4.4,1.5c1.1,1,1.6,2.2,1.6,3.5
				c0,0.9-0.3,1.9-0.9,2.8c-0.6,0.9-1.5,1.5-2.8,1.9l4,6.7h-4.7L85,28.3H84.5z M84.5,21.4v3.9H87c0.6,0,1.1-0.2,1.4-0.5
				c0.3-0.4,0.5-0.8,0.5-1.4c0-0.6-0.2-1.1-0.5-1.4c-0.4-0.4-0.8-0.6-1.4-0.6H84.5z"/>
		</g>
		<g id="XMLID_3664_">
			<path id="XMLID_3665_" class="st0" d="M112.4,18.3v3h-5.9v3.5h5.2v3h-5.2v3.8h5.9v3h-9.9V18.3H112.4z"/>
		</g>
		<g id="XMLID_3661_">
			<path id="XMLID_3662_" class="st0" d="M127.8,21.3c-0.5,0-0.9,0.1-1.2,0.4c-0.3,0.3-0.5,0.6-0.5,1.1c0,0.5,0.1,0.9,0.4,1.2
				c0.3,0.3,0.7,0.5,1.2,0.7c0.5,0.2,1,0.3,1.6,0.5c0.6,0.1,1.2,0.3,1.7,0.5c0.6,0.2,1.1,0.5,1.6,0.8c0.5,0.3,0.9,0.7,1.2,1.3
				c0.3,0.6,0.4,1.2,0.4,2c0,1.4-0.6,2.6-1.7,3.5c-1.1,1-2.6,1.5-4.4,1.5c-1.8,0-3.3-0.4-4.4-1.3c-1.1-0.9-1.7-2.1-1.7-3.8h4.2
				c0.1,1.3,0.8,2,2,2c0.6,0,1-0.2,1.3-0.5c0.3-0.3,0.5-0.7,0.5-1.2c0-0.5-0.1-0.8-0.4-1.1c-0.3-0.3-0.7-0.5-1.2-0.7
				c-0.5-0.2-1-0.3-1.6-0.5c-0.6-0.1-1.2-0.3-1.7-0.5c-0.6-0.2-1.1-0.5-1.6-0.8c-0.5-0.3-0.9-0.7-1.2-1.3c-0.3-0.6-0.4-1.2-0.4-2
				c0-1.5,0.6-2.7,1.7-3.7c1.1-0.9,2.6-1.4,4.3-1.4c1.8,0,3.2,0.4,4.3,1.2c1.1,0.8,1.7,2.1,1.7,3.8h-4.3c-0.1-0.6-0.3-1-0.6-1.4
				C128.7,21.4,128.3,21.3,127.8,21.3z"/>
		</g>
		<g id="XMLID_3658_">
			<path id="XMLID_3659_" class="st0" d="M154,18.4h4v16.3h-4v-6.8h-6.3v6.8h-4V18.4h4v6.5h6.3V18.4z"/>
		</g>
	</g>
	<g id="XMLID_3630_">
		<g id="XMLID_3654_">
			<path id="XMLID_3655_" class="st0" d="M51,51.9v6.5h-1.6v-3.6L48,58.4h-1.2l-1.5-3.6v3.6h-1.6v-6.5h1.8l1.9,4.5l1.8-4.5H51z"/>
		</g>
		<g id="XMLID_3650_">
			<path id="XMLID_3651_" class="st0" d="M61.9,58.4l-0.4-1.1h-2.3l-0.4,1.1h-1.7l2.2-6.5h1.9l2.2,6.5H61.9z M59.7,56.1h1.5
				l-0.8-2.3L59.7,56.1z"/>
		</g>
		<g id="XMLID_3647_">
			<path id="XMLID_3648_" class="st0" d="M70.4,57.5c-0.6-0.6-1-1.4-1-2.4c0-1,0.3-1.7,1-2.4c0.6-0.6,1.4-0.9,2.4-0.9
				c0.7,0,1.4,0.2,1.9,0.6c0.6,0.4,0.9,0.9,1.2,1.6h-1.9c-0.2-0.5-0.6-0.7-1.2-0.7c-0.5,0-1,0.2-1.3,0.5c-0.3,0.3-0.5,0.8-0.5,1.4
				c0,0.6,0.2,1,0.5,1.4c0.3,0.3,0.7,0.5,1.2,0.5c0.4,0,0.7-0.1,0.9-0.3c0.2-0.2,0.4-0.4,0.5-0.8h-1.8v-1.2h3.5v1.2
				c-0.1,0.6-0.4,1.1-1,1.6c-0.3,0.2-0.6,0.4-0.9,0.6c-0.4,0.2-0.8,0.2-1.2,0.2C71.8,58.4,71,58.1,70.4,57.5z"/>
		</g>
		<g id="XMLID_3643_">
			<path id="XMLID_3644_" class="st0" d="M86.4,58.4L86,57.3h-2.3l-0.4,1.1h-1.7l2.2-6.5h1.9l2.2,6.5H86.4z M84.1,56.1h1.5l-0.8-2.3
				L84.1,56.1z"/>
		</g>
		<g id="XMLID_3640_">
			<path id="XMLID_3641_" class="st0" d="M98.6,51.9v1.2l-2.8,4.1h2.8v1.2H94v-1.2l2.8-4.1H94v-1.2H98.6z"/>
		</g>
		<g id="XMLID_3637_">
			<path id="XMLID_3638_" class="st0" d="M105.1,58.4v-6.5h1.6v6.5H105.1z"/>
		</g>
		<g id="XMLID_3634_">
			<path id="XMLID_3635_" class="st0" d="M117.7,51.9h1.6v6.5h-1.6l-2.6-4.1v4.1h-1.6v-6.5h1.6l2.6,4.1V51.9z"/>
		</g>
		<g id="XMLID_3631_">
			<path id="XMLID_3632_" class="st0" d="M130,51.9v1.2h-2.3v1.4h2.1v1.2h-2.1v1.5h2.3v1.2h-3.9v-6.5H130z"/>
		</g>
	</g>
</g>
</svg>
