<!-- Generator: Adobe Illustrator 22.1.0, SVG Export Plug-In . SVG Version: 6.00 Build 0)  -->
<svg version="1.1" id="Layer_1" xmlns="http://www.w3.org/2000/svg" xmlns:xlink="http://www.w3.org/1999/xlink" x="0px" y="0px"
	 viewBox="0 0 200.4 66.5" style="enable-background:new 0 0 200.4 66.5;" xml:space="preserve">
<style type="text/css">
	.st0{fill:#8C98A4;}
</style>
<g id="XMLID_3683_">
	<g id="XMLID_3713_">
		<g id="XMLID_3728_">
			<path id="XMLID_3729_" class="st0" d="M38.6,5.4H39c21,48.2,22.5,51,22.5,51c3,6.7,5.8,6.7,7.5,6.9V64H39.8v-0.7
				c6.7,0,1.7-9.7,1.7-9.7l-2.7-5.7H22.5c-1.7,3.8-0.2,15.5,9.8,15.5v0.7H8.4v-0.7c2.5-0.2,7-0.8,13.4-15.5L38.6,5.4z M30.2,28.3
				L22.8,47h15.7L30.2,28.3z"/>
		</g>
		<g id="XMLID_3725_">
			<path id="XMLID_3726_" class="st0" d="M90.1,63.2v0.7H69.4v-0.7c3.2-0.9,3.2-4.4,3.2-8.7V11.3c0-2.9-1-4.1-4.4-5.3V5.4l18.5-3.5
				v52.6C86.7,59.1,87.1,62.4,90.1,63.2z"/>
		</g>
		<g id="XMLID_3721_">
			<path id="XMLID_3722_" class="st0" d="M113.2,63.2v0.7H92.4v-0.7c3.2-0.9,3.2-4.5,3.2-8.7V34.2c0-2.9-0.9-4.1-4.3-5.3v-0.7
				l18.5-3.5v29.8C109.8,59.1,110.2,62.4,113.2,63.2z M93.9,14.7c0-4.4,3.5-7.9,7.9-7.9s8,3.5,8,7.9s-3.6,7.9-8,7.9
				S93.9,19.1,93.9,14.7z"/>
		</g>
		<g id="XMLID_3718_">
			<path id="XMLID_3719_" class="st0" d="M143.7,60.1c0,0-3.2,4.5-12.8,4.5c-10.1,0-14.8-2.8-14.8-2.8V50.9h0.7
				c1.7,7.7,8.6,13,14.1,13c5.9,0,7.2-6.9,0.9-11.1l-8.4-5.1c-7.8-5.2-9.9-13.4-4.8-19c0,0,3.1-4,12.6-4c9.6,0,13.6,2.3,13.6,2.3
				v8.5h-0.7c-1.5-7.5-8-10.1-12.8-10.1c-5.4,0-8,5.4-0.7,10l8.4,5.2C146.3,45.3,148.3,54.7,143.7,60.1z"/>
		</g>
		<g id="XMLID_3714_">
			<path id="XMLID_3715_" class="st0" d="M192,58.6c-1.2,3.7-5.5,6.1-10.7,6.1c0,0-9.2,0-10-7.5c-1.1,4.3-5.3,7.5-11.2,7.5
				c-3.2,0-10.4-1.4-10.4-8.5c0-8.3,6.7-9.9,21.5-13.4v-5.3c0-8.6-4.9-13.3-10.6-10.3c0,0-1.8,1.1,1,2.1c1.4,0.5,2.3,1.7,3,3.2
				c1.2,3.1-0.2,6.4-3.2,7.7c-3,1.2-6.4-0.3-7.7-3.2c-0.8-2.2-0.4-4.7,1-6.2c1-1.1,2.5-2.6,5.6-4.2c3.7-2,7.8-1.7,7.8-1.7
				c10.9,0,17,6.8,17,16.6v12.4c0,0,0,6,4,5.8c0,0,2.1,0,2.5-1.4L192,58.6z M171.2,43.6c-6.8,1.5-6.7,6.6-6.7,10.5
				c0,0-0.1,5.5,3.2,5.5c1.4,0,2.6-1.2,3.5-3.2V43.6z"/>
		</g>
	</g>
</g>
</svg>
